<?xml version="1.0" standalone="no"?>
<!DOCTYPE svg PUBLIC "-//W3C//DTD SVG 1.1//EN" "http://www.w3.org/Graphics/SVG/1.1/DTD/svg11.dtd" >
<svg>
<metadata>
Created by FontForge 20110222 at Mon Sep  8 12:23:47 2014
 By Orthosie Webhosting
2002 - Iconian Fonts: http://www.iconian.com
</metadata>
<defs>
<font id="911PorschaLaserItalicLaserItalic" horiz-adv-x="982" >
  <font-face 
    font-family="911PorschaLaserItalicLaserItalic"
    font-weight="400"
    font-style="italic"
    font-stretch="normal"
    units-per-em="1000"
    panose-1="0 0 4 0 0 0 0 0 0 0"
    ascent="800"
    descent="-200"
    x-height="486"
    cap-height="484"
    bbox="-74 -185 2000 815"
    underline-thickness="20"
    underline-position="-190"
    slope="-12"
    unicode-range="U+0020-2122"
  />
<missing-glyph horiz-adv-x="500" 
d="M63 0v815h375v-815h-375zM125 63h250v690h-250v-690z" />
    <glyph glyph-name=".notdef" horiz-adv-x="500" 
d="M63 0v815h375v-815h-375zM125 63h250v690h-250v-690z" />
    <glyph glyph-name=".null" horiz-adv-x="0" 
 />
    <glyph glyph-name="nonmarkingreturn" horiz-adv-x="500" 
 />
    <glyph glyph-name="space" unicode=" " horiz-adv-x="522" 
 />
    <glyph glyph-name="space" unicode="&#xa0;" horiz-adv-x="522" 
 />
    <glyph glyph-name="exclam" unicode="!" horiz-adv-x="190" 
d="M62 154l102 -1l62 154h-102zM298 486h-102l-47 -116h102zM113 32l22 54q12 30 -13 30h-47q-27 0 -38 -26l-25 -62q-11 -26 13 -26h48q28 0 40 30z" />
    <glyph glyph-name="quotedbl" unicode="&#x22;" horiz-adv-x="350" 
d="M420 402l-12 -30l-65 -102h-26l41 102h-26q-23 0 -12 26l25 62q11 26 37 26h47q25 0 13 -30zM262 402l-12 -30l-65 -102h-26l41 102h-26q-23 0 -12 26l25 62q11 26 37 26h47q25 0 13 -30z" />
    <glyph glyph-name="FL0023h" unicode="#" 
d="M384 89h195l-36 -88h101l36 88h249l41 101h-249l42 105h249l5 12h-890l-5 -12h244l-42 -105h-244l-41 -101h244l-36 -88h101zM152 370h890l11 26h-249l36 88h-101l-36 -88h-195l36 88h-101l-36 -88h-244zM662 295l-42 -105h-195l42 105h195z" />
    <glyph glyph-name="dollar" unicode="$" 
d="M473 -53l21 54h318q78 0 126 118l30 75q45 109 -34 109h-318l2 4h-102l-2 -4h-269q-7 0 -11 4h-110l-2 -4q-42 -106 27 -107h322l-31 -76h-392l-48 -119h392l-21 -54h102zM541 370h102l1 2h396l46 114h-396l22 54h-102l-22 -54h-321q-70 0 -111 -101l-7 -15h115q6 2 9 2
h269zM542 120l31 76h266q27 -1 11 -43q-7 -7 -18.5 -17t-25.5 -16h-264z" />
    <glyph glyph-name="FL0025h" unicode="%" horiz-adv-x="606" 
d="M1 2h142l365 305h-144zM722 486h-144l-139 -116h144z" />
    <glyph glyph-name="ampersand" unicode="&#x26;" 
d="M542 118l31 78h396l43 107h-396l2 4h-102l-2 -4h-269q-7 0 -11 4h-110l-91 -225q-33 -81 52 -81h307l-21 -54h102l21 54h396l48 118zM541 370h102l1 2h396l46 114h-396l22 54h-102l-22 -54h-321q-70 0 -111 -101l-7 -15h115q6 2 9 2h269zM172 120q-25 16 -16 39
q10 25 47 37h268l-31 -76h-268z" />
    <glyph glyph-name="quotesingle" unicode="'" horiz-adv-x="194" 
d="M262 402l-12 -30l-65 -102h-26l41 102h-26q-23 0 -12 26l25 62q11 26 37 26h47q25 0 13 -30z" />
    <glyph glyph-name="parenleft" unicode="(" horiz-adv-x="318" 
d="M189 -86l54 134h-106l18 78l73 181h-104l-94 -232q-65 -161 10 -161h149zM149 370h104q7 14 20 35.5t33 50.5h102l53 130h-147q-77 0 -134 -141z" />
    <glyph glyph-name="parenright" unicode=")" horiz-adv-x="318" 
d="M-35 -86h149q75 0 140 161l94 232h-104l-73 -181l-46 -78h-106zM404 445q57 141 -20 141h-147l-53 -130h102q-4 -29 -8 -50.5t-9 -35.5h104z" />
    <glyph glyph-name="FL002Ah" unicode="*" horiz-adv-x="190" 
d="M284 456l-22 -54q-12 -30 -37 -30h-47q-27 0 -16 26l25 62q11 26 33 26h48q28 0 16 -30z" />
    <glyph glyph-name="plus" unicode="+" horiz-adv-x="984" 
d="M471 196l-79 -195h102l79 195h396l42 104h-396l3 7h-102l-3 -7h-391l-42 -104h391zM541 370h102l47 114h-102z" />
    <glyph glyph-name="comma" unicode="," horiz-adv-x="194" 
d="M113 32l-12 -30l-65 -102h-26l41 102h-26q-24 0 -13 26l25 62q11 26 38 26h47q25 0 13 -30z" />
    <glyph glyph-name="hyphen" unicode="-" horiz-adv-x="484" 
d="M471 196h-391l42 104h391z" />
    <glyph glyph-name="period" unicode="." horiz-adv-x="194" 
d="M113 32q-12 -30 -40 -30h-48q-24 0 -13 26l25 62q11 26 38 26h47q25 0 13 -30z" />
    <glyph glyph-name="slash" unicode="/" horiz-adv-x="606" 
d="M1 2h142l356 305h-135zM708 486h-130l-139 -116h133z" />
    <glyph glyph-name="zero" unicode="0" 
d="M71 1h743q76 0 124 118l76 188h-102l-65 -161q-26 -29 -39 -30h-630q-15 0 -15 30l65 161h-104l-76 -188q-48 -118 23 -118zM917 370h122l6 14q42 102 -35 102h-743q-70 0 -112 -102l-6 -14h115q9 5 19 6h621q3 -2 6.5 -3t6.5 -3z" />
    <glyph glyph-name="one" unicode="1" horiz-adv-x="984" 
d="M1 2h890l48 120h-396l75 185h-102l-75 -185h-392zM541 370h102l47 114h-494l-45 -110h392z" />
    <glyph glyph-name="two" unicode="2" 
d="M878 291l-674 1q-28 -8 -64 -30t-64 -66l-76 -195h890l46 114h-796l16 37q24 24 64 32h666q79 0 122 109l6 14h-107q-13 -16 -29 -16zM1008 486h-812l-47 -116h890q47 116 -31 116z" />
    <glyph glyph-name="three" unicode="3" 
d="M47 116l-47 -115h818q73 0 107 85l26 64q14 35 3 77q37 22 59 76l2 4h-117q-9 -6 -13 -7h-664l-42 -104h650q13 0 18 -30q-17 -29 -42 -50h-758zM914 370h126l6 13q41 101 -36 101h-813l-45 -110h759q2 -2 3 -4z" />
    <glyph glyph-name="four" unicode="4" 
d="M892 1l124 306h-96l-2 -5h-696l2 5h-101l-45 -111h797l-79 -195h96zM148 370h101l47 114h-101zM945 370h96l46 113h-96z" />
    <glyph glyph-name="five" unicode="5" 
d="M938 119l30 75q45 109 -34 109h-718l2 4h-94l-45 -111h760q27 -1 11 -43q-7 -7 -18.5 -17t-25.5 -16h-758l-48 -119h812q78 0 126 118zM149 370h94l1 2h796l46 114h-890z" />
    <glyph glyph-name="six" unicode="6" 
d="M225 300l3 7h-104l-76 -188q-48 -118 23 -118h743q76 0 124 118l37 91q36 90 -46 90h-704zM149 370h115q9 5 19 6h759l44 110h-819q-70 0 -112 -102zM184 198h660l13 -26l-10 -26l-39 -30h-630q-15 0 -15 30z" />
    <glyph glyph-name="seven" unicode="7" 
d="M196 484l-47 -114h890q45 114 -30 114h-813zM890 1l124 306h-104l-124 -306h104z" />
    <glyph glyph-name="eight" unicode="8" 
d="M107 1h711q73 0 107 85l26 64q14 35 3 77q37 22 59 76l2 4h-117q-9 -6 -13 -7h-656q-2 4 -2 7h-102l-2 -4q-19 -47 8 -73q-54 -42 -71 -84l-30 -73q-29 -72 77 -72zM259 374h652q2 -2 3 -4h126l6 13q41 101 -36 101h-736q-77 0 -117 -97l-7 -17h105zM805 116h-640
q-6 11 3 34l2 6q14 29 29 40h630q13 0 18 -30q-17 -29 -42 -50z" />
    <glyph glyph-name="nine" unicode="9" 
d="M862 187l-14 -34q-17 -41 -44 -41h-759l-45 -111h819q71 0 113 102l82 204h-104l-7 -18h-660q-10 7 -13 18h-106l-12 -30q-36 -90 46 -90h704zM914 370h125q47 116 -24 116h-743q-75 0 -123 -116h126q2 0 4 1h630q4 0 5 -1z" />
    <glyph glyph-name="colon" unicode=":" horiz-adv-x="194" 
d="M199 246q-12 -30 -40 -30h-48q-23 0 -12 26l25 62q11 26 37 26h47q25 0 13 -30zM113 32q-12 -30 -40 -30h-48q-24 0 -13 26l25 62q11 26 38 26h47q25 0 13 -30z" />
    <glyph glyph-name="semicolon" unicode=";" horiz-adv-x="194" 
d="M199 246q-12 -30 -40 -30h-48q-23 0 -12 26l25 62q11 26 37 26h47q25 0 13 -30zM113 32l-12 -30l-65 -102h-26l41 102h-26q-24 0 -13 26l25 62q11 26 38 26h47q25 0 13 -30z" />
    <glyph glyph-name="less" unicode="&#x3c;" horiz-adv-x="318" 
d="M225 2l49 122h-110l2 30l62 153h-104l-76 -189q-48 -117 29 -117zM149 370h119l2 2h104l46 112h-147q-79 -2 -119 -102z" />
    <glyph glyph-name="equal" unicode="=" horiz-adv-x="520" 
d="M123 300h429l30 74h-429zM476 114l32 80h-428l-32 -80h428z" />
    <glyph glyph-name="greater" unicode="&#x3e;" horiz-adv-x="318" 
d="M1 2l146 -1q77 0 125 117l76 189h-104l-62 -153l-22 -30h-110zM378 382q40 100 -35 102h-147l-46 -112h104v-2h119z" />
    <glyph glyph-name="question" unicode="?" 
d="M1046 385q41 101 -31 101h-819l-46 -114h767q3 0 7 -2h115zM62 154l102 -1q16 41 45 43h690q71 1 113 107l2 4h-111q-3 -2 -7 -3t-7 -1h-689q-77 0 -122 -109zM113 32l22 54q12 30 -13 30h-47q-27 0 -38 -26l-25 -62q-11 -26 13 -26h48q28 0 40 30z" />
    <glyph glyph-name="at" unicode="@" 
d="M71 1h743q76 0 124 118l76 188h-102l-65 -161q-26 -29 -39 -30h-630q-15 0 -15 30l65 161h-104l-76 -188q-48 -118 23 -118zM917 370h122l6 14q42 102 -35 102h-743q-70 0 -112 -102l-6 -14h115q9 5 19 6h621q3 -2 6.5 -3t6.5 -3zM687 141l67 165v1h-382l-67 -166h42
l34 84h295l-34 -84h45zM397 266l10 23q13 11 15 11h274q3 0 5 -12l-10 -22h-294z" />
    <glyph glyph-name="A" unicode="A" 
d="M891 1l124 306h-106l-2 -5h-685l2 5h-100l-124 -306h100l79 195h684l-79 -195h107zM149 370h891l6 13q41 101 -44 101h-710q-95 0 -134 -94z" />
    <glyph glyph-name="B" unicode="B" 
d="M221 300l3 7h-99l-124 -306h804l14 1h2q70 0 104 85l26 63q14 35 3 77q37 22 59 76l2 4h-117q-9 -6 -13 -7h-664zM914 370h126l6 13q41 101 -36 101h-813l-47 -114h99l2 4h660q2 -2 3 -4zM805 116h-658l32 80h650q13 0 18 -30q-17 -29 -42 -50z" />
    <glyph glyph-name="C" unicode="C" 
d="M890 1l50 123h-776l2 30l62 153h-104l-76 -189q-48 -117 29 -117h813zM149 370h119l2 2h770l45 111h-813q-77 0 -118 -101z" />
    <glyph glyph-name="D" unicode="D" 
d="M151 122l75 185h-102l-124 -306h813q77 0 125 117l76 189h-104l-62 -153l-25 -32h-672zM921 370h118l5 12q41 101 -36 101h-813l-46 -113h102l2 4h668q-1 -2 -0.5 -2.5t0.5 -1.5z" />
    <glyph glyph-name="E" unicode="E" horiz-adv-x="984" 
d="M890 1l49 121h-788l30 74h788l42 104h-788l3 7h-101l-124 -306h889zM150 370h101l2 4h788l45 110h-889z" />
    <glyph glyph-name="F" unicode="F" horiz-adv-x="984" 
d="M102 1l79 195h788l42 104h-788l3 7h-101l-124 -306h101zM150 370h101l2 4h788l45 110h-889z" />
    <glyph glyph-name="G" unicode="G" 
d="M410 198h458l-21 -52l-39 -30h-630q-15 0 -15 30l65 161h-104l-76 -188q-48 -118 23 -118h743q76 0 124 118l73 181h-560zM149 370h115q9 5 19 6h759l44 110h-819q-70 0 -112 -102z" />
    <glyph glyph-name="H" unicode="H" 
d="M892 1l124 306h-102l-3 -7h-690l3 7h-101l-124 -306h101l79 195h690l-79 -195h102zM939 370h102l46 113h-102zM148 370h101l47 114h-101z" />
    <glyph glyph-name="I" unicode="I" horiz-adv-x="984" 
d="M1 2h890l48 120h-396l75 185h-102l-75 -185h-392zM541 370h102l2 4h396l45 110h-890l-45 -110h392z" />
    <glyph glyph-name="J" unicode="J" 
d="M0 1h813q77 0 125 117l76 189h-104l-62 -153l-27 -32h-772zM1086 484h-104l-47 -114h104z" />
    <glyph glyph-name="K" unicode="K" 
d="M900 248l46 59h-108l-4 -5h-612l2 5h-100l-124 -306h100l79 195h610l-4 -195h106zM1087 486h-106l-93 -116h107zM296 486h-100l-47 -116h100z" />
    <glyph glyph-name="L" unicode="L" horiz-adv-x="984" 
d="M890 1l48 119h-788l76 187h-101l-124 -306h889zM298 484h-101l-47 -114h101z" />
    <glyph glyph-name="M" unicode="M" 
d="M541 370h102l2 4h266q3 -1 4 -4h124q47 116 -29 116h-743q-70 0 -118 -116h122q2 2 5 2.5t5 1.5h262zM104 1l124 306h-104l-124 -306h104zM494 1l124 306h-102l-124 -306h102zM890 1l124 306h-102l-124 -306h102z" />
    <glyph glyph-name="N" unicode="N" 
d="M1010 486h-743q-70 0 -118 -116h122q2 2 5 2.5t5 1.5h630q3 -1 4 -4h124q47 116 -29 116zM104 1l124 306h-104l-124 -306h104zM890 1l124 306h-102l-124 -306h102z" />
    <glyph glyph-name="O" unicode="O" 
d="M79 1h735q76 0 124 118l76 188h-102l-65 -161q-26 -29 -39 -30h-630q-15 0 -15 30l65 161h-104l-76 -188q-48 -118 31 -118zM917 370h122l6 14q42 102 -35 102h-734q-79 0 -121 -102l-6 -14h115q9 5 19 6h621q3 -2 6.5 -3t6.5 -3z" />
    <glyph glyph-name="P" unicode="P" horiz-adv-x="984" 
d="M179 196h722q69 0 114 110v1h-114q-2 -2 -5.5 -3.5t-6.5 -3.5h-668l3 7h-100l-124 -306h100zM917 374q1 -2 3 -4h120l7 17q40 99 -29 99h-822l-47 -116h100l2 4h666z" />
    <glyph glyph-name="Q" unicode="Q" 
d="M71 1h743q76 0 124 118l76 188h-102l-65 -161l-39 -30h-267l48 120h-102l-48 -120h-261q-15 0 -15 30l65 161h-104l-76 -188q-48 -118 23 -118zM917 370h122l6 14q42 102 -35 102h-743q-70 0 -112 -102l-6 -14h116q9 4 20 6h619q3 -2 6.5 -3t6.5 -3z" />
    <glyph glyph-name="R" unicode="R" 
d="M891 1l2 195h8q69 0 114 110v1h-117q-5 -3 -10 -5h-666l2 5h-100l-124 -306h100l79 195h606v-195h106zM919 374q1 -2 2 -2.5t1 -1.5h118l7 17q40 99 -29 99h-822l-47 -116h100l2 4h668z" />
    <glyph glyph-name="S" unicode="S" 
d="M938 119l30 75q45 109 -34 109h-689q-7 0 -11 4h-110l-2 -4q-42 -106 27 -107h690q27 -1 11 -43q-7 -7 -18.5 -17t-25.5 -16h-758l-48 -119h812q78 0 126 118zM149 370h115q6 2 9 2h767l46 114h-819q-70 0 -111 -101z" />
    <glyph glyph-name="T" unicode="T" horiz-adv-x="984" 
d="M645 374h396l45 110h-890l-45 -110h392l-2 -4h102zM494 1l124 306h-102l-124 -306h102z" />
    <glyph glyph-name="U" unicode="U" 
d="M847 146l-44 -30h-628q-12 0 -12 30l65 161h-104l-76 -188q-48 -118 23 -118h743q76 0 124 118l76 188h-102zM149 370h104l47 116h-104zM937 370h102l47 116h-102z" />
    <glyph glyph-name="V" unicode="V" 
d="M395 307h-135l111 -305h106l384 305h-139l-252 -193zM956 486l-152 -116h136l146 116h-130zM196 486l41 -116h133l-44 116h-130z" />
    <glyph glyph-name="W" unicode="W" 
d="M176 113q-13 3 -13 33l65 161h-104l-76 -188q-48 -118 23 -118h743q76 0 124 118l76 188h-102l-65 -161l-41 -33h-266l78 194h-102l-78 -194h-262zM300 486h-104l-47 -116h104zM1086 486h-102l-47 -116h102zM690 485l-102 1l-47 -116h102z" />
    <glyph glyph-name="X" unicode="X" 
d="M193 250l-193 -249h106l158 195h521v-195h106l7 251l44 55h-104l-4 -5h-533v5h-108v-57zM196 486l-2 -116h107l1 116h-106zM1087 486h-106l-93 -116h105z" />
    <glyph glyph-name="Y" unicode="Y" horiz-adv-x="984" 
d="M495 2l78 194h328q69 0 114 110v1h-117q-3 -2 -5.5 -3t-4.5 -2h-628q-14 0 -19 5h-117q-44 -111 27 -111h320l-79 -195zM149 370h100l47 116h-100zM945 370h95l47 116h-95z" />
    <glyph glyph-name="Z" unicode="Z" 
d="M78 194l-78 -193h890l48 119h-788l14 33q16 41 45 43h690q71 1 113 107l2 4h-117q-7 -5 -11 -5h-686q-79 -2 -122 -108zM1086 486h-890l-46 -114h796l-1 -2h94z" />
    <glyph glyph-name="bracketleft" unicode="[" horiz-adv-x="318" 
d="M189 -86l54 134h-106l18 78l73 181h-104l-94 -232q-65 -161 10 -161h149zM149 370h104q7 14 20 35.5t33 50.5h102l53 130h-147q-77 0 -134 -141z" />
    <glyph glyph-name="backslash" unicode="\" horiz-adv-x="606" 
d="M513 2l-107 305h-146l111 -305h142zM196 484l40 -114h148l-39 114h-149z" />
    <glyph glyph-name="bracketright" unicode="]" horiz-adv-x="318" 
d="M-35 -86h149q75 0 140 161l94 232h-104l-73 -181l-46 -78h-106zM404 445q57 141 -20 141h-147l-53 -130h102q-4 -29 -8 -50.5t-9 -35.5h104z" />
    <glyph glyph-name="FL005Eh" unicode="^" horiz-adv-x="710" 
d="M202 192l258 224l62 -224h128l-57 296h-184l-335 -296h128z" />
    <glyph glyph-name="underscore" unicode="_" horiz-adv-x="839" 
d="M-56 -140h838l45 110h-838z" />
    <glyph glyph-name="grave" unicode="`" horiz-adv-x="194" 
d="M262 402l-12 -30l-65 -102h-26l41 102h-26q-23 0 -12 26l25 62q11 26 37 26h47q25 0 13 -30z" />
    <glyph glyph-name="a" unicode="a" 
d="M891 1l124 306h-106l-2 -5h-685l2 5h-100l-124 -306h100l79 195h684l-79 -195h107zM149 370h891l6 13q41 101 -44 101h-710q-95 0 -134 -94z" />
    <glyph glyph-name="b" unicode="b" 
d="M221 300l3 7h-99l-124 -306h803l15 1h2q70 0 104 85l26 63q14 35 3 77q37 22 59 76l2 4h-117q-9 -6 -13 -7h-664zM914 370h126l6 13q41 101 -36 101h-813l-47 -114h99l2 4h660q2 -2 3 -4zM805 116h-658l32 80h650q13 0 18 -30q-17 -29 -42 -50z" />
    <glyph glyph-name="c" unicode="c" 
d="M890 1l50 123h-776l2 30l62 153h-104l-76 -189q-48 -117 29 -117h813zM149 370h119l2 2h770l45 111h-813q-77 0 -118 -101z" />
    <glyph glyph-name="d" unicode="d" 
d="M151 122l75 185h-102l-124 -306h813q77 0 125 117l76 189h-104l-62 -153l-25 -32h-672zM921 370h118l5 12q41 101 -36 101h-813l-46 -113h102l2 4h668q-1 -2 -0.5 -2.5t0.5 -1.5z" />
    <glyph glyph-name="e" unicode="e" horiz-adv-x="984" 
d="M890 1l49 121h-788l30 74h788l42 104h-788l3 7h-101l-124 -306h889zM150 370h101l2 4h788l45 110h-889z" />
    <glyph glyph-name="f" unicode="f" horiz-adv-x="984" 
d="M102 1l79 195h788l42 104h-788l3 7h-101l-124 -306h101zM150 370h101l2 4h788l45 110h-889z" />
    <glyph glyph-name="g" unicode="g" 
d="M847 146l-39 -28h-632q-12 0 -13 28l65 161h-104l-76 -188q-48 -118 23 -118h743q76 0 124 118l58 143h-102zM149 370h115q9 5 19 6h759l44 110h-819q-70 0 -112 -102z" />
    <glyph glyph-name="h" unicode="h" 
d="M892 1l124 306h-102l-3 -7h-690l3 7h-101l-124 -306h101l79 195h690l-79 -195h102zM939 370h102l46 113h-102zM148 370h101l47 114h-101z" />
    <glyph glyph-name="i" unicode="i" horiz-adv-x="194" 
d="M100 1l124 306h-101l-124 -306h101zM148 370h101l47 114h-101z" />
    <glyph glyph-name="j" unicode="j" 
d="M0 1h813q77 0 125 117l76 189h-104l-62 -153l-27 -32h-772zM1086 484h-104l-47 -114h104z" />
    <glyph glyph-name="k" unicode="k" 
d="M900 248l46 59h-108l-4 -5h-612l2 5h-100l-124 -306h100l79 195h610l-4 -195h106zM1087 486h-106l-93 -116h107zM296 486h-100l-47 -116h100z" />
    <glyph glyph-name="l" unicode="l" horiz-adv-x="984" 
d="M890 1l48 119h-788l76 187h-101l-124 -306h889zM298 484h-101l-47 -114h101z" />
    <glyph glyph-name="m" unicode="m" 
d="M541 370h102l2 4h266q3 -1 4 -4h124q47 116 -29 116h-743q-70 0 -118 -116h122q2 2 5 2.5t5 1.5h262zM104 1l124 306h-104l-124 -306h104zM890 1l124 306h-102l-124 -306h102zM495 2l123 305h-102l-124 -306z" />
    <glyph glyph-name="n" unicode="n" 
d="M1010 486h-743q-70 0 -118 -116h122q2 2 5 2.5t5 1.5h630q3 -1 4 -4h124q47 116 -29 116zM104 1l124 306h-104l-124 -306h104zM890 1l124 306h-102l-124 -306h102z" />
    <glyph glyph-name="o" unicode="o" 
d="M79 1h735q76 0 124 118l76 188h-102l-65 -161q-26 -29 -39 -30h-630q-15 0 -15 30l65 161h-104l-76 -188q-48 -118 31 -118zM917 370h122l6 14q42 102 -35 102h-734q-79 0 -121 -102l-6 -14h115q9 5 19 6h621q3 -2 6.5 -3t6.5 -3z" />
    <glyph glyph-name="p" unicode="p" horiz-adv-x="984" 
d="M179 196h722q69 0 114 110v1h-114q-2 -2 -5.5 -3.5t-6.5 -3.5h-668l3 7h-100l-124 -306h100zM917 374q1 -2 3 -4h120l7 17q40 99 -29 99h-822l-47 -116h100l2 4h666z" />
    <glyph glyph-name="q" unicode="q" horiz-adv-x="984" 
d="M148 196h722l-79 -195h100l124 306h-100l-3 -7h-668q-4 3 -7 7h-113v-1q-45 -110 24 -110zM276 374h666l-2 -4h100l47 116h-822q-69 0 -109 -99l-7 -17h120q4 2 7 4z" />
    <glyph glyph-name="r" unicode="r" 
d="M891 1l2 195h8q69 0 114 110v1h-117q-5 -3 -10 -5h-666l2 5h-100l-124 -306h100l79 195h606v-195h106zM919 374q1 -2 2 -2.5t1 -1.5h118l7 17q40 99 -29 99h-822l-47 -116h100l2 4h668z" />
    <glyph glyph-name="s" unicode="s" 
d="M938 119l30 75q45 109 -34 109h-689q-7 0 -11 4h-110l-2 -4q-42 -106 27 -107h690q27 -1 11 -43q-7 -7 -18.5 -17t-25.5 -16h-758l-48 -119h812q78 0 126 118zM149 370h115q6 2 9 2h767l46 114h-819q-70 0 -111 -101z" />
    <glyph glyph-name="t" unicode="t" horiz-adv-x="984" 
d="M645 374h396l45 110h-890l-45 -110h392l-2 -4h102zM494 1l124 306h-102l-124 -306h102z" />
    <glyph glyph-name="u" unicode="u" 
d="M847 146l-44 -30h-628q-12 0 -12 30l65 161h-104l-76 -188q-48 -118 23 -118h743q76 0 124 118l76 188h-102zM149 370h104l47 116h-104zM937 370h102l47 116h-102z" />
    <glyph glyph-name="v" unicode="v" 
d="M395 307h-135l111 -305h106l384 305h-139l-252 -193zM956 486l-152 -116h136l146 116h-130zM196 486l41 -116h133l-44 116h-130z" />
    <glyph glyph-name="w" unicode="w" 
d="M176 113q-13 3 -13 33l65 161h-104l-76 -188q-48 -118 23 -118h743q76 0 124 118l76 188h-102l-65 -161l-41 -33h-266l78 194h-102l-78 -194h-262zM300 486h-104l-47 -116h104zM1086 486h-102l-47 -116h102zM690 485l-102 1l-47 -116h102z" />
    <glyph glyph-name="x" unicode="x" 
d="M193 250l-193 -249h106l158 195h521v-195h106l7 251l44 55h-104l-4 -5h-533v5h-108v-57zM196 486l-2 -116h107l1 116h-106zM1087 486h-106l-93 -116h105z" />
    <glyph glyph-name="y" unicode="y" horiz-adv-x="984" 
d="M494 1l79 195h328q69 0 114 110v1h-117q-3 -2 -5.5 -3t-4.5 -2h-628q-14 0 -19 5h-117q-44 -111 27 -111h320l-79 -195h102zM149 370h100l47 116h-100zM945 370h95l47 116h-95z" />
    <glyph glyph-name="z" unicode="z" 
d="M47 116l-47 -115h890l48 119h-598l513 187h-289zM1042 376l44 110h-890l-46 -114h590l-6 -2h291z" />
    <glyph glyph-name="FL007Bh" unicode="{" horiz-adv-x="272" 
d="M209 250l45 57h-107l-49 -62l-4 -49v-195h106zM197 370h106l93 116h-106z" />
    <glyph glyph-name="FL007Ch" unicode="|" horiz-adv-x="194" 
d="M69 -77l155 384h-101l-155 -384h101zM148 370h101l80 196h-101z" />
    <glyph glyph-name="FL007Dh" unicode="}" horiz-adv-x="272" 
d="M193 250l-193 -249h106l158 195l36 49v62h-107v-57zM196 486l-2 -116h106l2 116h-106z" />
    <glyph glyph-name="asciitilde" unicode="~" horiz-adv-x="569" 
 />
    <glyph glyph-name="FL00A1h" unicode="&#xa1;" horiz-adv-x="190" 
d="M103 2l123 305h-102l-123 -305h102zM186 456l-22 -54q-12 -30 13 -30h47q27 0 38 26l25 62q11 26 -13 26h-48q-28 0 -40 -30z" />
    <glyph glyph-name="FL00A2h" unicode="&#xa2;" 
d="M567 124l74 183h-101l-74 -183h-302l2 30l62 153h-104l-76 -189q-48 -117 29 -117h339l-28 -70h101l28 70h373l50 123h-373zM667 372h373l45 111h-373l32 80h-100l-33 -80h-339q-77 0 -118 -101l-5 -12h119l2 2h296l-1 -2h101z" />
    <glyph glyph-name="FL00A3h" unicode="&#xa3;" horiz-adv-x="500" 
d="M767 815h-375l-180 -445h62l155 383h250l-155 -383h63zM150 63l99 244h-62l-124 -307h375l124 307h-63l-99 -244h-250z" />
    <glyph glyph-name="FL00A4h" unicode="&#xa4;" horiz-adv-x="393" 
d="M488 428q0 10 -6 12h-252q-6 0 -15 -12l-31 -76q-6 -16 4 -16h249q6 2 11.5 5t8.5 11zM517 486h5q30 0 11 -48l-43 -106q-16 -40 -46 -40h-298q-28 0 -12 40l43 106q19 48 47 48h293z" />
    <glyph glyph-name="FL00A5h" unicode="&#xa5;" horiz-adv-x="984" 
d="M668 70l42 104h-146l9 22h328q69 0 114 110v1h-117q-3 -2 -5.5 -3t-4.5 -2h-628q-14 0 -19 5h-117q-44 -111 27 -111h320l-9 -22h-143l-42 -104h143l-28 -69h102l28 69h146zM149 370h100l47 116h-100zM945 370h95l47 116h-95z" />
    <glyph glyph-name="FL00A6h" unicode="&#xa6;" horiz-adv-x="194" 
d="M69 -77l155 384h-101l-155 -384h101zM148 370h101l80 196h-101z" />
    <glyph glyph-name="FL00A7h" unicode="&#xa7;" 
d="M938 119l30 75q45 109 -34 109h-176v4h-359q-2 -2 -2 -3l-1 -1h-151q-7 0 -11 4h-110l-2 -4q-42 -106 27 -107h204q-1 -44 26 -76h-331l-48 -119h812q78 0 126 118zM149 370h115q6 2 9 2h198q-2 -2 -4 -2h273q-1 0 -1 2h301l46 114h-819q-70 0 -111 -101zM839 196
q27 -1 11 -43q-7 -7 -18.5 -17t-25.5 -16h-180q54 31 88 76h125z" />
    <glyph glyph-name="FL00A8h" unicode="&#xa8;" horiz-adv-x="434" 
d="M364 544l46 115h-135l-46 -115h135zM436 544h135l46 115h-135z" />
    <glyph glyph-name="FL00A9h" unicode="&#xa9;" 
d="M71 1h743q76 0 124 118l76 188h-102l-65 -161q-26 -29 -39 -30h-630q-15 0 -15 30l65 161h-104l-76 -188q-48 -118 23 -118zM917 370h122l6 14q42 102 -35 102h-743q-70 0 -112 -102l-6 -14h115q9 5 19 6h621q3 -2 6.5 -3t6.5 -3zM678 151l20 50h-310l1 12l28 69
q3 8 13 18h308l3 7h-356l-1 -3l-43 -106q-20 -47 12 -47h325z" />
    <glyph glyph-name="FL00AAh" unicode="&#xaa;" horiz-adv-x="428" 
d="M483 292l62 153q17 41 -18 41h-284q-38 0 -53 -38l-63 -156h40l31 78h274l-31 -78h42zM216 413l7 17q11 10 14 10h255q2 0 4 -11l-6 -16h-274z" />
    <glyph glyph-name="FL00ABh" unicode="&#xab;" horiz-adv-x="487" 
d="M209 250l187 236h-106l-192 -241l-4 -244h106zM422 251l188 236h-106l-193 -241l-3 -244h106z" />
    <glyph glyph-name="FL00ACh" unicode="&#xac;" horiz-adv-x="484" 
d="M359 195l-279 1l42 104h395l-80 -198h-116z" />
    <glyph glyph-name="FL00ADh" unicode="&#xad;" horiz-adv-x="484" 
d="M471 196h-391l42 104h391z" />
    <glyph glyph-name="FL00AEh" unicode="&#xae;" 
d="M71 1h743q76 0 124 118l76 188h-102l-65 -161q-26 -29 -39 -30h-630q-15 0 -15 30l65 161h-104l-76 -188q-48 -118 23 -118zM917 370h122l6 14q42 102 -35 102h-743q-70 0 -112 -102l-6 -14h115q9 5 19 6h621q3 -2 6.5 -3t6.5 -3zM681 148l1 78h3q27 0 45 44l13 33l2 4
h-356l-64 -159h40l31 78h242l1 -78h42zM692 298q7 -5 3 -15q-3 -9 -15 -14h-266l11 29h267z" />
    <glyph glyph-name="FL00AFh" unicode="&#xaf;" horiz-adv-x="476" 
d="M587 485l42 104h-391l-42 -104h391z" />
    <glyph glyph-name="FL00B0h" unicode="&#xb0;" horiz-adv-x="417" 
d="M488 428q0 10 -6 12h-252q-6 0 -15 -12l-31 -76q-6 -16 4 -16h249q6 2 11.5 5t8.5 11zM517 486h5q30 0 11 -48l-43 -106q-16 -40 -46 -40h-298q-28 0 -12 40l43 106q19 48 47 48h293z" />
    <glyph glyph-name="FL00B1h" unicode="&#xb1;" horiz-adv-x="984" 
d="M479 216h-391l42 104h391l63 156h102l-63 -156h396l-42 -104h-396l-45 -111h-102zM14 4l30 74h874l-30 -74h-874z" />
    <glyph glyph-name="FL00B2h" unicode="&#xb2;" horiz-adv-x="421" 
d="M533 439l-12 -30q-16 -43 -48 -43h-287l-11 -28h318l-19 -46h-356l47 116h304q12 2 18 18q-2 2 -2 6q0 5 -5 7h-303l19 47h325q32 0 12 -47z" />
    <glyph glyph-name="FL00B3h" unicode="&#xb3;" horiz-adv-x="413" 
d="M178 440l18 46h327q29 0 16 -34l-10 -24l-1 -2q-6 -14 -23 -31q8 -8 -2 -30l-12 -32q-17 -41 -47 -41h-326l18 44h304q4 2 15 13q4 9 2.5 12t-3.5 5h-266l17 42h260q5 0 17 12q3 9 -1 20h-303z" />
    <glyph glyph-name="FL00B4h" unicode="&#xb4;" horiz-adv-x="194" 
d="M143 354l12 30l65 102h26l-41 -102h26q24 0 13 -26l-25 -62q-11 -26 -38 -26h-47q-25 0 -13 30z" />
    <glyph glyph-name="FL00B5h" unicode="&#xb5;" 
d="M847 146l-44 -30h-628q-12 0 -12 30l65 161h-102l-188 -465h100l64 159h712q76 0 124 118l76 188h-102zM300 486h-102l-47 -116h102zM1086 486h-102l-47 -116h102z" />
    <glyph glyph-name="FL00B6h" unicode="&#xb6;" 
d="M148 370h117q4 1 8 4h600l-2 -4h100l2 4h68l45 112h-822q-69 0 -109 -99zM77 2h108l121 300h-60q-5 1 -7 5h-116v-1q-45 -110 24 -110h8zM822 1l124 306h-100l-124 -306h100z" />
    <glyph glyph-name="FL00B7h" unicode="&#xb7;" horiz-adv-x="178" 
d="M199 246l22 54q12 30 -13 30h-47q-26 0 -37 -26l-25 -62q-11 -26 12 -26h48q28 0 40 30z" />
    <glyph glyph-name="FL00B8h" unicode="&#xb8;" horiz-adv-x="289" 
d="M129 2h7l-3 -7h1q8 0 11.5 -6.5t-0.5 -14.5l1 -2q2 -7 8 -7l3 1q-2 -2 -5 -10l-4 -11l-12 -34q-5 -11 -11.5 -20.5t-19.5 -16.5l-3 -8h-7l-4 -9q-2 -6 -6 -6l-3 1q-15 -9 -28.5 -11.5t-27.5 -2.5h-34l11 28h-7l5 15q3 8 8 8l3 -1l3 7h9q6 0 7 4v3l24 7l3 7h7l3 7h8l11 26
q5 10 5 18q0 7 -11 7l-7 -1q-10 10 -4 28l5 8l39 1z" />
    <glyph glyph-name="FL00B9h" unicode="&#xb9;" horiz-adv-x="418" 
d="M118 293h356l20 48h-158l58 145h-198l-17 -44h157l-41 -101h-157z" />
    <glyph glyph-name="FL00BAh" unicode="&#xba;" horiz-adv-x="417" 
d="M488 428q0 10 -6 12h-252q-6 0 -15 -12l-31 -76q-6 -16 4 -16h249q6 2 11.5 5t8.5 11zM517 486h5q30 0 11 -48l-43 -106q-16 -40 -46 -40h-298q-28 0 -12 40l43 106q19 48 47 48h293z" />
    <glyph glyph-name="FL00BBh" unicode="&#xbb;" horiz-adv-x="487" 
d="M405 250l3 236h106l-2 -241l-194 -244h-106zM192 251l4 236h106l-3 -241l-193 -244h-106z" />
    <glyph glyph-name="FL00BCh" unicode="&#xbc;" horiz-adv-x="922" 
d="M182 0l578 484h137l-573 -484h-142zM157 292l19 48h157l41 101h-157l18 44h198l-59 -145h158l-19 -48h-356zM864 14h-39l31 78h-318l47 116h40l-29 -73h278l29 72h39z" />
    <glyph glyph-name="FL00BDh" unicode="&#xbd;" horiz-adv-x="922" 
d="M182 0l578 484h137l-573 -484h-142zM157 292l19 48h157l41 101h-157l18 44h198l-59 -145h158l-19 -48h-356zM909 153l-12 -30q-18 -43 -49 -43h-287l-11 -28h318l-19 -46h-356l47 116h304q11 1 19 18q-2 2 -2 6q0 5 -5 7h-303l19 47h325q30 0 12 -47z" />
    <glyph glyph-name="FL00BEh" unicode="&#xbe;" horiz-adv-x="922" 
d="M182 0l578 484h137l-573 -484h-142zM864 14h-39l31 78h-318l47 116h40l-29 -73h278l29 72h39zM149 315h303q12 9 17 20q0 12 -7 12h-260l17 42h266q3 2 7 5t8 12q-1 9 -5 13h-304l18 44h326q30 0 13 -41l-12 -32q-9 -21 -24 -30q5 -18 -1 -31l-1 -2l-10 -24
q-13 -34 -42 -34h-327z" />
    <glyph glyph-name="FL00BFh" unicode="&#xbf;" 
d="M878 292h-690q-71 -2 -113 -107l-33 -82q-41 -101 30 -101h819l46 114h-767q-9 0 -12 10.5t4 27.5q7 16 17 23.5t19 7.5h689q77 0 122 109l5 13h-107q-14 -15 -29 -15zM974 456l-22 -54q-12 -30 13 -30h47q27 0 38 26l25 62q11 26 -13 26h-48q-28 0 -40 -30z" />
    <glyph glyph-name="FL00C0h" unicode="&#xc0;" 
d="M891 1l124 306h-106l-2 -5h-685l2 5h-100l-124 -306h100l79 195h684l-79 -195h107zM1046 383q41 101 -44 101h-710q-95 0 -134 -94l-9 -20h122h2h767zM645 649l-22 -55l-3 -67h56l27 66h26q22 0 33 26l13 33q11 26 -16 27h-77q-25 0 -37 -30z" />
    <glyph glyph-name="Aacute" unicode="&#xc1;" 
d="M891 1l124 306h-106l-2 -5h-685l2 5h-100l-124 -306h100l79 195h684l-79 -195h107zM149 370h762h1h128l6 13q41 101 -44 101h-710q-95 0 -134 -94zM752 594l22 55q12 30 -13 30h-77q-28 -2 -38 -27l-13 -33q-11 -26 13 -26h26l-27 -66h56z" />
    <glyph glyph-name="FL00C2h" unicode="&#xc2;" 
d="M891 1l124 306h-106l-2 -5h-685l2 5h-100l-124 -306h100l79 195h684l-79 -195h107zM1046 383q41 101 -44 101h-710q-95 0 -134 -94l-9 -20h122h2h767zM573 532l131 96l49 -96l141 -1l-91 145l-156 -1l-198 -144z" />
    <glyph glyph-name="FL00C3h" unicode="&#xc3;" 
d="M891 1l124 306h-106l-2 -5h-685l2 5h-100l-124 -306h100l79 195h684l-79 -195h107zM1046 383q41 101 -44 101h-710q-95 0 -134 -94l-9 -20h122h2h767zM834 544l46 115h-344l-46 -115h344z" />
    <glyph glyph-name="FL00C4h" unicode="&#xc4;" 
d="M891 1l124 306h-106l-2 -5h-685l2 5h-100l-124 -306h100l79 195h684l-79 -195h107zM149 370h122h2h638h1h128l6 13q41 101 -44 101h-710q-95 0 -134 -94zM632 544l46 115h-135l-46 -115h135zM841 544l46 115h-135l-46 -115h135z" />
    <glyph glyph-name="FL00C5h" unicode="&#xc5;" 
d="M891 1l124 306h-106l-2 -5h-685l2 5h-100l-124 -306h100l79 195h684l-79 -195h107zM1046 383q41 101 -44 101h-710q-95 0 -134 -94l-9 -20h122h2h767zM740 543l47 115h-135l-47 -115h135z" />
    <glyph glyph-name="FL00C6h" unicode="&#xc6;" horiz-adv-x="1890" 
d="M222 302l2 5h-100l-124 -306h100l79 195h684l-79 -195h998l49 121h-788l30 74h788l42 104h-788l3 7h-209l-2 -5h-685zM273 370h638h1h231l2 4h788l45 110h-889l-39 -95q38 97 -48 95h-710q-95 0 -134 -94l-9 -20h122h2z" />
    <glyph glyph-name="FL00C7h" unicode="&#xc7;" 
d="M890 1l50 123h-776l2 30l62 153h-104l-76 -189q-48 -117 29 -117h377q-3 -14 14 -22q11 0 10.5 -7.5t-5.5 -17.5l-11 -26l-21 -14l-24 -7l-16 -7l-14 -14l-5 -15l-4 -28h34q14 0 27.5 2.5t28.5 11.5q26 22 36.5 31.5t13.5 17.5l4 10l12 34l4 11q2 33 -4 36t-14 3h-1v1
h371zM149 370h119l2 2h770l45 111h-813q-77 0 -118 -101z" />
    <glyph glyph-name="FL00C8h" unicode="&#xc8;" horiz-adv-x="984" 
d="M890 1l49 121h-788l30 74h788l42 104h-788l3 7h-101l-124 -306h889zM253 374h788l45 110h-889l-47 -114h101zM645 649l-22 -55l-3 -67h56l27 66h26q22 0 33 26l13 33q11 26 -16 27h-77q-25 0 -37 -30z" />
    <glyph glyph-name="FL00C9h" unicode="&#xc9;" horiz-adv-x="984" 
d="M890 1l49 121h-788l30 74h788l42 104h-788l3 7h-101l-124 -306h889zM253 374h788l45 110h-889l-47 -114h101zM752 594l22 55q12 30 -13 30h-77q-28 -2 -38 -27l-13 -33q-11 -26 13 -26h26l-27 -66h56z" />
    <glyph glyph-name="FL00CAh" unicode="&#xca;" horiz-adv-x="984" 
d="M890 1l49 121h-788l30 74h788l42 104h-788l3 7h-101l-124 -306h889zM253 374h788l45 110h-889l-47 -114h101zM573 532l131 96l49 -96l141 -1l-91 145l-156 -1l-198 -144z" />
    <glyph glyph-name="FL00CBh" unicode="&#xcb;" horiz-adv-x="984" 
d="M890 1l49 121h-788l30 74h788l42 104h-788l3 7h-101l-124 -306h889zM253 374h788l45 110h-889l-47 -114h101zM841 544l46 115h-135l-46 -115h135zM632 544l46 115h-135l-46 -115h135z" />
    <glyph glyph-name="FL00CCh" unicode="&#xcc;" horiz-adv-x="984" 
d="M1 2h890l48 120h-396l75 185h-102l-75 -185h-392zM645 374h396l45 110h-890l-45 -110h392l-2 -4h102zM645 649l-22 -55l-3 -67h56l27 66h26q22 0 33 26l13 33q11 26 -16 27h-77q-25 0 -37 -30z" />
    <glyph glyph-name="FL00CDh" unicode="&#xcd;" horiz-adv-x="984" 
d="M1 2h890l48 120h-396l75 185h-102l-75 -185h-392zM645 374h396l45 110h-890l-45 -110h392l-2 -4h102zM752 594l22 55q12 30 -13 30h-77q-28 -2 -38 -27l-13 -33q-11 -26 13 -26h26l-27 -66h56z" />
    <glyph glyph-name="FL00CEh" unicode="&#xce;" horiz-adv-x="984" 
d="M1 2h890l48 120h-396l75 185h-102l-75 -185h-392zM645 374h396l45 110h-890l-45 -110h392l-2 -4h102zM573 532l131 96l49 -96l141 -1l-91 145l-156 -1l-198 -144z" />
    <glyph glyph-name="FL00CFh" unicode="&#xcf;" horiz-adv-x="984" 
d="M1 2h890l48 120h-396l75 185h-102l-75 -185h-392zM645 374h396l45 110h-890l-45 -110h392l-2 -4h102zM632 544l46 115h-135l-46 -115h135zM841 544l46 115h-135l-46 -115h135z" />
    <glyph glyph-name="FL00D0h" unicode="&#xd0;" horiz-adv-x="1100" 
d="M208 190l-77 -189h813q77 0 125 117l76 189h-104l-62 -153l-25 -32h-672l28 68h157l42 104h-157l5 13h-102l-5 -13h-132l-42 -104h132zM280 370h102l2 4h668q-1 -2 -0.5 -2.5t0.5 -1.5h118l5 12q41 101 -36 101h-813z" />
    <glyph glyph-name="FL00D1h" unicode="&#xd1;" 
d="M915 370h124q47 116 -29 116h-743q-70 0 -118 -116h122q2 2 5 2.5t5 1.5h630q3 -1 4 -4zM834 544l46 115h-344l-46 -115h344zM104 1l124 306h-104l-124 -306h104zM890 1l124 306h-102l-124 -306h102z" />
    <glyph glyph-name="FL00D2h" unicode="&#xd2;" 
d="M79 1h735q76 0 124 118l76 188h-102l-65 -161q-26 -29 -39 -30h-630q-15 0 -15 30l65 161h-104l-76 -188q-48 -118 31 -118zM283 376h621q3 -2 6.5 -3t6.5 -3h122l6 14q42 102 -35 102h-734q-79 0 -121 -102l-6 -14h115q9 5 19 6zM645 649l-22 -55l-3 -67h56l27 66h26
q22 0 33 26l13 33q11 26 -16 27h-77q-25 0 -37 -30z" />
    <glyph glyph-name="FL00D3h" unicode="&#xd3;" 
d="M79 1h735q76 0 124 118l76 188h-102l-65 -161q-26 -29 -39 -30h-630q-15 0 -15 30l65 161h-104l-76 -188q-48 -118 31 -118zM283 376h621q3 -2 6.5 -3t6.5 -3h122l6 14q42 102 -35 102h-734q-79 0 -121 -102l-6 -14h115q9 5 19 6zM752 594l22 55q12 30 -13 30h-77
q-28 -2 -38 -27l-13 -33q-11 -26 13 -26h26l-27 -66h56z" />
    <glyph glyph-name="FL00D4h" unicode="&#xd4;" 
d="M79 1h735q76 0 124 118l76 188h-102l-65 -161q-26 -29 -39 -30h-630q-15 0 -15 30l65 161h-104l-76 -188q-48 -118 31 -118zM283 376h621q3 -2 6.5 -3t6.5 -3h122l6 14q42 102 -35 102h-734q-79 0 -121 -102l-6 -14h115q9 5 19 6zM573 532l131 96l49 -96l141 -1l-91 145
l-156 -1l-198 -144z" />
    <glyph glyph-name="FL00D5h" unicode="&#xd5;" 
d="M79 1h735q76 0 124 118l76 188h-102l-65 -161q-26 -29 -39 -30h-630q-15 0 -15 30l65 161h-104l-76 -188q-48 -118 31 -118zM283 376h621q3 -2 6.5 -3t6.5 -3h122l6 14q42 102 -35 102h-734q-79 0 -121 -102l-6 -14h115q9 5 19 6zM834 544l46 115h-344l-46 -115h344z" />
    <glyph glyph-name="FL00D6h" unicode="&#xd6;" 
d="M79 1h735q76 0 124 118l76 188h-102l-65 -161q-26 -29 -39 -30h-630q-15 0 -15 30l65 161h-104l-76 -188q-48 -118 31 -118zM283 376h621q3 -2 6.5 -3t6.5 -3h122l6 14q42 102 -35 102h-734q-79 0 -121 -102l-6 -14h115q9 5 19 6zM841 544l46 115h-135l-46 -115h135z
M632 544l46 115h-135l-46 -115h135z" />
    <glyph glyph-name="FL00D7h" unicode="&#xd7;" horiz-adv-x="473" 
d="M193 250l-193 -249h106l158 195h13v-195h106l7 251l44 55h-104l-4 -5h-25v5h-108v-57zM196 486l-2 -116h107l1 116h-106zM579 486h-106l-93 -116h105z" />
    <glyph glyph-name="FL00D8h" unicode="&#xd8;" 
d="M79 1h735q76 0 124 118l76 188h-104l-63 -157q-26 -33 -43 -36h-508l548 193h-239l-441 -153l62 153h-102l-76 -188q-48 -118 31 -118zM811 378l-24 -8h252l6 14q42 102 -35 102h-734q-79 0 -121 -102l-6 -14h116q10 7 22 8h524z" />
    <glyph glyph-name="FL00D9h" unicode="&#xd9;" 
d="M847 146l-44 -30h-628q-12 0 -12 30l65 161h-104l-76 -188q-48 -118 23 -118h743q76 0 124 118l76 188h-102zM645 649l-22 -55l-3 -67h56l27 66h26q22 0 33 26l13 33q11 26 -16 27h-77q-25 0 -37 -30zM300 486h-104l-47 -116h104zM1086 486h-102l-47 -116h102z" />
    <glyph glyph-name="FL00DAh" unicode="&#xda;" 
d="M847 146l-44 -30h-628q-12 0 -12 30l65 161h-104l-76 -188q-48 -118 23 -118h743q76 0 124 118l76 188h-102zM752 594l22 55q12 30 -13 30h-77q-28 -2 -38 -27l-13 -33q-11 -26 13 -26h26l-27 -66h56zM300 486h-104l-47 -116h104zM1086 486h-102l-47 -116h102z" />
    <glyph glyph-name="FL00DBh" unicode="&#xdb;" 
d="M847 146l-44 -30h-628q-12 0 -12 30l65 161h-104l-76 -188q-48 -118 23 -118h743q76 0 124 118l76 188h-102zM573 532l131 96l49 -96l141 -1l-91 145l-156 -1l-198 -144zM300 486h-104l-47 -116h104zM1086 486h-102l-47 -116h102z" />
    <glyph glyph-name="FL00DCh" unicode="&#xdc;" 
d="M847 146l-44 -30h-628q-12 0 -12 30l65 161h-104l-76 -188q-48 -118 23 -118h743q76 0 124 118l76 188h-102zM632 544l46 115h-135l-46 -115h135zM841 544l46 115h-135l-46 -115h135zM300 486h-104l-47 -116h104zM1086 486h-102l-47 -116h102z" />
    <glyph glyph-name="FL00DDh" unicode="&#xdd;" horiz-adv-x="984" 
d="M494 1l79 195h328q69 0 114 110v1h-117q-3 -2 -5.5 -3t-4.5 -2h-628q-14 0 -19 5h-117q-44 -111 27 -111h320l-79 -195h102zM645 649l-22 -55l-3 -67h56l27 66h26q22 0 33 26l13 33q11 26 -16 27h-77q-25 0 -37 -30zM296 486h-100l-47 -116h100zM1087 486h-95l-47 -116
h95z" />
    <glyph glyph-name="FL00DEh" unicode="&#xde;" horiz-adv-x="724" 
d="M141 101h488q46 0 74 70l55 136h-635l-124 -306h101zM218 296h439q5 -8 3 -17l-28 -69l-11 -12l-443 -1zM746 390h-488l38 94h-101l-47 -114h627q-3 20 -29 20z" />
    <glyph glyph-name="FL00DFh" unicode="&#xdf;" 
d="M341 300l-42 -104h530q13 0 18 -30q-17 -29 -42 -50h-538l-45 -112l597 -2h2q70 0 104 85l26 63q14 38 3 77q37 22 59 76l2 4h-117q-9 -6 -13 -7h-544zM1046 383q41 101 -36 101h-813l-47 -114h99l2 4h660q2 -2 3 -4h126zM102 4l122 303h-99l-124 -306z" />
    <glyph glyph-name="FL00E0h" unicode="&#xe0;" 
d="M891 1l124 306h-106l-2 -5h-685l2 5h-100l-124 -306h100l79 195h684l-79 -195h107zM1046 383q41 101 -44 101h-710q-95 0 -134 -94l-9 -20h122h2h767zM645 649l-22 -55l-3 -67h56l27 66h26q22 0 33 26l13 33q11 26 -16 27h-77q-25 0 -37 -30z" />
    <glyph glyph-name="FL00E1h" unicode="&#xe1;" 
d="M891 1l124 306h-106l-2 -5h-685l2 5h-100l-124 -306h100l79 195h684l-79 -195h107zM1046 383q41 101 -44 101h-710q-95 0 -134 -94l-9 -20h122h2h638h1h128zM752 594l22 55q12 30 -13 30h-77q-28 -2 -38 -27l-13 -33q-11 -26 13 -26h26l-27 -66h56z" />
    <glyph glyph-name="FL00E2h" unicode="&#xe2;" 
d="M891 1l124 306h-106l-2 -5h-685l2 5h-100l-124 -306h100l79 195h684l-79 -195h107zM1046 383q41 101 -44 101h-710q-95 0 -134 -94l-9 -20h122h2h767zM573 532l131 96l49 -96l141 -1l-91 145l-156 -1l-198 -144z" />
    <glyph glyph-name="FL00E3h" unicode="&#xe3;" 
d="M891 1l124 306h-106l-2 -5h-685l2 5h-100l-124 -306h100l79 195h684l-79 -195h107zM1046 383q41 101 -44 101h-710q-95 0 -134 -94l-9 -20h122h2h767zM834 544l46 115h-344l-46 -115h344z" />
    <glyph glyph-name="FL00E4h" unicode="&#xe4;" 
d="M891 1l124 306h-106l-2 -5h-685l2 5h-100l-124 -306h100l79 195h684l-79 -195h107zM149 370h122h2h638h1h128l6 13q41 101 -44 101h-710q-95 0 -134 -94zM632 544l46 115h-135l-46 -115h135zM841 544l46 115h-135l-46 -115h135z" />
    <glyph glyph-name="FL00E5h" unicode="&#xe5;" 
d="M891 1l124 306h-106l-2 -5h-685l2 5h-100l-124 -306h100l79 195h684l-79 -195h107zM1046 383q41 101 -44 101h-710q-95 0 -134 -94l-9 -20h122h2h767zM745 549l46 115h-135l-46 -115h135z" />
    <glyph glyph-name="FL00E6h" unicode="&#xe6;" horiz-adv-x="1890" 
d="M222 302l2 5h-100l-124 -306h100l79 195h684l-79 -195h898l49 121h-788l30 74h788l42 104h-788l3 7h-109l-2 -5h-685zM1045 374h788l45 110h-858l-18 -44q-20 -12 -46 44h-664q-95 0 -134 -94l-9 -20h894z" />
    <glyph glyph-name="FL00E7h" unicode="&#xe7;" 
d="M890 1l50 123h-776l2 30l62 153h-104l-76 -189q-48 -117 29 -117h377q-3 -14 6 -23l8 1q11 0 10.5 -7.5t-5.5 -17.5l-11 -26h-8l-3 -7h-7l-3 -7l-24 -7v-3q-1 -4 -7 -4h-9l-3 -7l-3 1q-5 0 -8 -8l-5 -15h7l-11 -28h34q14 0 27.5 2.5t28.5 11.5l3 -1q4 0 6 6l4 9h7l3 8
q13 7 19.5 16.5t11.5 20.5l12 34l4 11q2 5 5 10l-3 -1q-6 0 -8 7l-1 1l1 1q3 8 -0.5 14.5t-11.5 6.5h-1v1h371zM149 370h119l2 2h770l45 111h-813q-77 0 -118 -101zM515 7h7l-3 -6h-65l2 5l5 8l2 8z" />
    <glyph glyph-name="FL00E8h" unicode="&#xe8;" horiz-adv-x="984" 
d="M890 1l49 121h-788l30 74h788l42 104h-788l3 7h-101l-124 -306h889zM253 374h788l45 110h-889l-47 -114h101zM645 649l-22 -55l-3 -67h56l27 66h26q22 0 33 26l13 33q11 26 -16 27h-77q-25 0 -37 -30z" />
    <glyph glyph-name="FL00E9h" unicode="&#xe9;" horiz-adv-x="984" 
d="M890 1l49 121h-788l30 74h788l42 104h-788l3 7h-101l-124 -306h889zM253 374h788l45 110h-889l-47 -114h101zM752 594l22 55q12 30 -13 30h-77q-28 -2 -38 -27l-13 -33q-11 -26 13 -26h26l-27 -66h56z" />
    <glyph glyph-name="FL00EAh" unicode="&#xea;" horiz-adv-x="984" 
d="M890 1l49 121h-788l30 74h788l42 104h-788l3 7h-101l-124 -306h889zM253 374h788l45 110h-889l-47 -114h101zM573 532l131 96l49 -96l141 -1l-91 145l-156 -1l-198 -144z" />
    <glyph glyph-name="FL00EBh" unicode="&#xeb;" horiz-adv-x="984" 
d="M890 1l49 121h-788l30 74h788l42 104h-788l3 7h-101l-124 -306h889zM150 370h101l2 4h788l45 110h-889zM641 553l47 115h-135l-47 -115h135zM850 553l47 115h-135l-47 -115h135z" />
    <glyph glyph-name="FL00ECh" unicode="&#xec;" horiz-adv-x="984" 
d="M1 2h890l48 120h-396l75 185h-102l-75 -185h-392zM645 374h396l45 110h-890l-45 -110h392l-2 -4h102zM645 649l-22 -55l-3 -67h56l27 66h26q22 0 33 26l13 33q11 26 -16 27h-77q-25 0 -37 -30z" />
    <glyph glyph-name="FL00EDh" unicode="&#xed;" horiz-adv-x="984" 
d="M1 2h890l48 120h-396l75 185h-102l-75 -185h-392zM645 374h396l45 110h-890l-45 -110h392l-2 -4h102zM752 594l22 55q12 30 -13 30h-77q-28 -2 -38 -27l-13 -33q-11 -26 13 -26h26l-27 -66h56z" />
    <glyph glyph-name="FL00EEh" unicode="&#xee;" horiz-adv-x="984" 
d="M1 2h890l48 120h-396l75 185h-102l-75 -185h-392zM645 374h396l45 110h-890l-45 -110h392l-2 -4h102zM573 532l131 96l49 -96l141 -1l-91 145l-156 -1l-198 -144z" />
    <glyph glyph-name="FL00EFh" unicode="&#xef;" horiz-adv-x="984" 
d="M1 2h890l48 120h-396l75 185h-102l-75 -185h-392zM645 374h396l45 110h-890l-45 -110h392l-2 -4h102zM641 553l47 115h-135l-47 -115h135zM850 553l47 115h-135l-47 -115h135z" />
    <glyph glyph-name="FL00F0h" unicode="&#xf0;" 
d="M907 300h-704q-82 0 -118 -90l-37 -91q-48 -118 28 -118h743q71 0 119 118l76 188h-104zM1045 384q42 102 -30 102h-819l-44 -110h759q10 -2 13 -6h115zM866 198l-21 -52q-24 -30 -39 -30h-630l-15 30l10 26l35 26h660z" />
    <glyph glyph-name="FL00F1h" unicode="&#xf1;" 
d="M1010 486h-743q-70 0 -118 -116h122q2 2 5 2.5t5 1.5h630q3 -1 4 -4h124q47 116 -29 116zM834 544l46 115h-344l-46 -115h344zM104 1l124 306h-104l-124 -306h104zM890 1l124 306h-102l-124 -306h102z" />
    <glyph glyph-name="FL00F2h" unicode="&#xf2;" 
d="M79 1h735q76 0 124 118l76 188h-102l-65 -161q-26 -29 -39 -30h-630q-15 0 -15 30l65 161h-104l-76 -188q-48 -118 31 -118zM283 376h621q3 -2 6.5 -3t6.5 -3h122l6 14q42 102 -35 102h-734q-79 0 -121 -102l-6 -14h115q9 5 19 6zM645 649l-22 -55l-3 -67h56l27 66h26
q22 0 33 26l13 33q11 26 -16 27h-77q-25 0 -37 -30z" />
    <glyph glyph-name="FL00F3h" unicode="&#xf3;" 
d="M79 1h735q76 0 124 118l76 188h-102l-65 -161q-26 -29 -39 -30h-630q-15 0 -15 30l65 161h-104l-76 -188q-48 -118 31 -118zM283 376h621q3 -2 6.5 -3t6.5 -3h122l6 14q42 102 -35 102h-734q-79 0 -121 -102l-6 -14h115q9 5 19 6zM752 594l22 55q12 30 -13 30h-77
q-28 -2 -38 -27l-13 -33q-11 -26 13 -26h26l-27 -66h56z" />
    <glyph glyph-name="FL00F4h" unicode="&#xf4;" 
d="M79 1h735q76 0 124 118l76 188h-102l-65 -161q-26 -29 -39 -30h-630q-15 0 -15 30l65 161h-104l-76 -188q-48 -118 31 -118zM283 376h621q3 -2 6.5 -3t6.5 -3h122l6 14q42 102 -35 102h-734q-79 0 -121 -102l-6 -14h115q9 5 19 6zM573 532l131 96l49 -96l141 -1l-91 145
l-156 -1l-198 -144z" />
    <glyph glyph-name="FL00F5h" unicode="&#xf5;" 
d="M79 1h735q76 0 124 118l76 188h-102l-65 -161q-26 -29 -39 -30h-630q-15 0 -15 30l65 161h-104l-76 -188q-48 -118 31 -118zM283 376h621q3 -2 6.5 -3t6.5 -3h122l6 14q42 102 -35 102h-734q-79 0 -121 -102l-6 -14h115q9 5 19 6zM834 544l46 115h-344l-46 -115h344z" />
    <glyph glyph-name="FL00F6h" unicode="&#xf6;" 
d="M79 1h735q76 0 124 118l76 188h-102l-65 -161q-26 -29 -39 -30h-630q-15 0 -15 30l65 161h-104l-76 -188q-48 -118 31 -118zM283 376h621q3 -2 6.5 -3t6.5 -3h122l6 14q42 102 -35 102h-734q-79 0 -121 -102l-6 -14h115q9 5 19 6zM850 553l47 115h-135l-47 -115h135z
M641 553l47 115h-135l-47 -115h135z" />
    <glyph glyph-name="FL00F7h" unicode="&#xf7;" horiz-adv-x="484" 
d="M471 196l42 104h-391l-42 -104h391zM410 352l47 116h-140l-47 -116h140zM283 36l46 116h-140l-46 -116h140z" />
    <glyph glyph-name="FL00F8h" unicode="&#xf8;" 
d="M79 1h735q76 0 124 118l76 188h-104l-63 -157q-26 -33 -43 -36h-508l548 193h-239l-441 -153l62 153h-102l-76 -188q-48 -118 31 -118zM811 378l-24 -8h252l6 14q42 102 -35 102h-734q-79 0 -121 -102l-6 -14h116q10 7 22 8h524z" />
    <glyph glyph-name="FL00F9h" unicode="&#xf9;" 
d="M847 146l-44 -30h-628q-12 0 -12 30l65 161h-104l-76 -188q-48 -118 23 -118h743q76 0 124 118l76 188h-102zM645 649l-22 -55l-3 -67h56l27 66h26q22 0 33 26l13 33q11 26 -16 27h-77q-25 0 -37 -30zM300 486h-104l-47 -116h104zM1086 486h-102l-47 -116h102z" />
    <glyph glyph-name="FL00FAh" unicode="&#xfa;" 
d="M847 146l-44 -30h-628q-12 0 -12 30l65 161h-104l-76 -188q-48 -118 23 -118h743q76 0 124 118l76 188h-102zM752 594l22 55q12 30 -13 30h-77q-28 -2 -38 -27l-13 -33q-11 -26 13 -26h26l-27 -66h56zM300 486h-104l-47 -116h104zM1086 486h-102l-47 -116h102z" />
    <glyph glyph-name="FL00FBh" unicode="&#xfb;" 
d="M847 146l-44 -30h-628q-12 0 -12 30l65 161h-104l-76 -188q-48 -118 23 -118h743q76 0 124 118l76 188h-102zM573 532l131 96l49 -96l141 -1l-91 145l-156 -1l-198 -144zM300 486h-104l-47 -116h104zM1086 486h-102l-47 -116h102z" />
    <glyph glyph-name="FL00FCh" unicode="&#xfc;" 
d="M847 146l-44 -30h-628q-12 0 -12 30l65 161h-104l-76 -188q-48 -118 23 -118h743q76 0 124 118l76 188h-102zM641 553l47 115h-135l-47 -115h135zM850 553l47 115h-135l-47 -115h135zM300 486h-104l-47 -116h104zM1086 486h-102l-47 -116h102z" />
    <glyph glyph-name="FL00FDh" unicode="&#xfd;" horiz-adv-x="984" 
d="M494 1l79 195h328q69 0 114 110v1h-117q-3 -2 -5.5 -3t-4.5 -2h-628q-14 0 -19 5h-117q-44 -111 27 -111h320l-79 -195h102zM752 594l22 55q12 30 -13 30h-77q-28 -2 -38 -27l-13 -33q-11 -26 13 -26h26l-27 -66h56zM296 486h-100l-47 -116h100zM1087 486h-95l-47 -116
h95z" />
    <glyph glyph-name="FL00FEh" unicode="&#xfe;" horiz-adv-x="724" 
d="M141 101h488q46 0 74 70l55 136h-635l-124 -306h101zM218 296h439q5 -8 3 -17l-28 -69l-11 -12l-443 -1zM746 390h-488l38 94h-101l-47 -114h627q-3 20 -29 20z" />
    <glyph glyph-name="FL00FFh" unicode="&#xff;" horiz-adv-x="984" 
d="M494 1l79 195h328q69 0 114 110v1h-117q-3 -2 -5.5 -3t-4.5 -2h-628q-14 0 -19 5h-117q-44 -111 27 -111h320l-79 -195h102zM850 553l47 115h-135l-47 -115h135zM641 553l47 115h-135l-47 -115h135zM296 486h-100l-47 -116h100zM1087 486h-95l-47 -116h95z" />
    <glyph glyph-name="FL0152h" unicode="&#x152;" horiz-adv-x="1919" 
d="M1804 1l49 121h-788l30 74h788l42 104h-788l3 7h-101l-124 -306h889zM890 1l50 123h-776l2 30l62 153h-104l-76 -189q-48 -117 29 -117h813zM1064 370h101l2 4h788l45 110h-889zM149 370h119l2 2h770l45 111h-813q-77 0 -118 -101z" />
    <glyph glyph-name="FL0153h" unicode="&#x153;" horiz-adv-x="1919" 
d="M1804 1l49 121h-788l30 74h788l42 104h-788l3 7h-101l-124 -306h889zM890 1l50 123h-776l2 30l62 153h-104l-76 -189q-48 -117 29 -117h813zM1064 370h101l2 4h788l45 110h-889zM149 370h119l2 2h770l45 111h-813q-77 0 -118 -101z" />
    <glyph glyph-name="FL0160h" unicode="&#x160;" 
d="M938 119l30 75q45 109 -34 109h-689q-7 0 -11 4h-110l-2 -4q-42 -106 27 -107h690q27 -1 11 -43q-7 -7 -18.5 -17t-25.5 -16h-758l-48 -119h812q78 0 126 118zM273 372h767l46 114h-819q-70 0 -111 -101l-7 -15h115q6 2 9 2zM631 675l-124 1l82 -144l156 -1l207 145
l-141 -1l-127 -96z" />
    <glyph glyph-name="FL0161h" unicode="&#x161;" 
d="M938 119l30 75q45 109 -34 109h-689q-7 0 -11 4h-110l-2 -4q-42 -106 27 -107h690q27 -1 11 -43q-7 -7 -18.5 -17t-25.5 -16h-758l-48 -119h812q78 0 126 118zM273 372h767l46 114h-819q-70 0 -111 -101l-7 -15h115q6 2 9 2zM631 675l-124 1l82 -144l156 -1l207 145
l-141 -1l-127 -96z" />
    <glyph glyph-name="FL0178h" unicode="&#x178;" horiz-adv-x="984" 
d="M494 1l79 195h328q69 0 114 110v1h-117q-3 -2 -5.5 -3t-4.5 -2h-628q-14 0 -19 5h-117q-44 -111 27 -111h320l-79 -195h102zM850 553l47 115h-135l-47 -115h135zM641 553l47 115h-135l-47 -115h135zM296 486h-100l-47 -116h100zM1087 486h-95l-47 -116h95z" />
    <glyph glyph-name="FL017Dh" unicode="&#x17d;" 
d="M47 116l-47 -115h890l48 119h-598l513 187h-289zM1042 376l44 110h-890l-46 -114h590l-6 -2h291zM631 675l-124 1l82 -144l156 -1l207 145l-141 -1l-127 -96z" />
    <glyph glyph-name="FL017Eh" unicode="&#x17e;" 
d="M47 116l-47 -115h890l48 119h-598l513 187h-289zM1042 376l44 110h-890l-46 -114h590l-6 -2h291zM631 675l-124 1l82 -144l156 -1l207 145l-141 -1l-127 -96z" />
    <glyph glyph-name="FL0192h" unicode="&#x192;" horiz-adv-x="984" 
d="M27 -185l154 381h788l42 104h-788l3 7h-101l-199 -492h101zM150 370h101l2 4h788l45 110h-889z" />
    <glyph glyph-name="FL02C6h" unicode="&#x2c6;" horiz-adv-x="511" 
d="M349 532l-124 -1l198 144l156 1l91 -145l-141 1l-49 96z" />
    <glyph glyph-name="FL02DCh" unicode="&#x2dc;" horiz-adv-x="455" 
d="M572 546l46 115h-344l-46 -115h344z" />
    <glyph glyph-name="FL2013h" unicode="&#x2013;" horiz-adv-x="484" 
d="M471 196h-391l42 104h391z" />
    <glyph glyph-name="FL2014h" unicode="&#x2014;" horiz-adv-x="484" 
d="M471 196h-391l42 104h391z" />
    <glyph glyph-name="FL2018h" unicode="&#x2018;" horiz-adv-x="194" 
d="M162 402l-12 -30l-17 -102h26l41 102h26q23 0 34 26l25 62q11 26 -17 26h-47q-25 0 -37 -30z" />
    <glyph glyph-name="FL2019h" unicode="&#x2019;" horiz-adv-x="194" 
d="M262 402l-12 -30l-65 -102h-26l41 102h-26q-23 0 -12 26l25 62q11 26 37 26h47q25 0 13 -30z" />
    <glyph glyph-name="FL201Ah" unicode="&#x201a;" horiz-adv-x="194" 
d="M113 32l-12 -30l-65 -102h-26l41 102h-26q-24 0 -13 26l25 62q11 26 38 26h47q25 0 13 -30z" />
    <glyph glyph-name="FL201Ch" unicode="&#x201c;" horiz-adv-x="350" 
d="M162 402l-12 -30l-17 -102h26l41 102h26q23 0 34 26l25 62q11 26 -17 26h-47q-25 0 -37 -30zM320 402l-12 -30l-17 -102h26l41 102h26q23 0 34 26l25 62q11 26 -17 26h-47q-25 0 -37 -30z" />
    <glyph glyph-name="FL201Dh" unicode="&#x201d;" horiz-adv-x="350" 
d="M420 402l-12 -30l-65 -102h-26l41 102h-26q-23 0 -12 26l25 62q11 26 37 26h47q25 0 13 -30zM262 402l-12 -30l-65 -102h-26l41 102h-26q-23 0 -12 26l25 62q11 26 37 26h47q25 0 13 -30z" />
    <glyph glyph-name="FL201Eh" unicode="&#x201e;" horiz-adv-x="350" 
d="M273 31l-13 -30l-65 -102h-26l41 102h-26q-23 0 -12 26l25 62q11 26 37 26h47q25 0 13 -30zM115 31l-13 -30l-65 -102h-26l41 102h-26q-23 0 -12 26l25 62q11 26 37 26h47q25 0 13 -30z" />
    <glyph glyph-name="FL2020h" unicode="&#x2020;" horiz-adv-x="984" 
d="M504 277h-391l42 104h391l42 103h102l-42 -103h396l-42 -104h-396l-112 -276h-102z" />
    <glyph glyph-name="FL2021h" unicode="&#x2021;" horiz-adv-x="984" 
d="M504 277l-34 -84l-392 -1l-42 -104l392 1l-36 -88h102l36 87h395l42 104h-395l34 85h396l42 104h-396l42 103h-102l-42 -103h-391l-42 -104h391z" />
    <glyph glyph-name="FL2022h" unicode="&#x2022;" horiz-adv-x="612" 
d="M132 267q-19 -47 -16 -87.5t24.5 -71.5t60 -48.5t91.5 -17.5q52 0 105 17.5t99.5 48.5t82.5 71.5t55 87.5q7 18 12 40h-494q-12 -20 -20 -40zM200 370h447q-8 54 -53.5 88t-119.5 34q-37 0 -74.5 -9t-72.5 -25t-67.5 -38.5t-59.5 -49.5z" />
    <glyph glyph-name="FL2026h" unicode="&#x2026;" horiz-adv-x="602" 
d="M501 32l22 54q12 30 -13 30h-47q-27 0 -38 -26l-25 -62q-11 -26 13 -26h48q28 0 40 30zM113 32l22 54q12 30 -13 30h-47q-27 0 -38 -26l-25 -62q-11 -26 13 -26h48q28 0 40 30zM309 32l22 54q12 30 -13 30h-47q-27 0 -38 -26l-25 -62q-11 -26 13 -26h48q28 0 40 30z" />
    <glyph glyph-name="FL2030h" unicode="&#x2030;" horiz-adv-x="1332" 
d="M182 0h142l573 484h-137zM487 333l30 76q4 8 0.5 11t-7.5 5h-249q-10 0 -17 -16l-30 -76q-2 -12 5 -12h252q7 1 16 12zM469 275h-293q-28 0 -8 48l42 106q16 40 44 40h298q30 0 14 -40l-42 -106q-20 -48 -50 -48h-5zM848 82l31 76q3 8 0 11t-8 5h-249q-10 0 -16 -16
l-31 -76q0 -12 5 -12h252q7 1 16 12zM831 24h-293q-29 0 -9 48l43 106q16 40 44 40h298q30 0 14 -40l-43 -106q-20 -48 -49 -48h-5zM1247 82l31 76q3 8 0 11t-8 5h-249q-10 0 -16 -16l-31 -76q0 -12 5 -12h252q7 1 16 12zM1230 24h-293q-29 0 -9 48l43 106q16 40 44 40h298
q30 0 14 -40l-43 -106q-20 -48 -49 -48h-5z" />
    <glyph glyph-name="FL2039h" unicode="&#x2039;" horiz-adv-x="272" 
d="M209 250l45 57h-107l-49 -62l-4 -244h106zM396 486h-106l-93 -116h106z" />
    <glyph glyph-name="FL203Ah" unicode="&#x203a;" horiz-adv-x="272" 
d="M193 250l-193 -249h106l194 244v62h-107v-57zM196 486l-2 -116h106l2 116h-106z" />
    <glyph glyph-name="FL20ACh" unicode="&#x20ac;" 
d="M1 2h890l-111 305h-413zM582 486l-140 -116h315l-41 116h-134z" />
    <glyph glyph-name="FL2122h" unicode="&#x2122;" horiz-adv-x="834" 
d="M316 292h-41l61 150h-157l17 44h356l-17 -44h-158zM712 292h-40l60 149h-105q-5 -2 -16 -13l-55 -136h-41l59 147q20 47 47 47h297q32 0 12 -47l-59 -147h-41l55 136q-3 12 -6 13h-107z" />
    </font>
</defs>
</svg>
