<?xml version="1.0" standalone="no"?>
<!DOCTYPE svg PUBLIC "-//W3C//DTD SVG 1.1//EN" "http://www.w3.org/Graphics/SVG/1.1/DTD/svg11.dtd" >
<svg>
<metadata>
Created by FontForge 20110222 at Mon Sep  8 12:20:11 2014
 By Orthosie Webhosting
2002 - Iconian Fonts: http://www.iconian.com
</metadata>
<defs>
<font id="911PorschaBoldBold" horiz-adv-x="948" >
  <font-face 
    font-family="911PorschaBoldBold"
    font-weight="700"
    font-stretch="normal"
    units-per-em="1000"
    panose-1="0 0 4 0 0 0 0 0 0 0"
    ascent="800"
    descent="-200"
    x-height="486"
    cap-height="484"
    bbox="-18 -177 1804 815"
    underline-thickness="20"
    underline-position="-190"
    unicode-range="U+0020-2122"
  />
<missing-glyph horiz-adv-x="500" 
d="M63 0v815h375v-815h-375zM125 63h250v690h-250v-690z" />
    <glyph glyph-name=".notdef" horiz-adv-x="500" 
d="M63 0v815h375v-815h-375zM125 63h250v690h-250v-690z" />
    <glyph glyph-name=".null" horiz-adv-x="0" 
 />
    <glyph glyph-name="nonmarkingreturn" horiz-adv-x="500" 
 />
    <glyph glyph-name="space" unicode=" " horiz-adv-x="522" 
 />
    <glyph glyph-name="space" unicode="&#xa0;" horiz-adv-x="522" 
 />
    <glyph glyph-name="exclam" unicode="!" horiz-adv-x="145" 
d="M0 144h102v342h-102v-342zM100 31v36q0 30 -31 30h-36q-32 0 -32 -28v-40q0 -27 29 -27h37q33 0 33 29z" />
    <glyph glyph-name="quotedbl" unicode="&#x22;" horiz-adv-x="311" 
d="M258 334l-24 -99h-49v89h-9q-35 0 -35 37v54q0 36 39 36h41q37 0 37 -40v-77zM117 334l-24 -99h-49v89h-8q-35 0 -35 37v54q0 36 38 36h42q36 0 36 -40v-77z" />
    <glyph glyph-name="FL0023h" unicode="#" 
d="M367 208h157v69h-157v-69zM524 1v82h-157v-82h-129v82h-235v125h235v69h-235v124h235v83h129v-83h157v83h129v-83h240v-124h-240v-69h240v-125h-240v-82h-129z" />
    <glyph glyph-name="dollar" unicode="$" 
d="M378 318v35h-244q-3 0 -5 -6t-2 -15q0 -14 7 -14h244zM508 186v-42h234q6 4 11 9.5t8 10.5q-1 19 -12 22h-241zM508 1v-51h-130v51h-378v143h378v42h-295q-83 1 -83 117v77q0 111 84 111h294v52h130v-52h382v-138h-382v-35h291q91 0 91 -119v-71q0 -127 -91 -127h-291z
" />
    <glyph glyph-name="FL0025h" unicode="%" horiz-adv-x="571" 
d="M-17 2h173l387 484h-175z" />
    <glyph glyph-name="ampersand" unicode="&#x26;" 
d="M378 318v35h-244q-3 0 -5 -6t-2 -15q0 -14 7 -14h244zM120 166q0 -12 17 -22h241v42h-240q-18 -8 -18 -20zM508 186v-44l382 1v-142h-382v-51h-130v51h-281q-97 0 -97 92v287q0 111 84 111h294v52h130v-52h382v-138h-382v-35h382v-132h-382z" />
    <glyph glyph-name="quotesingle" unicode="'" horiz-adv-x="147" 
d="M100 334l-21 -99h-41v89h-8q-29 0 -29 37v54q0 36 32 36h36q31 0 31 -40v-77z" />
    <glyph glyph-name="parenleft" unicode="(" horiz-adv-x="278" 
d="M224 -82h-144q-80 0 -80 169v353q0 150 81 150h143v-155h-94q-5 -21 -7.5 -38t-3.5 -30v-229l10 -62h95v-158z" />
    <glyph glyph-name="parenright" unicode=")" horiz-adv-x="278" 
d="M0 -82h144q80 0 80 169v353q0 150 -81 150h-143v-155h93q6 -21 8.5 -38t3.5 -30v-229l-11 -62h-94v-158z" />
    <glyph glyph-name="FL002Ah" unicode="*" horiz-adv-x="144" 
d="M100 326q0 -36 -31 -36h-36q-32 0 -32 33v49q0 32 29 32h37q33 0 33 -35v-43z" />
    <glyph glyph-name="plus" unicode="+" horiz-adv-x="950" 
d="M378 184h-377v127h377v173h130v-173h382v-127h-382v-183h-130v183z" />
    <glyph glyph-name="comma" unicode="," horiz-adv-x="147" 
d="M100 12l-21 -99h-41v89h-8q-29 0 -29 36v54q0 37 32 37h36q31 0 31 -40v-77z" />
    <glyph glyph-name="hyphen" unicode="-" horiz-adv-x="447" 
d="M392 150h-391v104h391v-104z" />
    <glyph glyph-name="period" unicode="." horiz-adv-x="147" 
d="M100 37q0 -35 -33 -35h-37q-29 0 -29 32v49q0 33 32 33h36q31 0 31 -36v-43z" />
    <glyph glyph-name="slash" unicode="/" horiz-adv-x="570" 
d="M-17 2h173l372 484h-161z" />
    <glyph glyph-name="zero" unicode="0" 
d="M748 139q4 1 13 16v173q0 12 -7 18t-17 8l4 -1h-599q-11 -3 -11 -25v-173q6 -16 11 -16h606zM84 1q-84 0 -84 126v248q0 111 84 111h717q89 0 89 -111v-248q0 -126 -89 -126h-717z" />
    <glyph glyph-name="one" unicode="1" horiz-adv-x="950" 
d="M0 2v142h378v207h-378v133h508v-340h382v-142h-890z" />
    <glyph glyph-name="two" unicode="2" 
d="M890 360q0 126 -91 126h-799v-142h742q6 -4 11 -9t8 -10q-1 -20 -12 -22l-609 1q-60 -4 -92 -32t-48 -64v-207h890v137h-768v35h677q91 0 91 117v70z" />
    <glyph glyph-name="three" unicode="3" 
d="M0 139h739q5 6 8 13.5t5 15.5q-10 16 -13 16h-642v127h652q6 5 9 22q-8 12 -14 18h-743v133h800q90 0 90 -110v-75q0 -49 -24 -74q23 -37 23 -69v-60q0 -95 -85 -95h-805v138z" />
    <glyph glyph-name="four" unicode="4" 
d="M892 1h-124v183h-769v300h128v-171h641v170h124v-482z" />
    <glyph glyph-name="five" unicode="5" 
d="M890 127q0 -126 -91 -126h-799v142h742q6 3 11 8.5t8 10.5q-2 21 -13 22h-748v302h890v-137h-768v-35h677q91 0 91 -117v-70z" />
    <glyph glyph-name="six" unicode="6" 
d="M131 155q6 -16 11 -16h600l19 19v12l-16 16h-614v-31zM131 311h664q95 0 95 -99v-85q0 -126 -89 -126h-717q-84 0 -84 126v248q0 111 84 111h806v-133h-748q-11 -3 -11 -25v-17z" />
    <glyph glyph-name="seven" unicode="7" 
d="M0 484h800q90 0 90 -125v-358h-131v321l-9 18h-750v144z" />
    <glyph glyph-name="eight" unicode="8" 
d="M758 333q-8 12 -14 18h-615q-4 -11 -4 -23q0 -5 0.5 -9t2.5 -8h621q6 5 9 22zM134 156q0 -13 2 -17h603q5 6 8 13.5t5 15.5q-10 16 -13 16h-601q-2 -5 -3 -10.5t-1 -13.5v-4zM119 1q-118 0 -118 82v69q0 36 29 76q-29 27 -29 71v79q0 106 90 106h710q90 0 90 -110v-75
q0 -49 -24 -74q23 -37 23 -69v-60q0 -95 -85 -95h-686z" />
    <glyph glyph-name="nine" unicode="9" 
d="M127 326q0 -15 15 -25h617v31q-8 16 -11 16h-605q-16 -9 -16 -22zM759 175h-664q-95 0 -95 100v85q0 126 89 126h717q84 0 84 -126v-248q0 -111 -84 -111h-806v134h748q11 0 11 24v16z" />
    <glyph glyph-name="colon" unicode=":" horiz-adv-x="147" 
d="M100 239q0 -42 -33 -42h-37q-29 0 -29 38v57q0 38 32 38h36q31 0 31 -42v-49zM100 44q0 -42 -33 -42h-37q-29 0 -29 38v57q0 38 32 38h36q31 0 31 -42v-49z" />
    <glyph glyph-name="semicolon" unicode=";" horiz-adv-x="147" 
d="M100 244q0 -43 -33 -43h-37q-29 0 -29 39v58q0 39 32 39h36q31 0 31 -43v-50zM100 13l-21 -106h-41v95h-8q-29 0 -29 39v58q0 39 32 39h36q31 0 31 -43v-82z" />
    <glyph glyph-name="less" unicode="&#x3c;" horiz-adv-x="278" 
d="M224 2l-143 -1q-81 0 -81 125v247q0 109 81 111h143v-135h-97q-4 -8 -5.5 -15t-2.5 -12v-161l4 -15h101v-144z" />
    <glyph glyph-name="equal" unicode="=" horiz-adv-x="484" 
d="M430 102v99h-428v-99h428zM2 267h429v95h-429v-95z" />
    <glyph glyph-name="greater" unicode="&#x3e;" horiz-adv-x="278" 
d="M0 2l143 -1q81 0 81 125v247q0 109 -81 111h-143v-135h96q7 -16 9 -26v-162l-5 -15h-100v-144z" />
    <glyph glyph-name="question" unicode="?" 
d="M0 144h129q0 39 13 40h665q83 1 83 115v77q0 110 -84 110h-806v-137h756q3 0 5 -6t2 -15q0 -14 -7 -14h-665q-91 0 -91 -117v-53zM100 34q0 -32 -33 -32h-37q-29 0 -29 29v44q0 29 32 29h36q31 0 31 -32v-38z" />
    <glyph glyph-name="at" unicode="@" 
d="M307 281q1 0 1.5 -0.5l0.5 -0.5v1h-2zM566 280h1q0 1 1 1h-2v-1zM311 280h253v1h-253v-1zM311 139h254v72h-254v-72zM239 304q0 37 29 49h-125q-12 -2 -12 -25v-173q6 -16 11 -16h97v165zM639 139h109q2 1 5 4.5t8 11.5v173q0 12 -7 18t-17 8l4 -1h-129q27 -12 27 -51
v-163zM84 1q-84 0 -84 126v248q0 111 84 111h717q89 0 89 -111v-248q0 -126 -89 -126h-717z" />
    <glyph glyph-name="A" unicode="A" 
d="M135 347q-2 0 -8 -13v-21h631v20q-7 11 -10 14h-613zM891 1h-134v183h-630v-183h-127v380q1 103 108 103h686q97 0 97 -110v-373z" />
    <glyph glyph-name="B" unicode="B" 
d="M758 333q-8 12 -14 18h-617v-40h622q6 5 9 22zM127 184v-45h612q5 6 8 13.5t5 15.5q-10 16 -13 16h-612zM806 2l-13 -1h-792v483h800q90 0 90 -110v-75q0 -49 -24 -74q23 -37 23 -69v-59q0 -95 -83 -95h-1z" />
    <glyph glyph-name="C" unicode="C" 
d="M890 1h-800q-90 0 -90 125v247q0 110 90 110h800v-134h-750q-5 -8 -6.5 -15t-2.5 -12v-161l5 -15h754v-145z" />
    <glyph glyph-name="D" unicode="D" 
d="M759 322q-2 14 -10 29h-620v-207h622l8 18v160zM0 483h800q90 0 90 -110v-247q0 -125 -90 -125h-800v482z" />
    <glyph glyph-name="E" unicode="E" horiz-adv-x="950" 
d="M890 1h-889v483h889v-133h-761v-40h761v-127h-761v-40h761v-143z" />
    <glyph glyph-name="F" unicode="F" horiz-adv-x="950" 
d="M129 184v-183h-128v483h889v-133h-761v-40h761v-127h-761z" />
    <glyph glyph-name="G" unicode="G" 
d="M131 155q6 -16 11 -16h600l19 19v28h-442v125h571v-184q0 -126 -89 -126h-717q-84 0 -84 126v248q0 111 84 111h806v-133h-747q-12 -2 -12 -25v-173z" />
    <glyph glyph-name="H" unicode="H" 
d="M892 1h-129v183h-636v-183h-128v483h128v-173h636v172h129v-482z" />
    <glyph glyph-name="I" unicode="I" horiz-adv-x="950" 
d="M0 2v142h378v207h-378v133h890v-133h-382v-207h382v-142h-890z" />
    <glyph glyph-name="J" unicode="J" 
d="M0 1h800q90 0 90 125v358h-131v-322l-9 -18h-750v-143z" />
    <glyph glyph-name="K" unicode="K" 
d="M898 486h-135l-71 -173h-565v173h-127v-485h127v183h563l73 -183h135l-94 247z" />
    <glyph glyph-name="L" unicode="L" horiz-adv-x="950" 
d="M890 1v142h-761v341h-128v-483h889z" />
    <glyph glyph-name="M" unicode="M" 
d="M761 331q-5 8 -9.5 13t-6.5 7h-237v-350h-130v350h-235q-5 -3 -12 -20v-330h-131v359q0 126 84 126h717q89 0 89 -126v-359h-129v330z" />
    <glyph glyph-name="N" unicode="N" 
d="M890 1v359q0 126 -89 126h-717q-84 0 -84 -126v-359h131v330q7 17 12 20h602q2 -2 6.5 -7t9.5 -13v-330h129z" />
    <glyph glyph-name="O" unicode="O" 
d="M748 139q4 1 13 16v173q0 12 -7 18t-17 8l4 -1h-599q-11 -3 -11 -25v-173q6 -16 11 -16h606zM92 1q-92 0 -92 126v248q0 111 93 111h708q89 0 89 -111v-248q0 -126 -89 -126h-709z" />
    <glyph glyph-name="P" unicode="P" horiz-adv-x="950" 
d="M763 329q0 10 -14 22h-622v-40h625q11 7 11 18zM127 184v-183h-127v485h809q82 0 82 -108v-76q0 -118 -82 -118h-682z" />
    <glyph glyph-name="Q" unicode="Q" 
d="M508 139h234l19 19v170q0 12 -7 18t-17 8l4 -1h-596q-14 -2 -14 -25v-173q6 -16 11 -16h236v112h130v-112zM84 1q-84 0 -84 126v248q0 111 84 111h717q89 0 89 -111v-248q0 -126 -89 -126h-717z" />
    <glyph glyph-name="R" unicode="R" 
d="M764 331q0 9 -12 20h-625v-38h625q12 7 12 18zM891 302q0 -108 -68 -117l76 -184h-136l-77 183h-559v-183h-127v485h809q82 0 82 -108v-76z" />
    <glyph glyph-name="S" unicode="S" 
d="M890 127q0 -126 -91 -126h-799v142h742q6 3 11 8.5t8 10.5q-1 19 -12 22h-666q-83 1 -83 115v77q0 110 84 110h806v-137h-756q-7 0 -7 -21q0 -14 7 -14h665q91 0 91 -117v-70z" />
    <glyph glyph-name="T" unicode="T" horiz-adv-x="950" 
d="M508 1v350h382v133h-890v-133h378v-350h130z" />
    <glyph glyph-name="U" unicode="U" 
d="M131 155q6 -16 8 -16h599l23 20v327h129v-359q0 -126 -89 -126h-717q-84 0 -84 126v359h131v-331z" />
    <glyph glyph-name="V" unicode="V" 
d="M742 486l-316 -341l-277 341h-165l381 -484h117l425 484h-165z" />
    <glyph glyph-name="W" unicode="W" 
d="M508 485l-130 1v-350h-235q-4 1 -12 19v331h-131v-359q0 -126 84 -126h717q89 0 89 126v359h-129v-329l-19 -21h-234v349z" />
    <glyph glyph-name="X" unicode="X" 
d="M128 1l77 183h481l77 -183h135l-98 250l99 235h-136l-71 -173h-493l-71 173h-136l95 -236l-94 -249h135z" />
    <glyph glyph-name="Y" unicode="Y" horiz-adv-x="950" 
d="M508 184v-182l-130 -1v183h-293q-85 0 -85 124v178h127v-150q3 -23 22 -23h603q13 10 16 32v141h123v-184q0 -118 -82 -118h-301z" />
    <glyph glyph-name="Z" unicode="Z" 
d="M0 197v-196h890v142h-761v16q0 22 12 25h666q83 1 83 115v187h-890v-137h768v-9q-12 -25 -17 -27h-660q-91 -1 -91 -116z" />
    <glyph glyph-name="bracketleft" unicode="[" horiz-adv-x="278" 
d="M224 -82h-144q-80 0 -80 169v353q0 150 81 150h143v-155h-94q-5 -21 -7.5 -38t-3.5 -30v-229l10 -62h95v-158z" />
    <glyph glyph-name="backslash" unicode="\" horiz-adv-x="570" 
d="M528 2h-172l-372 482h179z" />
    <glyph glyph-name="bracketright" unicode="]" horiz-adv-x="278" 
d="M0 -82h144q80 0 80 169v353q0 150 -81 150h-143v-155h93q6 -21 8.5 -38t3.5 -30v-229l-11 -62h-94v-158z" />
    <glyph glyph-name="FL005Eh" unicode="^" horiz-adv-x="673" 
d="M140 173l151 192l137 -192h156l-185 296h-191l-226 -296h158z" />
    <glyph glyph-name="underscore" unicode="_" horiz-adv-x="808" 
d="M1 -108h838v110h-838v-110z" />
    <glyph glyph-name="grave" unicode="`" horiz-adv-x="147" 
d="M100 334l-21 -99h-41v89h-8q-29 0 -29 37v54q0 36 32 36h36q31 0 31 -40v-77z" />
    <glyph glyph-name="a" unicode="a" 
d="M135 347q-2 0 -8 -13v-21h631v20q-7 11 -10 14h-613zM891 1h-134v183h-630v-183h-127v380q1 103 108 103h686q97 0 97 -110v-373z" />
    <glyph glyph-name="b" unicode="b" 
d="M758 333q-8 12 -14 18h-617v-40h622q6 5 9 22zM127 184v-45h612q5 6 8 13.5t5 15.5q-10 16 -13 16h-612zM806 2l-14 -1h-791v483h800q90 0 90 -110v-75q0 -49 -24 -74q23 -37 23 -69v-59q0 -95 -83 -95h-1z" />
    <glyph glyph-name="c" unicode="c" 
d="M890 1h-800q-90 0 -90 125v247q0 110 90 110h800v-134h-750q-5 -8 -6.5 -15t-2.5 -12v-161l5 -15h754v-145z" />
    <glyph glyph-name="d" unicode="d" 
d="M759 322q-2 14 -10 29h-620v-207h622l8 18v160zM0 483h800q90 0 90 -110v-247q0 -125 -90 -125h-800v482z" />
    <glyph glyph-name="e" unicode="e" horiz-adv-x="950" 
d="M890 1h-889v483h889v-133h-761v-40h761v-127h-761v-40h761v-143z" />
    <glyph glyph-name="f" unicode="f" horiz-adv-x="950" 
d="M129 184v-183h-128v483h889v-133h-761v-40h761v-127h-761z" />
    <glyph glyph-name="g" unicode="g" 
d="M131 154q5 -13 8 -13h604l18 17v118h129v-149q0 -126 -89 -126h-717q-84 0 -84 126v248q0 111 84 111h806v-133h-747q-12 -2 -12 -25v-174z" />
    <glyph glyph-name="h" unicode="h" 
d="M892 1h-129v183h-636v-183h-128v483h128v-173h636v172h129v-482z" />
    <glyph glyph-name="i" unicode="i" horiz-adv-x="188" 
d="M127 484h-128v-483h128v483z" />
    <glyph glyph-name="j" unicode="j" 
d="M0 1h800q90 0 90 125v358h-131v-322l-9 -18h-750v-143z" />
    <glyph glyph-name="k" unicode="k" 
d="M898 486h-135l-71 -173h-565v173h-127v-485h127v183h563l73 -183h135l-94 247z" />
    <glyph glyph-name="l" unicode="l" horiz-adv-x="950" 
d="M890 1v142h-761v341h-128v-483h889z" />
    <glyph glyph-name="m" unicode="m" 
d="M761 331q-5 8 -9.5 13t-6.5 7h-237v-349l-130 -1v350h-235q-5 -3 -12 -20v-330h-131v359q0 126 84 126h717q89 0 89 -126v-359h-129v330z" />
    <glyph glyph-name="n" unicode="n" 
d="M890 1v359q0 126 -89 126h-717q-84 0 -84 -126v-359h131v330q7 17 12 20h602q2 -2 6.5 -7t9.5 -13v-330h129z" />
    <glyph glyph-name="o" unicode="o" 
d="M748 139q4 1 13 16v173q0 12 -7 18t-17 8l4 -1h-599q-11 -3 -11 -25v-173q6 -16 11 -16h606zM92 1q-92 0 -92 126v248q0 111 93 111h708q89 0 89 -111v-248q0 -126 -89 -126h-709z" />
    <glyph glyph-name="p" unicode="p" horiz-adv-x="950" 
d="M763 329q0 10 -14 22h-622v-40h625q11 7 11 18zM127 184v-183h-127v485h809q82 0 82 -108v-76q0 -118 -82 -118h-682z" />
    <glyph glyph-name="q" unicode="q" horiz-adv-x="950" 
d="M82 184h682v-183h127v485h-809q-82 0 -82 -108v-76q0 -118 82 -118zM128 329q0 11 14 22h622v-40h-626q-10 7 -10 18z" />
    <glyph glyph-name="r" unicode="r" 
d="M764 331q0 9 -12 20h-625v-38h625q12 7 12 18zM891 302q0 -108 -68 -117l76 -184h-136l-77 183h-559v-183h-127v485h809q82 0 82 -108v-76z" />
    <glyph glyph-name="s" unicode="s" 
d="M890 127q0 -126 -91 -126h-799v142h742q6 3 11 8.5t8 10.5q-1 19 -12 22h-666q-83 1 -83 115v77q0 110 84 110h806v-137h-756q-7 0 -7 -21q0 -14 7 -14h665q91 0 91 -117v-70z" />
    <glyph glyph-name="t" unicode="t" horiz-adv-x="950" 
d="M508 1v350h382v133h-890v-133h378v-350h130z" />
    <glyph glyph-name="u" unicode="u" 
d="M131 155q6 -16 8 -16h599l23 20v327h129v-359q0 -126 -89 -126h-717q-84 0 -84 126v359h131v-331z" />
    <glyph glyph-name="v" unicode="v" 
d="M742 486l-316 -341l-277 341h-165l381 -484h117l425 484h-165z" />
    <glyph glyph-name="w" unicode="w" 
d="M508 485l-130 1v-350h-235q-4 1 -12 19v331h-131v-359q0 -126 84 -126h717q89 0 89 126v359h-129v-329l-19 -21h-234v349z" />
    <glyph glyph-name="x" unicode="x" 
d="M128 1l77 183h481l77 -183h135l-98 250l99 235h-136l-71 -173h-493l-71 173h-136l95 -236l-94 -249h135z" />
    <glyph glyph-name="y" unicode="y" horiz-adv-x="950" 
d="M508 184v-183h-130v183h-293q-85 0 -85 124v178h127v-150q3 -23 22 -23h603q13 10 16 32v141h123v-184q0 -118 -82 -118h-301z" />
    <glyph glyph-name="z" unicode="z" 
d="M0 134v-133h890v142h-517l517 214v129h-890v-137h510z" />
    <glyph glyph-name="FL007Bh" unicode="{" horiz-adv-x="235" 
d="M122 250l84 -249h-121l-71 192l-16 53l87 240h122z" />
    <glyph glyph-name="FL007Ch" unicode="|" horiz-adv-x="147" 
d="M100 -73h-101v643h101v-643z" />
    <glyph glyph-name="FL007Dh" unicode="}" horiz-adv-x="235" 
d="M115 1l71 192l16 53l-87 240h-122l85 -236l-84 -249h121z" />
    <glyph glyph-name="asciitilde" unicode="~" horiz-adv-x="569" 
 />
    <glyph glyph-name="FL00A1h" unicode="&#xa1;" horiz-adv-x="145" 
d="M78 32h12l-12 -15v15zM12 32h12v-15zM24 314h-12l12 15v-15zM78 313v15l12 -15h-12zM2 443q0 43 33 43h37q29 0 29 -40v-58q0 -39 -32 -39h-36q-31 0 -31 43v51zM24 32v282l54 -1v-281h-54z" />
    <glyph glyph-name="FL00A2h" unicode="&#xa2;" 
d="M890 354v136h-360v76h-127l-1 -76h-312q-90 0 -90 -111v-251q0 -127 90 -127h312v-67h128v67h360v147h-360v206h360zM131 327q1 12 9 27h262v-206h-266l-5 16v163z" />
    <glyph glyph-name="FL00A3h" unicode="&#xa3;" horiz-adv-x="461" 
d="M58 0h375v815h-375v-815zM145 725h201v-634h-201v634z" />
    <glyph glyph-name="FL00A4h" unicode="&#xa4;" horiz-adv-x="361" 
d="M289 377v0q0 1 1 1h-1v-1zM288 315h-2h2zM289 316h2h1q0 1 1 1zM65 378q2 -1 2 -2v0v2h-2zM289 378h-221v-62h221v62zM314 445q42 0 42 -55v-91q0 -48 -42 -48h-274q-40 0 -40 48v91q0 55 40 55h274z" />
    <glyph glyph-name="FL00A5h" unicode="&#xa5;" horiz-adv-x="950" 
d="M649 184v-118h-141v-65h-130v65h-138v118h-155q-85 0 -85 124v178h127v-150q3 -23 22 -23h603q13 10 16 32v141h123v-184q0 -118 -82 -118h-160z" />
    <glyph glyph-name="FL00A6h" unicode="&#xa6;" horiz-adv-x="147" 
d="M100 -73h-101v643h101v-643z" />
    <glyph glyph-name="FL00A7h" unicode="&#xa7;" 
d="M127 328q0 -14 7 -14h135q4 9 9.5 18t11.5 17h-156q-7 0 -7 -21zM761 162q-2 21 -13 22h-109q-5 -11 -11.5 -21.5t-14.5 -19.5h129q6 3 11 8.5t8 10.5zM890 127q0 -126 -91 -126h-799v142h295q-16 19 -26 41h-186q-83 1 -83 115v77q0 110 84 110h806v-137h-271
q5 -8 10.5 -17t10.5 -18h159q91 0 91 -117v-70z" />
    <glyph glyph-name="FL00A8h" unicode="&#xa8;" horiz-adv-x="397" 
d="M161 426v115h-153v-115h153zM198 426h152v115h-152v-115z" />
    <glyph glyph-name="FL00A9h" unicode="&#xa9;" 
d="M626 142h-329q-45 0 -45 59v99q0 50 40 53h-149q-12 -2 -12 -25v-173q6 -16 11 -16h606q2 1 5 4.5t8 11.5v173q0 12 -7 18t-17 8l4 -1h-115v-72h-303v-1v-61h303v-77zM84 1q-84 0 -84 126v248q0 111 84 111h717q89 0 89 -111v-248q0 -126 -89 -126h-717z" />
    <glyph glyph-name="FL00AAh" unicode="&#xaa;" horiz-adv-x="393" 
d="M364 251v145q0 49 -46 49h-260q-50 0 -50 -47v-147h66v67h222v-67h68z" />
    <glyph glyph-name="FL00ABh" unicode="&#xab;" horiz-adv-x="452" 
d="M223 486h-131l-94 -241l94 -244h130l-91 249zM420 487h-130l-94 -241l94 -244h130l-91 249z" />
    <glyph glyph-name="FL00ACh" unicode="&#xac;" horiz-adv-x="448" 
d="M259 168l-258 1v117h395v-198h-137v80z" />
    <glyph glyph-name="FL00ADh" unicode="&#xad;" horiz-adv-x="447" 
d="M392 150h-391v104h391v-104z" />
    <glyph glyph-name="FL00AEh" unicode="&#xae;" 
d="M533 212h-208v-73h239zM630 268q0 -43 -23 -53l30 -76h111q2 1 5 4.5t8 11.5v173q0 12 -7 18t-17 8l4 -1h-599q-11 -3 -11 -25v-173q6 -16 11 -16h114v212h333q41 0 41 -52v-31zM84 1q-84 0 -84 126v248q0 111 84 111h717q89 0 89 -111v-248q0 -126 -89 -126h-717z" />
    <glyph glyph-name="FL00AFh" unicode="&#xaf;" horiz-adv-x="440" 
d="M391 371v104h-391v-104h391z" />
    <glyph glyph-name="FL00B0h" unicode="&#xb0;" horiz-adv-x="419" 
d="M289 377v1h1q-1 0 -1 -1zM288 315h-2h2zM289 316l4 1q-1 0 -1 -1h-1h-2zM65 378h2v-2zM289 378v-62h-221v62h221zM314 445h-274q-40 0 -40 -55v-91q0 -48 40 -48h274q42 0 42 48v91q0 55 -42 55z" />
    <glyph glyph-name="FL00B1h" unicode="&#xb1;" horiz-adv-x="950" 
d="M12 4v99h366v99h-377v128h377v146h130v-146h382v-128h-382v-99h378v-99h-874z" />
    <glyph glyph-name="FL00B2h" unicode="&#xb2;" horiz-adv-x="386" 
d="M356 365v26q0 54 -43 54h-313v-194h356v67h-23q23 9 23 47z" />
    <glyph glyph-name="FL00B3h" unicode="&#xb3;" horiz-adv-x="379" 
d="M37 378h-37v67h315q41 0 41 -43v-23q0 -9 -7 -25q7 -12 7 -27v-27q0 -49 -42 -49h-314v65h37v62z" />
    <glyph glyph-name="FL00B4h" unicode="&#xb4;" horiz-adv-x="147" 
d="M0 352l20 99h42v-89h8q29 0 29 -36v-54q0 -37 -32 -37h-36q-31 0 -31 40v77z" />
    <glyph glyph-name="FL00B5h" unicode="&#xb5;" 
d="M131 157v336h-129v-644h127v152h672q89 0 89 128v364h-129v-332l-23 -20h-599q-2 0 -8 16z" />
    <glyph glyph-name="FL00B6h" unicode="&#xb6;" 
d="M73 2v182q-74 6 -74 118v76q0 108 82 108h809v-135h-66v-350h-127v350h-559q-12 -11 -12 -20q0 -11 12 -18h71v-311h-136z" />
    <glyph glyph-name="FL00B7h" unicode="&#xb7;" horiz-adv-x="163" 
d="M100 205q0 -36 -33 -36h-37q-29 0 -29 32v49q0 33 32 33h36q31 0 31 -36v-42z" />
    <glyph glyph-name="FL00B8h" unicode="&#xb8;" horiz-adv-x="229" 
d="M117 29l-14 6h-45l-2 -19q0 -24 21 -40l9 2v-7l-1 -9h-6v-6h-6v-9l-20 -8v-1h-8v-9q-6 -5 -6 -17l1 -25h5v-24h40q23 0 43 11q13 1 15 13h6v14q8 8 10.5 17t2.5 20l-2 30v8q0 2 1.5 7t-13.5 16q-3 12 -15 20v10h-16z" />
    <glyph glyph-name="FL00B9h" unicode="&#xb9;" horiz-adv-x="384" 
d="M0 251h356v69h-145v124h-211v-65h144v-59h-144v-69z" />
    <glyph glyph-name="FL00BAh" unicode="&#xba;" horiz-adv-x="419" 
d="M289 377v1h1q-1 0 -1 -1zM288 315h-2h2zM289 316l4 1q-1 0 -1 -1h-1h-2zM65 378h2v-2zM289 378v-62h-221v62h221zM314 445h-274q-40 0 -40 -55v-91q0 -48 40 -48h274q42 0 42 48v91q0 55 -42 55z" />
    <glyph glyph-name="FL00BBh" unicode="&#xbb;" horiz-adv-x="452" 
d="M280 250l-91 236h131l94 -241l-94 -244h-130zM83 251l-91 236h131l93 -241l-93 -244h-130z" />
    <glyph glyph-name="FL00BCh" unicode="&#xbc;" horiz-adv-x="887" 
d="M158 0l222 274h-342v75h151v65h-151v71h221v-136h152v-38l139 173h172l-207 -259h36v-68h237v67h69v-211h-69v73h-306v98l-147 -184h-177z" />
    <glyph glyph-name="FL00BDh" unicode="&#xbd;" horiz-adv-x="887" 
d="M775 145l1 -1zM158 0l222 274h-342v75h151v65h-151v71h221v-136h152v-38l139 173h171l-212 -266h291q46 0 46 -59v-29q0 -42 -25 -51h25v-73h-374v166l-137 -172h-177z" />
    <glyph glyph-name="FL00BEh" unicode="&#xbe;" horiz-adv-x="888" 
d="M321 396v-1h1zM158 0l205 253q-4 -1 -11 -1h-331v73h39v68h-39v71h330q44 0 44 -53v-30q0 -19 -8 -30q8 -16 8 -27v-25v-7l156 192h171l-207 -259h37v-68h237v67h68v-211h-68v73h-306v98l-148 -184h-177z" />
    <glyph glyph-name="FL00BFh" unicode="&#xbf;" 
d="M792 329q0 -4 -0.5 -7.5t-0.5 -7.5h-15zM859 109v15l16 -15h-16zM859 17v15h16zM859 313v15l16 -15h-16zM763 443q0 43 42 43h46q38 0 38 -40v-58q0 -39 -41 -39h-46q-39 0 -39 43v51zM859 291q0 -87 -60 -87h-665q-14 0 -25.5 -11t-11.5 -34t11.5 -36.5t25.5 -13.5h725
v-77h-775q-53 0 -53 80v77q0 84 52 85h666q36 2 42 40l68 -1v-22z" />
    <glyph glyph-name="FL00C0h" unicode="&#xc0;" 
d="M891 1v380q0 112 -97 112h-686q-107 0 -108 -105v-387h127v186h630v-186h134zM370 635v-54l28 -78h80v63h9q38 0 38 40v32q0 40 -41 41h-75q-39 0 -39 -44zM135 353h613q1 -1 3.5 -4t6.5 -10v-20h-631v21q6 13 8 13z" />
    <glyph glyph-name="Aacute" unicode="&#xc1;" 
d="M135 353q-2 0 -8 -13v-21h631v20q-8 14 -10 14h-613zM525 581l-28 -78h-80v63h-10q-37 0 -37 40v32q0 40 40 41h76q39 0 39 -44v-54zM891 1h-134v186h-630v-186h-127v387q1 105 108 105h686q97 0 97 -112v-380z" />
    <glyph glyph-name="FL00C2h" unicode="&#xc2;" 
d="M891 1v380q0 112 -97 112h-686q-107 0 -108 -105v-387h127v186h630v-186h134zM368 508l81 84l79 -84l181 -1l-176 169l-162 -1l-166 -168zM135 353h613q1 -1 3.5 -4t6.5 -10v-20h-631v21q6 13 8 13z" />
    <glyph glyph-name="FL00C3h" unicode="&#xc3;" 
d="M891 1v379q0 112 -97 112h-686q-107 0 -108 -105v-386h127v186h630v-186h134zM624 519v140h-363v-140h363zM135 353h613q1 0 10 -14v-20h-631v20q6 14 8 14z" />
    <glyph glyph-name="FL00C4h" unicode="&#xc4;" 
d="M135 353q-2 0 -8 -14v-20h631v20q-7 11 -10 14h-613zM630 519h-161v140h161v-140zM429 519h-162v140h162v-140zM891 1h-134v186h-630v-186h-127v386q1 105 108 105h686q97 0 97 -112v-379z" />
    <glyph glyph-name="FL00C5h" unicode="&#xc5;" 
d="M891 1v379q0 112 -97 112h-686q-107 0 -108 -105v-386h127v186h630v-186h134zM534 518v140h-161v-140h161zM135 353h613q1 0 10 -14v-21h-631v21q6 14 8 14z" />
    <glyph glyph-name="FL00C6h" unicode="&#xc6;" horiz-adv-x="1857" 
d="M1782 1v143h-774v40h774v127h-774v40h774v133h-905v-21q-24 21 -67 21h-700q-109 0 -110 -103v-380h130v183h640v-183h1012zM138 347h623q3 -3 10 -14v-20h-641v21q6 13 8 13z" />
    <glyph glyph-name="FL00C7h" unicode="&#xc7;" 
d="M890 1h-333q2 -5 4.5 -9.5t4.5 -11.5v-11l2 -34v-9q0 -13 -7 -23t-24 -33q-17 -13 -32 -16.5t-31 -3.5h-45l-10 38l-1 22l12 20l20 11l15 6l9 7l1 18v-1q0 9 -3 9q-11 5 -18 9.5t-11 11.5h-353q-90 0 -90 127v251q0 111 90 111h800v-136h-750q-7 -16 -9 -26v-164l5 -15
h754v-148z" />
    <glyph glyph-name="FL00C8h" unicode="&#xc8;" horiz-adv-x="950" 
d="M890 1v146h-761v40h761v130h-761v40h761v136h-889v-492h889zM370 635v-54l28 -78h80v63h9q38 0 38 40v32q0 40 -41 41h-75q-39 0 -39 -44z" />
    <glyph glyph-name="FL00C9h" unicode="&#xc9;" horiz-adv-x="950" 
d="M890 1v146h-761v40h761v130h-761v40h761v136h-889v-492h889zM525 581v54q0 44 -39 44h-76q-40 -1 -40 -41v-32q0 -40 37 -40h10v-63h80z" />
    <glyph glyph-name="FL00CAh" unicode="&#xca;" horiz-adv-x="950" 
d="M890 1v146h-761v40h761v130h-761v40h761v136h-889v-492h889zM368 508l81 84l79 -84l180 -1l-175 169l-162 -1l-166 -168z" />
    <glyph glyph-name="FL00CBh" unicode="&#xcb;" horiz-adv-x="950" 
d="M890 1v146h-761v40h761v130h-761v40h761v135h-889v-491h889zM630 519v140h-161v-140h161zM429 519v140h-162v-140h162z" />
    <glyph glyph-name="FL00CCh" unicode="&#xcc;" horiz-adv-x="950" 
d="M0 2h890v145h-382v210h382v136h-890v-136h378v-210h-378v-145zM370 635v-54l28 -78h80v63h9q38 0 38 40v32q0 40 -41 41h-75q-39 0 -39 -44z" />
    <glyph glyph-name="FL00CDh" unicode="&#xcd;" horiz-adv-x="950" 
d="M0 2h890v145h-382v210h382v136h-890v-136h378v-210h-378v-145zM525 581v54q0 44 -39 44h-76q-40 -1 -40 -41v-32q0 -40 37 -40h10v-63h80z" />
    <glyph glyph-name="FL00CEh" unicode="&#xce;" horiz-adv-x="950" 
d="M0 2h890v145h-382v210h382v136h-890v-136h378v-210h-378v-145zM368 508l81 84l79 -84l181 -1l-176 169l-162 -1l-166 -168z" />
    <glyph glyph-name="FL00CFh" unicode="&#xcf;" horiz-adv-x="950" 
d="M0 2h890v145h-382v210h382v135h-890v-135h378v-210h-378v-145zM630 519v140h-161v-140h161zM429 519v140h-162v-140h162z" />
    <glyph glyph-name="FL00D0h" unicode="&#xd0;" horiz-adv-x="1067" 
d="M409 178h-152v-34h624l8 18v160q-2 14 -10 29h-622v-45h152v-128zM127 178h-128v128h128v177h804q90 0 90 -110v-247q0 -125 -90 -125h-804v177z" />
    <glyph glyph-name="FL00D1h" unicode="&#xd1;" 
d="M792 346v-315h67v335q0 97 -58 97h-717q-53 0 -53 -97v-335h69v312q17 39 38 44h615q8 -4 18 -14t21 -27zM624 519v140h-363v-140h363zM792 16v15h-16zM875 31h-16v-15zM31 16v15h-16zM116 31h-16v-15z" />
    <glyph glyph-name="FL00D2h" unicode="&#xd2;" 
d="M92 1h709q89 0 89 128v253q0 113 -89 113h-708q-93 0 -93 -113v-253q0 -128 92 -128zM748 141h-606q-5 0 -11 17v176q0 23 12 25h598l-4 1q10 -2 17 -8t7 -18v-176q-10 -16 -13 -17zM370 635v-54l28 -78h80v63h9q38 0 38 40v32q0 40 -41 41h-75q-39 0 -39 -44z" />
    <glyph glyph-name="FL00D3h" unicode="&#xd3;" 
d="M92 1h709q89 0 89 128v253q0 113 -89 113h-708q-93 0 -93 -113v-253q0 -128 92 -128zM748 141h-606q-5 0 -11 17v176q0 23 12 25h598l-4 1q10 -2 17 -8t7 -18v-176q-10 -16 -13 -17zM525 581v54q0 44 -39 44h-76q-40 -1 -40 -41v-32q0 -40 37 -40h10v-63h80z" />
    <glyph glyph-name="FL00D4h" unicode="&#xd4;" 
d="M92 1h709q89 0 89 128v253q0 113 -89 113h-708q-93 0 -93 -113v-253q0 -128 92 -128zM748 141h-606q-5 0 -11 17v176q0 23 12 25h598l-4 1q10 -2 17 -8t7 -18v-176q-10 -16 -13 -17zM368 508l81 84l79 -84l181 -1l-176 169l-162 -1l-166 -168z" />
    <glyph glyph-name="FL00D5h" unicode="&#xd5;" 
d="M92 1h709q89 0 89 128v252q0 113 -89 113h-708q-93 0 -93 -113v-252q0 -128 92 -128zM748 141h-606q-5 0 -11 16v177q0 23 12 25h598l-4 1q10 -2 17 -8t7 -18v-177q-10 -15 -13 -16zM624 519v140h-363v-140h363z" />
    <glyph glyph-name="FL00D6h" unicode="&#xd6;" 
d="M92 1h709q89 0 89 128v252q0 113 -89 113h-708q-93 0 -93 -113v-252q0 -128 92 -128zM748 141h-606q-5 0 -11 16v177q0 23 12 25h598l-4 1q10 -2 17 -8t7 -18v-177q-8 -14 -13 -16zM429 519v140h-162v-140h162zM630 519v140h-161v-140h161z" />
    <glyph glyph-name="FL00D7h" unicode="&#xd7;" horiz-adv-x="437" 
d="M123 1l68 173l69 -173h129l-93 250l94 235h-130l-67 -173h-3l-67 173h-130l90 -236l-89 -249h129z" />
    <glyph glyph-name="FL00D8h" unicode="&#xd8;" 
d="M92 1h709q89 0 89 126v248q0 111 -89 111h-708q-93 0 -93 -111v-248q0 -126 92 -126zM145 355h425l-441 -173v142q2 28 16 31zM744 137h-409l424 169v-148q-8 -19 -15 -21z" />
    <glyph glyph-name="FL00D9h" unicode="&#xd9;" 
d="M131 158v337h-131v-366q0 -128 84 -128h717q89 0 89 128v366h-129v-334l-23 -20h-599q-2 0 -8 17zM370 635v-54l28 -78h80v63h9q38 0 38 40v32q0 40 -41 41h-75q-39 0 -39 -44z" />
    <glyph glyph-name="FL00DAh" unicode="&#xda;" 
d="M131 158v337h-131v-366q0 -128 84 -128h717q89 0 89 128v366h-129v-334l-23 -20h-599q-2 0 -8 17zM525 581v54q0 44 -39 44h-76q-40 -1 -40 -41v-32q0 -40 37 -40h10v-63h80z" />
    <glyph glyph-name="FL00DBh" unicode="&#xdb;" 
d="M131 158v337h-131v-366q0 -128 84 -128h717q89 0 89 128v366h-129v-334l-23 -20h-599q-2 0 -8 17zM368 508l81 84l79 -84l181 -1l-176 169l-162 -1l-166 -168z" />
    <glyph glyph-name="FL00DCh" unicode="&#xdc;" 
d="M131 157v337h-131v-365q0 -128 84 -128h717q89 0 89 128v365h-129v-333l-23 -20h-599q-2 0 -8 16zM429 519v140h-162v-140h162zM630 519v140h-161v-140h161z" />
    <glyph glyph-name="FL00DDh" unicode="&#xdd;" horiz-adv-x="950" 
d="M508 1v186h301q82 0 82 120v188h-123v-144v-1q-3 -21 -16 -31h-603q-19 0 -22 21v2v153h-127v-182q0 -126 85 -126h293v-186h130zM370 635v-54l28 -78h80v63h9q38 0 38 40v32q0 40 -41 41h-75q-39 0 -39 -44z" />
    <glyph glyph-name="FL00DEh" unicode="&#xde;" horiz-adv-x="689" 
d="M575 95q59 0 59 80v149q0 72 -59 72h-449v88h-127v-483h127v94h449zM521 274v-58l-397 -1v63h395q0 -2 2 -4z" />
    <glyph glyph-name="FL00DFh" unicode="&#xdf;" 
d="M212 311v-127h527q3 0 13 -16q-2 -8 -5 -15.5t-8 -13.5h-527v-135l593 -2h2q83 0 83 95v59q0 32 -23 69q24 25 24 74v75q0 110 -90 110h-800v-483l126 3v347h617q6 -6 14 -18q-3 -17 -9 -22h-537z" />
    <glyph glyph-name="FL00E0h" unicode="&#xe0;" 
d="M891 1v380q0 112 -97 112h-686q-107 0 -108 -105v-387h127v186h630v-186h134zM370 635v-54l28 -78h80v63h9q38 0 38 40v32q0 40 -41 41h-75q-39 0 -39 -44zM135 353h613q1 -1 3.5 -4t6.5 -10v-20h-631v21q6 13 8 13z" />
    <glyph glyph-name="FL00E1h" unicode="&#xe1;" 
d="M891 1v380q0 112 -97 112h-686q-107 0 -108 -105v-387h127v186h630v-186h134zM525 581v54q0 44 -39 44h-76q-40 -1 -40 -41v-32q0 -40 37 -40h10v-63h80zM135 353h613q2 0 10 -14v-20h-631v21q6 13 8 13z" />
    <glyph glyph-name="FL00E2h" unicode="&#xe2;" 
d="M891 1v380q0 112 -97 112h-686q-107 0 -108 -105v-387h127v186h630v-186h134zM368 508l81 84l79 -84l181 -1l-176 169l-162 -1l-166 -168zM135 353h613q1 -1 3.5 -4t6.5 -10v-20h-631v21q6 13 8 13z" />
    <glyph glyph-name="FL00E3h" unicode="&#xe3;" 
d="M891 1v379q0 112 -97 112h-686q-107 0 -108 -105v-386h127v186h630v-186h134zM624 519v140h-363v-140h363zM135 353h613q1 0 10 -14v-20h-631v20q6 14 8 14z" />
    <glyph glyph-name="FL00E4h" unicode="&#xe4;" 
d="M135 353q-2 0 -8 -14v-20h631v20q-7 11 -10 14h-613zM630 519h-161v140h161v-140zM429 519h-162v140h162v-140zM891 1h-134v186h-630v-186h-127v386q1 105 108 105h686q97 0 97 -112v-379z" />
    <glyph glyph-name="FL00E5h" unicode="&#xe5;" 
d="M891 1v380q0 111 -97 111h-686q-107 0 -108 -105v-386h127v186h630v-186h134zM536 524v140h-161v-140h161zM135 353h613q1 0 10 -14v-20h-631v21q6 13 8 13z" />
    <glyph glyph-name="FL00E6h" unicode="&#xe6;" horiz-adv-x="1855" 
d="M1682 1v143h-773v40h773v127h-773v40h773v133h-873v-39q-14 8 -41 39h-658q-109 0 -110 -103v-380h130v183h639v-183h913zM137 347h624q1 -1 9 -14v-20h-640v21q5 13 7 13z" />
    <glyph glyph-name="FL00E7h" unicode="&#xe7;" 
d="M471 -74q0 -7 -1 -10l-11 -4l10 19zM441 -119h16v-15zM521 -92h16l-14 -13l8 -3l-5 1h-5v-1v1q-6 -1 -6 -7v6q3 3 5 4h1v12zM497 -69h-7v-6h-15l22 22v-16zM550 -29q-8 0 -15 5v2v7q0 3 2 7l19 -19zM448 -105l-15 5l5 -1q3 0 5 1l-9 8h10l13 12v-28l-7 3v-2zM501 0h16
q4 0 4 -5v-6l6 -6q5 -5 8 -7v-9l2 -33q0 -6 -3.5 -13t-12.5 -13h-6v-16q-21 -11 -41 -11h-17v25q10 2 13 10l20 7v2h7v6h7l2 39q0 10 -1 17.5t-6 13.5h2v-1zM890 1h-389v9l-32 6q2 -4 4 -6q11 0 16.5 -2t9.5 -7h-409q-90 0 -90 127v251q0 111 90 111h800v-136h-750
q-7 -16 -9 -26v-164l5 -15h754v-148z" />
    <glyph glyph-name="FL00E8h" unicode="&#xe8;" horiz-adv-x="950" 
d="M859 16v16h16zM32 462h-16l16 15v-15zM859 462v15l16 -15h-16zM859 372v16h16zM32 32v-16l-16 16h16zM859 286v16l16 -16h-16zM859 202v16h16zM859 117v15l16 -15h-16zM370 635q0 44 39 44h75q41 -1 41 -41v-32q0 -40 -38 -40h-9v-63h-80l-28 78v54zM98 388v-102h761v-68
h-761v-101h761v-85h-827v430h827v-74h-761z" />
    <glyph glyph-name="FL00E9h" unicode="&#xe9;" horiz-adv-x="950" 
d="M890 1v146h-761v40h761v130h-761v40h761v136h-889v-492h889zM525 581v54q0 44 -39 44h-76q-40 -1 -40 -41v-32q0 -40 37 -40h10v-63h80z" />
    <glyph glyph-name="FL00EAh" unicode="&#xea;" horiz-adv-x="950" 
d="M890 1v146h-761v40h761v130h-761v40h761v136h-889v-492h889zM368 508l81 84l79 -84l180 -1l-175 169l-162 -1l-166 -168z" />
    <glyph glyph-name="FL00EBh" unicode="&#xeb;" horiz-adv-x="950" 
d="M434 528h-161v140h161v-140zM636 528h-161v140h161v-140zM890 1h-889v491h889v-135h-761v-40h761v-130h-761v-40h761v-146z" />
    <glyph glyph-name="FL00ECh" unicode="&#xec;" horiz-adv-x="950" 
d="M15 32h16v-15zM31 116h-16l16 16v-16zM15 388h16v-16zM31 462h-16l16 15v-15zM859 462v15l16 -15h-16zM859 372v16h16zM859 116v16l16 -16h-16zM859 17v15h16zM370 635q0 44 39 44h75q41 -1 41 -41v-32q0 -40 -38 -40h-9v-63h-80l-28 78v54zM31 116h378v272h-378v74h828
v-74h-382v-272h382v-84h-828v84z" />
    <glyph glyph-name="FL00EDh" unicode="&#xed;" horiz-adv-x="950" 
d="M0 2h890v145h-382v210h382v136h-890v-136h378v-210h-378v-145zM525 581v54q0 44 -39 44h-76q-40 -1 -40 -41v-32q0 -40 37 -40h10v-63h80z" />
    <glyph glyph-name="FL00EEh" unicode="&#xee;" horiz-adv-x="950" 
d="M0 2h890v145h-382v210h382v136h-890v-136h378v-210h-378v-145zM368 508l81 84l79 -84l181 -1l-176 169l-162 -1l-166 -168z" />
    <glyph glyph-name="FL00EFh" unicode="&#xef;" horiz-adv-x="950" 
d="M0 2h890v145h-382v210h382v135h-890v-135h378v-210h-378v-145zM636 528v140h-161v-140h161zM434 528v140h-161v-140h161z" />
    <glyph glyph-name="FL00F0h" unicode="&#xf0;" 
d="M0 212v-85q0 -126 89 -126h717q84 0 84 126v248q0 111 -84 111h-806v-133h748q11 -3 11 -25v-17h-664q-95 0 -95 -99zM748 139h-601l-18 19v12l15 16h615v-31q-7 -16 -11 -16z" />
    <glyph glyph-name="FL00F1h" unicode="&#xf1;" 
d="M890 1v365q0 128 -89 128h-717q-84 0 -84 -128v-365h131v336q7 17 12 20h602l6.5 -6.5t9.5 -12.5v-337h129zM624 519v140h-363v-140h363z" />
    <glyph glyph-name="FL00F2h" unicode="&#xf2;" 
d="M370 635q0 44 39 44h75q41 -1 41 -41v-32q0 -40 -38 -40h-9v-63h-80l-28 78v54zM792 334q0 26 -15.5 38.5t-35.5 17.5h-600q-41 -2 -41 -56v-183q16 -40 42 -40h610q22 2 40 41v182zM92 32q-61 0 -61 97v253q0 82 62 82h708q58 0 58 -82v-253q0 -97 -58 -97h-709z" />
    <glyph glyph-name="FL00F3h" unicode="&#xf3;" 
d="M525 581l-28 -78h-80v63h-10q-37 0 -37 40v32q0 40 40 41h76q39 0 39 -44v-54zM792 334q0 26 -15.5 38.5t-35.5 17.5h-600q-41 -2 -41 -56v-183q16 -40 42 -40h610q22 2 40 41v182zM92 32q-61 0 -61 97v253q0 82 62 82h708q58 0 58 -82v-253q0 -97 -58 -97h-709z" />
    <glyph glyph-name="FL00F4h" unicode="&#xf4;" 
d="M92 1h709q89 0 89 128v253q0 113 -89 113h-708q-93 0 -93 -113v-253q0 -128 92 -128zM748 141h-606q-5 0 -11 17v176q0 23 12 25h598l-4 1q10 -2 17 -8t7 -18v-176q-10 -16 -13 -17zM368 508l81 84l79 -84l181 -1l-176 169l-162 -1l-166 -168z" />
    <glyph glyph-name="FL00F5h" unicode="&#xf5;" 
d="M92 1h709q89 0 89 128v252q0 113 -89 113h-708q-93 0 -93 -113v-252q0 -128 92 -128zM748 141h-606q-5 0 -11 16v177q0 23 12 25h598l-4 1q10 -2 17 -8t7 -18v-177q-10 -15 -13 -16zM624 519v140h-363v-140h363z" />
    <glyph glyph-name="FL00F6h" unicode="&#xf6;" 
d="M92 1h709q89 0 89 128v253q0 112 -89 112h-708q-93 0 -93 -112v-253q0 -128 92 -128zM748 141h-606q-5 0 -11 16v177q0 23 12 25h598l-4 1q10 -2 17 -8t7 -18v-177q-8 -14 -13 -16zM434 528v140h-161v-140h161zM636 528v140h-161v-140h161z" />
    <glyph glyph-name="FL00F7h" unicode="&#xf7;" horiz-adv-x="447" 
d="M392 182v127h-391v-127h391zM277 34v137h-159v-137h159zM277 328v138h-159v-138h159z" />
    <glyph glyph-name="FL00F8h" unicode="&#xf8;" 
d="M92 1h709q89 0 89 126v248q0 111 -89 111h-708q-93 0 -93 -111v-248q0 -126 92 -126zM145 355h425l-441 -173v142q2 28 16 31zM744 137h-409l424 169v-148q-8 -19 -15 -21z" />
    <glyph glyph-name="FL00F9h" unicode="&#xf9;" 
d="M100 464v15l16 -15h-16zM792 464h-16l16 15v-15zM859 464v15l16 -15h-16zM31 464h-16l16 15v-15zM370 635q0 44 39 44h75q41 -1 41 -41v-32q0 -40 -38 -40h-9v-63h-80l-28 78v54zM859 129q0 -97 -58 -97h-717q-53 0 -53 97v335h69v-313q16 -40 39 -40h613l40 37v316h67
v-335z" />
    <glyph glyph-name="FL00FAh" unicode="&#xfa;" 
d="M131 158v337h-131v-366q0 -128 84 -128h717q89 0 89 128v366h-129v-334l-23 -20h-599q-2 0 -8 17zM525 581v54q0 44 -39 44h-76q-40 -1 -40 -41v-32q0 -40 37 -40h10v-63h80z" />
    <glyph glyph-name="FL00FBh" unicode="&#xfb;" 
d="M131 158v337h-131v-366q0 -128 84 -128h717q89 0 89 128v366h-129v-334l-23 -20h-599q-2 0 -8 17zM368 508l81 84l79 -84l181 -1l-176 169l-162 -1l-166 -168z" />
    <glyph glyph-name="FL00FCh" unicode="&#xfc;" 
d="M131 157v337h-131v-365q0 -128 84 -128h717q89 0 89 128v365h-129v-333l-23 -20h-599q-2 0 -8 16zM434 528v140h-161v-140h161zM636 528v140h-161v-140h161z" />
    <glyph glyph-name="FL00FDh" unicode="&#xfd;" horiz-adv-x="950" 
d="M508 1v186h301q82 0 82 120v188h-123v-144v-1q-3 -21 -16 -31h-603q-19 0 -22 21v2v153h-127v-182q0 -126 85 -126h293v-186h130zM525 581v54q0 44 -39 44h-76q-40 -1 -40 -41v-32q0 -40 37 -40h10v-63h80z" />
    <glyph glyph-name="FL00FEh" unicode="&#xfe;" horiz-adv-x="689" 
d="M575 95q59 0 59 80v149q0 72 -59 72h-449v88h-127v-483h127v94h449zM521 274v-58l-397 -1v63h395q0 -2 2 -4z" />
    <glyph glyph-name="FL00FFh" unicode="&#xff;" horiz-adv-x="950" 
d="M508 1v186h301q82 0 82 120v187h-123v-145q-3 -22 -16 -30h-603q-19 0 -22 23v152h-127v-181q0 -126 85 -126h293v-186h130zM434 528v140h-161v-140h161zM636 528v140h-161v-140h161z" />
    <glyph glyph-name="FL0152h" unicode="&#x152;" horiz-adv-x="1886" 
d="M142 349q-4 -8 -5.5 -15t-2.5 -12v-161l5 -15h760v203h-757zM1804 1h-1713q-91 0 -91 125v247q0 110 91 110h808v1h905v-133h-774v-40h774v-127h-774v-40h774v-143z" />
    <glyph glyph-name="FL0153h" unicode="&#x153;" horiz-adv-x="1886" 
d="M142 349q-4 -8 -5.5 -15t-2.5 -12v-161l5 -15h760v203h-757zM1804 1h-1713q-91 0 -91 125v247q0 110 91 110h808v1h905v-133h-774v-40h774v-127h-774v-40h774v-143z" />
    <glyph glyph-name="FL0160h" unicode="&#x160;" 
d="M890 129v71q0 120 -91 120h-665q-7 0 -7 14q0 21 7 21h756v140h-806q-84 0 -84 -112v-78q0 -117 83 -118h665q12 -1 13 -22q-7 -13 -19 -20h-742v-144h799q91 0 91 128zM368 675l-163 1l166 -168l162 -1l176 169l-181 -1l-79 -84z" />
    <glyph glyph-name="FL0161h" unicode="&#x161;" 
d="M890 129v71q0 120 -91 120h-665q-7 0 -7 14q0 21 7 21h756v140h-806q-84 0 -84 -112v-78q0 -117 83 -118h665q12 -1 13 -22q-7 -13 -19 -20h-742v-144h799q91 0 91 128zM368 675l-163 1l166 -168l162 -1l176 169l-181 -1l-79 -84z" />
    <glyph glyph-name="FL0178h" unicode="&#x178;" horiz-adv-x="950" 
d="M508 1v186h301q82 0 82 120v187h-123v-145q-3 -22 -16 -30h-603q-19 0 -22 23v152h-127v-181q0 -126 85 -126h293v-186h130zM434 528v140h-161v-140h161zM636 528v140h-161v-140h161z" />
    <glyph glyph-name="FL017Dh" unicode="&#x17d;" 
d="M0 137v-136h890v144h-517l517 219v131h-890v-140h510zM368 675l-163 1l166 -168l162 -1l176 169l-181 -1l-79 -84z" />
    <glyph glyph-name="FL017Eh" unicode="&#x17e;" 
d="M0 137v-136h890v144h-517l517 219v131h-890v-140h510zM368 675l-163 1l166 -168l162 -1l176 169l-181 -1l-79 -84z" />
    <glyph glyph-name="FL0192h" unicode="&#x192;" horiz-adv-x="950" 
d="M129 187v-364h-128v669h889v-135h-761v-40h761v-130h-761z" />
    <glyph glyph-name="FL02C6h" unicode="&#x2c6;" horiz-adv-x="477" 
d="M225 508l-79 -72l-157 -1l160 144l157 1l170 -145l-175 1z" />
    <glyph glyph-name="FL02DCh" unicode="&#x2dc;" horiz-adv-x="416" 
d="M350 427v115h-344v-115h344z" />
    <glyph glyph-name="FL2013h" unicode="&#x2013;" horiz-adv-x="447" 
d="M392 150h-391v104h391v-104z" />
    <glyph glyph-name="FL2014h" unicode="&#x2014;" horiz-adv-x="447" 
d="M392 150h-391v104h391v-104z" />
    <glyph glyph-name="FL2018h" unicode="&#x2018;" horiz-adv-x="147" 
d="M0 411v-77l20 -99h42v89h8q29 0 29 37v54q0 36 -32 36h-36q-31 0 -31 -40z" />
    <glyph glyph-name="FL2019h" unicode="&#x2019;" horiz-adv-x="147" 
d="M100 334l-21 -99h-41v89h-8q-29 0 -29 37v54q0 36 32 36h36q31 0 31 -40v-77z" />
    <glyph glyph-name="FL201Ah" unicode="&#x201a;" horiz-adv-x="147" 
d="M100 12l-21 -99h-41v89h-8q-29 0 -29 36v54q0 37 32 37h36q31 0 31 -40v-77z" />
    <glyph glyph-name="FL201Ch" unicode="&#x201c;" horiz-adv-x="311" 
d="M0 411v-77l24 -99h49v89h9q34 0 34 37v54q0 36 -38 36h-42q-36 0 -36 -40zM141 411v-77l24 -99h48v89h9q35 0 35 37v54q0 36 -38 36h-42q-36 0 -36 -40z" />
    <glyph glyph-name="FL201Dh" unicode="&#x201d;" horiz-adv-x="311" 
d="M258 334l-24 -99h-49v89h-9q-35 0 -35 37v54q0 36 39 36h41q37 0 37 -40v-77zM117 334l-24 -99h-49v89h-8q-35 0 -35 37v54q0 36 38 36h42q36 0 36 -40v-77z" />
    <glyph glyph-name="FL201Eh" unicode="&#x201e;" horiz-adv-x="311" 
d="M260 11l-24 -99h-49v89h-9q-35 0 -35 36v54q0 37 38 37h42q37 0 37 -40v-77zM119 11l-24 -99h-49v89h-9q-34 0 -34 36v54q0 37 38 37h42q36 0 36 -40v-77z" />
    <glyph glyph-name="FL2020h" unicode="&#x2020;" horiz-adv-x="950" 
d="M378 260h-377v127h377v97h130v-97h382v-127h-382v-259h-130v259z" />
    <glyph glyph-name="FL2021h" unicode="&#x2021;" horiz-adv-x="950" 
d="M0 83h378v-82h130v82h381v127h-381v50h382v127h-382v97h-130v-97h-377v-127h377v-49l-378 -1v-127z" />
    <glyph glyph-name="FL2022h" unicode="&#x2022;" horiz-adv-x="575" 
d="M23 264q0 46 19.5 87t53 72t79.5 48.5t99 17.5q52 0 98 -17.5t80 -48.5t53.5 -72t19.5 -87q0 -47 -19.5 -87.5t-53.5 -71.5t-80 -48.5t-98 -17.5q-53 0 -99 17.5t-79.5 48.5t-53 71.5t-19.5 87.5z" />
    <glyph glyph-name="FL2026h" unicode="&#x2026;" horiz-adv-x="565" 
d="M488 37v43q0 36 -39 36h-44q-40 0 -40 -33v-49q0 -32 37 -32h45q41 0 41 35zM308 37v43q0 36 -39 36h-44q-40 0 -40 -33v-49q0 -32 36 -32h45q42 0 42 35zM124 37v43q0 36 -39 36h-44q-40 0 -40 -33v-49q0 -32 37 -32h45q41 0 41 35z" />
    <glyph glyph-name="FL2030h" unicode="&#x2030;" horiz-adv-x="1298" 
d="M160 0h179l392 484h-174zM919 53h290q14 0 14 30v99q0 22 -14 22h-290q-12 0 -12 -22v-99q0 -30 12 -30zM530 53h290q14 0 14 30v99q0 22 -14 22h-290q-12 0 -12 -22v-99q0 -30 12 -30zM79 288h290q14 0 14 30v99q0 23 -14 23h-290q-12 0 -12 -23v-99q0 -30 12 -30z
M825 92l-1 -6q-4 -8 -8 -13t-14 -7h-249q-16 0 -25 23v74q0 30 25 30h243q1 0 2.5 -0.5t2.5 -0.5q9 -5 16.5 -10t7.5 -19v-71zM374 327l-1 -5q-4 -9 -8.5 -14t-13.5 -7h-249q-16 0 -25 24v74q0 30 25 30h243q1 0 2.5 -0.5t2.5 -0.5q9 -5 16.5 -10t7.5 -19v-72zM1214 92
l-1 -6q-4 -8 -8.5 -13t-13.5 -7h-249q-16 0 -25 23v74q0 30 25 30h243q1 0 2.5 -0.5t2.5 -0.5l16 -10t8 -19v-71z" />
    <glyph glyph-name="FL2039h" unicode="&#x2039;" horiz-adv-x="235" 
d="M207 486h-122l-87 -241l87 -244h121l-84 249z" />
    <glyph glyph-name="FL203Ah" unicode="&#x203a;" horiz-adv-x="235" 
d="M78 250l-85 236h122l87 -241l-87 -244h-121z" />
    <glyph glyph-name="FL20ACh" unicode="&#x20ac;" 
d="M-17 2h923l-381 484h-145z" />
    <glyph glyph-name="FL2122h" unicode="&#x2122;" horiz-adv-x="800" 
d="M221 379v-128h-70v128h-151v66h372v-66h-151zM683 251v126q-1 0 -1 2h-82v-128h-69v128h-80v-1v-127h-70v140q0 54 42 54h285q45 0 45 -54v-140h-70z" />
    </font>
</defs>
</svg>
