<?xml version="1.0" standalone="no"?>
<!DOCTYPE svg PUBLIC "-//W3C//DTD SVG 1.1//EN" "http://www.w3.org/Graphics/SVG/1.1/DTD/svg11.dtd" >
<svg>
<metadata>
Created by FontForge 20110222 at Mon Sep  8 12:22:58 2014
 By Orthosie Webhosting
2002 - Iconian Fonts: http://www.iconian.com
</metadata>
<defs>
<font id="911PorschaLeftalicLeftalic" horiz-adv-x="982" >
  <font-face 
    font-family="911PorschaLeftalicLeftalic"
    font-weight="400"
    font-style="italic"
    font-stretch="normal"
    units-per-em="1000"
    panose-1="0 0 4 0 0 0 0 0 0 0"
    ascent="800"
    descent="-200"
    x-height="486"
    cap-height="484"
    bbox="-250 -185 1804 815"
    underline-thickness="20"
    underline-position="-190"
    slope="-12"
    unicode-range="U+0020-2122"
  />
<missing-glyph horiz-adv-x="500" 
d="M63 0v815h375v-815h-375zM125 63h250v690h-250v-690z" />
    <glyph glyph-name=".notdef" horiz-adv-x="500" 
d="M63 0v815h375v-815h-375zM125 63h250v690h-250v-690z" />
    <glyph glyph-name=".null" horiz-adv-x="0" 
 />
    <glyph glyph-name="nonmarkingreturn" horiz-adv-x="500" 
 />
    <glyph glyph-name="space" unicode=" " horiz-adv-x="522" 
 />
    <glyph glyph-name="space" unicode="&#xa0;" horiz-adv-x="522" 
 />
    <glyph glyph-name="exclam" unicode="!" horiz-adv-x="190" 
d="M-59 154l102 -1l-128 333h-102zM88 32l-21 54q-12 30 -37 30h-47q-26 0 -17 -26l24 -62q11 -26 33 -26h48q27 0 17 30z" />
    <glyph glyph-name="quotedbl" unicode="&#x22;" horiz-adv-x="350" 
d="M104 402l11 -30l15 -102h-26l-39 102h-26q-22 0 -33 26l-24 62q-9 26 17 26h47q25 0 37 -30zM-54 402l11 -30l15 -102h-26l-39 102h-26q-22 0 -33 26l-24 62q-9 26 17 26h47q25 0 37 -30z" />
    <glyph glyph-name="FL0023h" unicode="#" 
d="M314 89l34 -88h-101l-34 88h-244l-39 101h244l-40 105h-244l-39 101h244l-34 88h101l34 -88h195l-34 88h101l34 -88h249l39 -101h-249l40 -105h249l39 -101h-249l34 -88h-101l-34 88h-195zM430 295h-195l40 -105h195z" />
    <glyph glyph-name="dollar" unicode="$" 
d="M276 303l-27 69h-269q-9 0 -12 -10.5t4 -27.5q6 -16 16 -23.5t19 -7.5h269zM448 120h264q9 6 12.5 16t4.5 17q-15 41 -44 43h-266zM514 -53h-102l-20 54h-392l-46 119h392l-29 76h-322q-71 1 -111 107l-32 82q-39 101 32 101h321l-20 54h102l20 -54h396l44 -114h-396
l27 -69h318q78 0 120 -109l28 -75q46 -118 -32 -118h-318z" />
    <glyph glyph-name="FL0025h" unicode="%" horiz-adv-x="606" 
d="M-1 2h142l198 484h-144z" />
    <glyph glyph-name="ampersand" unicode="&#x26;" 
d="M276 303l-27 69h-269q-9 0 -12 -10.5t4 -27.5q6 -16 16 -23.5t19 -7.5h269zM449 118l395 1l46 -118h-396l20 -54h-102l-20 54h-307q-86 0 -116 81l-117 303q-39 101 32 101h321l-20 54h102l20 -54h396l44 -114h-396l27 -69h396l41 -107h-396zM78 120h268l-29 76h-268
q-28 -12 -18 -37q5 -11 16 -21t31 -18z" />
    <glyph glyph-name="quotesingle" unicode="'" horiz-adv-x="194" 
d="M-54 402l11 -30l15 -102h-26l-39 102h-26q-22 0 -33 26l-24 62q-9 26 17 26h47q25 0 37 -30z" />
    <glyph glyph-name="parenleft" unicode="(" horiz-adv-x="318" 
d="M257 -86h-149q-75 0 -137 161l-142 370q-54 141 23 141h147l50 -130h-102q6 -57 15 -86l94 -244l44 -78h106z" />
    <glyph glyph-name="parenright" unicode=")" horiz-adv-x="318" 
d="M33 -86h149q75 0 13 161l-142 370q-54 141 -131 141h-147l50 -130h102q40 -60 51 -86l94 -244l16 -78h-106z" />
    <glyph glyph-name="FL002Ah" unicode="*" horiz-adv-x="190" 
d="M-75 456l21 -54q10 -30 -14 -30h-47q-26 0 -37 26l-24 62q-9 26 13 26h48q28 0 40 -30z" />
    <glyph glyph-name="plus" unicode="+" horiz-adv-x="984" 
d="M317 196h-391l-40 104h391l-71 184h102l71 -184h396l40 -104h-396l75 -195h-102z" />
    <glyph glyph-name="comma" unicode="," horiz-adv-x="194" 
d="M88 32l11 -30l15 -102h-26l-39 102h-26q-22 0 -33 26l-24 62q-9 26 17 26h47q25 0 37 -30z" />
    <glyph glyph-name="hyphen" unicode="-" horiz-adv-x="484" 
d="M317 196h-391l-40 104h391z" />
    <glyph glyph-name="period" unicode="." horiz-adv-x="194" 
d="M88 32q10 -30 -17 -30h-48q-22 0 -33 26l-24 62q-9 26 17 26h47q25 0 37 -30z" />
    <glyph glyph-name="slash" unicode="/" horiz-adv-x="606" 
d="M-1 2h142l184 484h-130z" />
    <glyph glyph-name="zero" unicode="0" 
d="M732 146l-72 188q-8 20 -22 29t-30 13h-621q-27 -2 -11 -42l72 -188q24 -30 38 -30h630q13 1 16 30zM803 1h-732q-71 0 -117 118l-101 265q-41 102 31 102h743q75 0 116 -102l101 -265q46 -118 -30 -118h-11z" />
    <glyph glyph-name="one" unicode="1" horiz-adv-x="984" 
d="M-1 2l-46 120h392l-97 252h-392l-42 110h494l139 -362h396l46 -120h-890z" />
    <glyph glyph-name="two" unicode="2" 
d="M749 368q-46 118 -124 118h-812l46 -119h758q14 -6 25 -16t18 -17q16 -42 -12 -43l-620 1q-40 -8 -68 -32t-24 -80l64 -179h890l-44 114l-766 1q-44 64 4 68h657q79 0 37 109z" />
    <glyph glyph-name="three" unicode="3" 
d="M-45 116h758q10 22 3 50q-27 30 -41 30h-650l-40 104h664q5 3 8.5 11.5t-4.5 31.5q-27 27 -37 31h-759l-42 110h813q77 0 116 -101l31 -80q20 -54 0 -76q45 -42 57 -77l2 -4l23 -60q33 -85 -39 -85h-818z" />
    <glyph glyph-name="four" unicode="4" 
d="M892 1h-96l-75 195h-797l-111 288h101l70 -182h696l-69 181h96z" />
    <glyph glyph-name="five" unicode="5" 
d="M844 119q46 -118 -32 -118h-812l-46 119h758q9 6 12.5 16t4.5 17q-15 41 -44 43h-760l-112 290h890l44 -114h-796l27 -69h718q78 0 120 -109z" />
    <glyph glyph-name="six" unicode="6" 
d="M28 198l20 -52q24 -30 38 -30h630l16 30l-10 26l-34 26h-660zM-11 300h704q81 0 116 -90l35 -91q46 -118 -30 -118h-743q-71 0 -117 118l-101 265q-41 102 31 102h819l43 -110h-759q-27 -2 -11 -42z" />
    <glyph glyph-name="seven" unicode="7" 
d="M-186 484h813q77 0 122 -117l141 -366h-104l-127 330l-26 32h-772z" />
    <glyph glyph-name="eight" unicode="8" 
d="M369 116h344q10 22 3 50q-27 30 -41 30h-630q-7 -11 2 -40l2 -6q9 -22 24 -34h296zM42 374h-78q-1 -21 6 -40q4 -10 9.5 -18.5t13.5 -15.5h656q5 3 8.5 11.5t-4.5 31.5q-27 27 -37 31h-574zM107 1q-107 0 -134 72l-28 73q-15 42 5 84q-47 25 -65 73l-31 80l-2 4
q-37 97 40 97h736q77 0 116 -101l31 -80q20 -54 0 -76q45 -42 57 -77l2 -4l21 -56l2 -4q33 -85 -39 -85h-711z" />
    <glyph glyph-name="nine" unicode="9" 
d="M675 289l-20 52q-24 30 -38 30h-630q-25 -14 -14 -40q10 -27 42 -42h660zM714 187h-704q-82 0 -116 90l-35 91q-46 118 30 118h743q71 0 117 -118l101 -265q40 -102 -31 -102h-819l-43 111h759q28 0 11 41z" />
    <glyph glyph-name="colon" unicode=":" horiz-adv-x="194" 
d="M6 246q10 -30 -17 -30h-48q-22 0 -33 26l-24 62q-9 26 17 26h47q25 0 37 -30zM88 32q10 -30 -17 -30h-48q-22 0 -33 26l-24 62q-9 26 17 26h47q25 0 37 -30z" />
    <glyph glyph-name="semicolon" unicode=";" horiz-adv-x="194" 
d="M6 246q10 -30 -17 -30h-48q-22 0 -33 26l-24 62q-9 26 17 26h47q25 0 37 -30zM88 32l11 -30l15 -102h-26l-39 102h-26q-22 0 -33 26l-24 62q-9 26 17 26h47q25 0 37 -30z" />
    <glyph glyph-name="less" unicode="&#x3c;" horiz-adv-x="318" 
d="M223 2l-146 -1q-77 0 -122 117l-102 264q-37 100 38 102h147l43 -112h-104q-5 -27 1 -44l67 -174l21 -30h110z" />
    <glyph glyph-name="equal" unicode="=" horiz-adv-x="520" 
d="M-113 300h429l-29 74h-429zM386 114l-30 80h-428l30 -80h428z" />
    <glyph glyph-name="greater" unicode="&#x3e;" horiz-adv-x="318" 
d="M-1 2l148 -1q77 0 32 117l-102 264q-37 100 -116 102h-147l43 -112h104q13 -13 20.5 -24t12.5 -20l67 -174l1 -30h-110z" />
    <glyph glyph-name="question" unicode="?" 
d="M-59 154l102 -1q-15 42 12 43h690q69 2 29 107l-32 82q-39 101 -110 101h-819l44 -114h767q9 0 20 -10.5t18 -27.5q6 -16 2 -23.5t-13 -7.5h-689q-78 0 -36 -109zM88 32l-21 54q-12 30 -37 30h-47q-26 0 -17 -26l24 -62q11 -26 33 -26h48q27 0 17 30z" />
    <glyph glyph-name="at" unicode="@" 
d="M732 146l-72 188q-8 20 -22 29t-30 13h-621q-27 -2 -11 -42l72 -188q24 -30 38 -30h630q13 1 16 30zM540 1h-469q-71 0 -117 118l-101 265q-41 102 31 102h743q75 0 116 -102l101 -265q46 -118 -30 -118h-274zM576 141h-45l-32 84h-295l32 -84h-42l-64 167q-16 40 25 40
h305q36 0 53 -42zM188 266h294l-8 22q-12 12 -14 12h-274q-4 0 -7 -11z" />
    <glyph glyph-name="A" unicode="A" 
d="M891 1h-107l-75 195h-684l75 -195h-100l-150 389q-34 94 60 94h710q85 0 124 -101zM-16 302h685l-16 41q-24 25 -33 27h-638q-11 0 -14 -26z" />
    <glyph glyph-name="B" unicode="B" 
d="M-15 300h664q5 3 8.5 11.5t-4.5 31.5q-27 27 -37 31h-660zM487 116h226q10 22 3 50q-27 30 -41 30h-650l30 -80h432zM817 2l-12 -1h-804l-186 483h813q77 0 116 -101l31 -80q20 -54 0 -76q45 -42 57 -77l25 -63q31 -85 -38 -85h-2z" />
    <glyph glyph-name="C" unicode="C" 
d="M890 1h-813q-77 0 -122 117l-102 264q-38 101 39 101h813l42 -111h-770q-5 -27 1 -44l67 -174l21 -30h776z" />
    <glyph glyph-name="D" unicode="D" 
d="M55 122h672v32l-67 174q-9 19 -34 46h-668zM-48 126l-137 357h813q77 0 115 -101l102 -264q45 -117 -32 -117h-813z" />
    <glyph glyph-name="E" unicode="E" horiz-adv-x="984" 
d="M890 1h-889l-186 483h889l42 -110h-788l29 -74h788l40 -104h-788l28 -74h788z" />
    <glyph glyph-name="F" unicode="F" horiz-adv-x="984" 
d="M102 1h-101l-186 483h889l42 -110h-788l29 -74h788l40 -104h-788z" />
    <glyph glyph-name="G" unicode="G" 
d="M254 198l-39 102h560l69 -181q46 -118 -30 -118h-743q-71 0 -117 118l-101 265q-41 102 31 102h819l43 -110h-759q-27 -2 -11 -42l72 -188q24 -30 38 -30h630l16 30l-20 52h-458z" />
    <glyph glyph-name="H" unicode="H" 
d="M892 1h-102l-75 195h-690l75 -195h-101l-186 483h101l71 -184h690l-70 183h102z" />
    <glyph glyph-name="I" unicode="I" horiz-adv-x="984" 
d="M-1 2l-46 120h392l-97 252h-392l-42 110h890l42 -110h-396l97 -252h396l46 -120h-890z" />
    <glyph glyph-name="J" unicode="J" 
d="M0 1h813q77 0 32 117l-141 366h-104l127 -330l-2 -32h-772z" />
    <glyph glyph-name="K" unicode="K" 
d="M705 248l-1 238h-106l-2 -184h-612l-71 184h-100l187 -485h100l-75 195h610l150 -195h106z" />
    <glyph glyph-name="L" unicode="L" horiz-adv-x="984" 
d="M890 1l-46 119h-788l-140 364h-101l186 -483h889z" />
    <glyph glyph-name="M" unicode="M" 
d="M494 1h-102l-144 373h-262q-13 -3 -13 -33l131 -340h-104l-141 367q-46 118 25 118h743q76 0 122 -118l141 -367h-102l-131 340q-27 28 -41 33h-266z" />
    <glyph glyph-name="N" unicode="N" 
d="M657 342l131 -341h102l-141 367q-46 118 -122 118h-743q-71 0 -25 -118l141 -367h104l-131 340q0 30 13 33h630q13 -4 41 -32z" />
    <glyph glyph-name="O" unicode="O" 
d="M732 146l-72 188q-8 20 -22 29t-30 13h-621q-27 -2 -11 -42l72 -188q24 -30 38 -30h630q13 1 16 30zM540 1h-461q-79 0 -125 118l-101 265q-41 102 40 102h734q75 0 116 -102l101 -265q46 -118 -30 -118h-274z" />
    <glyph glyph-name="P" unicode="P" horiz-adv-x="984" 
d="M622 374h-666l29 -74h668q17 14 8 35q-8 21 -39 39zM395 196h-370l75 -195h-100l-187 485h822q69 0 107 -99l32 -81q42 -110 -27 -110h-352z" />
    <glyph glyph-name="Q" unicode="Q" 
d="M732 146l-72 188q-8 20 -22 29t-30 13h-619q-29 -2 -13 -42l72 -188q24 -30 38 -30h261l-46 120h102l46 -120h267zM540 1h-469q-71 0 -117 118l-101 265q-41 102 31 102h743q75 0 116 -102l101 -265q46 -118 -30 -118h-274z" />
    <glyph glyph-name="R" unicode="R" 
d="M891 1h-106l-154 195h-606l75 -195h-100l-187 485h822q69 0 107 -99l32 -81q42 -110 -27 -110h-8zM624 374h-668l28 -72h666q20 11 12 35q-8 21 -38 37z" />
    <glyph glyph-name="S" unicode="S" 
d="M844 119q46 -118 -32 -118h-812l-46 119h758q9 6 12.5 16t4.5 17q-15 41 -44 43h-690q-71 1 -111 107l-32 82q-39 101 32 101h819l44 -114h-767q-9 0 -12 -10.5t4 -27.5q6 -16 16 -23.5t19 -7.5h689q78 0 120 -109z" />
    <glyph glyph-name="T" unicode="T" horiz-adv-x="984" 
d="M494 1l-144 373h396l-42 110h-890l42 -110h392l144 -373h102z" />
    <glyph glyph-name="U" unicode="U" 
d="M732 146l-131 340h102l141 -367q46 -118 -30 -118h-743q-71 0 -117 118l-141 367h104l131 -340q24 -30 35 -30h628z" />
    <glyph glyph-name="V" unicode="V" 
d="M573 486l-193 -372l-437 372h-130l556 -484h106l228 484h-130z" />
    <glyph glyph-name="W" unicode="W" 
d="M308 485l-103 1l144 -373h-262q-15 3 -39 33l-131 340h-104l141 -367q46 -118 117 -118h743q76 0 30 118l-141 367h-102l131 -340l-15 -33h-266z" />
    <glyph glyph-name="X" unicode="X" 
d="M-4 250l4 -249h106l4 195h521l154 -195h106l-192 251l5 234h-106l-2 -184h-533l-144 184h-106z" />
    <glyph glyph-name="Y" unicode="Y" horiz-adv-x="984" 
d="M493 2l-101 -1l-75 195h-320q-72 0 -117 116l-67 174h100l56 -146q20 -38 53 -38h628q20 12 12 47l-53 137h95l70 -180q42 -110 -27 -110h-328z" />
    <glyph glyph-name="Z" unicode="Z" 
d="M-46 119l46 -118h890l-46 119h-788l-13 33q-15 42 12 43h690q69 2 29 107l-71 183h-890l44 -114h796l11 -28q-5 -41 -16 -42h-686q-78 -2 -36 -108z" />
    <glyph glyph-name="bracketleft" unicode="[" horiz-adv-x="318" 
d="M257 -86h-149q-75 0 -137 161l-142 370q-54 141 23 141h147l50 -130h-102q6 -57 15 -86l94 -244l44 -78h106z" />
    <glyph glyph-name="backslash" unicode="\" horiz-adv-x="606" 
d="M511 2h-142l-555 482h149z" />
    <glyph glyph-name="bracketright" unicode="]" horiz-adv-x="318" 
d="M33 -86h149q75 0 13 161l-142 370q-54 141 -131 141h-147l50 -130h102q40 -60 51 -86l94 -244l16 -78h-106z" />
    <glyph glyph-name="FL005Eh" unicode="^" horiz-adv-x="710" 
d="M50 192l82 224l238 -224h128l-289 296h-184l-103 -296h128z" />
    <glyph glyph-name="underscore" unicode="_" horiz-adv-x="839" 
d="M55 -140h838l-42 110h-838z" />
    <glyph glyph-name="grave" unicode="`" horiz-adv-x="194" 
d="M-54 402l11 -30l15 -102h-26l-39 102h-26q-22 0 -33 26l-24 62q-9 26 17 26h47q25 0 37 -30z" />
    <glyph glyph-name="a" unicode="a" 
d="M891 1h-107l-75 195h-684l75 -195h-100l-150 389q-34 94 60 94h710q85 0 124 -101zM-16 302h685l-16 41q-24 25 -33 27h-638q-11 0 -14 -26z" />
    <glyph glyph-name="b" unicode="b" 
d="M-15 300h664q5 3 8.5 11.5t-4.5 31.5q-27 27 -37 31h-660zM487 116h226q10 22 3 50q-27 30 -41 30h-650l30 -80h432zM817 2l-13 -1h-803l-186 483h813q77 0 116 -101l31 -80q20 -54 0 -76q45 -42 57 -77l25 -63q31 -85 -38 -85h-2z" />
    <glyph glyph-name="c" unicode="c" 
d="M890 1h-813q-77 0 -122 117l-102 264q-38 101 39 101h813l42 -111h-770q-5 -27 1 -44l67 -174l21 -30h776z" />
    <glyph glyph-name="d" unicode="d" 
d="M55 122h672v32l-67 174q-9 19 -34 46h-668zM-48 126l-137 357h813q77 0 115 -101l102 -264q45 -117 -32 -117h-813z" />
    <glyph glyph-name="e" unicode="e" horiz-adv-x="984" 
d="M890 1h-889l-186 483h889l42 -110h-788l29 -74h788l40 -104h-788l28 -74h788z" />
    <glyph glyph-name="f" unicode="f" horiz-adv-x="984" 
d="M102 1h-101l-186 483h889l42 -110h-788l29 -74h788l40 -104h-788z" />
    <glyph glyph-name="g" unicode="g" 
d="M732 146l-45 116h102l55 -143q46 -118 -30 -118h-743q-71 0 -117 118l-101 265q-41 102 31 102h819l43 -110h-759q-27 -2 -11 -42l72 -188q24 -28 35 -28h632z" />
    <glyph glyph-name="h" unicode="h" 
d="M892 1h-102l-75 195h-690l75 -195h-101l-186 483h101l71 -184h690l-70 183h102z" />
    <glyph glyph-name="i" unicode="i" horiz-adv-x="194" 
d="M-16 302l116 -301h-101l-186 483h101z" />
    <glyph glyph-name="j" unicode="j" 
d="M0 1h813q77 0 32 117l-141 366h-104l127 -330l-2 -32h-772z" />
    <glyph glyph-name="k" unicode="k" 
d="M705 248l-1 238h-106l-2 -184h-612l-71 184h-100l187 -485h100l-75 195h610l150 -195h106z" />
    <glyph glyph-name="l" unicode="l" horiz-adv-x="984" 
d="M890 1l-46 119h-788l-140 364h-101l186 -483h889z" />
    <glyph glyph-name="m" unicode="m" 
d="M493 2l-101 -1l-144 373h-262q-13 -3 -13 -33l131 -340h-104l-141 367q-46 118 25 118h743q76 0 122 -118l141 -367h-102l-131 340q-27 28 -41 33h-266z" />
    <glyph glyph-name="n" unicode="n" 
d="M657 342l131 -341h102l-141 367q-46 118 -122 118h-743q-71 0 -25 -118l141 -367h104l-131 340q0 30 13 33h630q13 -4 41 -32z" />
    <glyph glyph-name="o" unicode="o" 
d="M732 146l-72 188q-8 20 -22 29t-30 13h-621q-27 -2 -11 -42l72 -188q24 -30 38 -30h630q13 1 16 30zM540 1h-461q-79 0 -125 118l-101 265q-41 102 40 102h734q75 0 116 -102l101 -265q46 -118 -30 -118h-274z" />
    <glyph glyph-name="p" unicode="p" horiz-adv-x="984" 
d="M622 374h-666l29 -74h668q17 14 8 35q-8 21 -39 39zM395 196h-370l75 -195h-100l-187 485h822q69 0 107 -99l32 -81q42 -110 -27 -110h-352z" />
    <glyph glyph-name="q" unicode="q" horiz-adv-x="984" 
d="M-19 374h666l29 -74h-668q-14 7 -22.5 15.5t-13.5 19.5q-8 21 9 39zM346 196h370l75 -195h100l-187 485h-822q-69 0 -31 -99l32 -81q42 -110 111 -110h352z" />
    <glyph glyph-name="r" unicode="r" 
d="M891 1h-106l-154 195h-606l75 -195h-100l-187 485h822q69 0 107 -99l32 -81q42 -110 -27 -110h-8zM624 374h-668l28 -72h666q20 11 12 35q-8 21 -38 37z" />
    <glyph glyph-name="s" unicode="s" 
d="M844 119q46 -118 -32 -118h-812l-46 119h758q9 6 12.5 16t4.5 17q-15 41 -44 43h-690q-71 1 -111 107l-32 82q-39 101 32 101h819l44 -114h-767q-9 0 -12 -10.5t4 -27.5q6 -16 16 -23.5t19 -7.5h689q78 0 120 -109z" />
    <glyph glyph-name="t" unicode="t" horiz-adv-x="984" 
d="M494 1l-144 373h396l-42 110h-890l42 -110h392l144 -373h102z" />
    <glyph glyph-name="u" unicode="u" 
d="M732 146l-131 340h102l141 -367q46 -118 -30 -118h-743q-71 0 -117 118l-141 367h104l131 -340q24 -30 35 -30h628z" />
    <glyph glyph-name="v" unicode="v" 
d="M573 486l-193 -372l-437 372h-130l556 -484h106l228 484h-130z" />
    <glyph glyph-name="w" unicode="w" 
d="M308 485l-103 1l144 -373h-262q-15 3 -39 33l-131 340h-104l141 -367q46 -118 117 -118h743q76 0 30 118l-141 367h-102l131 -340l-15 -33h-266z" />
    <glyph glyph-name="x" unicode="x" 
d="M-4 250l4 -249h106l4 195h521l154 -195h106l-192 251l5 234h-106l-2 -184h-533l-144 184h-106z" />
    <glyph glyph-name="y" unicode="y" horiz-adv-x="984" 
d="M494 1h-102l-75 195h-320q-72 0 -117 116l-67 174h100l56 -146q20 -38 53 -38h628q20 12 12 47l-53 137h95l70 -180q42 -110 -27 -110h-328z" />
    <glyph glyph-name="z" unicode="z" 
d="M-45 116l45 -115h890l-46 119h-598l500 256l-43 110h-890l44 -114h590z" />
    <glyph glyph-name="FL007Bh" unicode="{" horiz-adv-x="272" 
d="M12 250l188 -249h-106l-154 195l-35 49l2 241h106z" />
    <glyph glyph-name="FL007Ch" unicode="|" horiz-adv-x="194" 
d="M-16 302l146 -379h-101l-247 643h101z" />
    <glyph glyph-name="FL007Dh" unicode="}" horiz-adv-x="272" 
d="M-4 250l4 -249h106l4 195l-3 49l-188 241h-106z" />
    <glyph glyph-name="asciitilde" unicode="~" horiz-adv-x="569" 
 />
    <glyph glyph-name="FL00A1h" unicode="&#xa1;" horiz-adv-x="190" 
d="M-26 334l-103 1l128 -333h102zM-173 456q-12 30 16 30h48q24 0 33 -26l24 -62q11 -26 -17 -26h-47q-26 0 -36 30z" />
    <glyph glyph-name="FL00A2h" unicode="&#xa2;" 
d="M469 124l-95 248h373l-42 111h-373l-31 80h-100l30 -80h-339q-77 0 -39 -101l102 -264q45 -117 122 -117h339l26 -70h101l-26 70h373l-48 123h-373zM45 154l-67 174q-6 19 -1 44h296l95 -248h-302z" />
    <glyph glyph-name="FL00A3h" unicode="&#xa3;" horiz-adv-x="500" 
d="M63 0h375l-313 815h-375zM101 63l-265 690h250l265 -690h-250z" />
    <glyph glyph-name="FL00A4h" unicode="&#xa4;" horiz-adv-x="393" 
d="M151 428q-9 10 -16 12h-252q-5 0 -5 -12l29 -76q6 -16 16 -16h249q5 2 8 5t0 11zM134 486h5q31 0 49 -48l41 -106q15 -40 -15 -40h-298q-28 0 -43 40l-41 106q-18 48 9 48h293z" />
    <glyph glyph-name="FL00A5h" unicode="&#xa5;" horiz-adv-x="984" 
d="M613 70h-146l27 -69h-102l-27 69h-143l-40 104h143l-8 22h-320q-72 0 -117 116l-67 174h100l56 -146q20 -38 53 -38h628q20 12 12 47l-53 137h95l70 -180q42 -110 -27 -110h-328l8 -22h146z" />
    <glyph glyph-name="FL00A6h" unicode="&#xa6;" horiz-adv-x="194" 
d="M-16 302l146 -379h-101l-247 643h101z" />
    <glyph glyph-name="FL00A7h" unicode="&#xa7;" 
d="M844 119q46 -118 -32 -118h-812l-46 119h331q-54 32 -86 76h-204q-71 1 -111 107l-32 82q-39 101 32 101h819l44 -114h-301q40 -27 74 -69h176q78 0 120 -109zM-28 334q6 -16 16 -23.5t19 -7.5h151q-3 40 20 69h-198q-9 0 -12 -10.5t4 -27.5zM685 196h-125q0 -45 -28 -76
h180q9 6 12.5 16t4.5 17q-15 41 -44 43z" />
    <glyph glyph-name="FL00A8h" unicode="&#xa8;" horiz-adv-x="434" 
d="M-65 544l-44 115h-135l44 -115h135zM7 544h135l-44 115h-135z" />
    <glyph glyph-name="FL00A9h" unicode="&#xa9;" 
d="M732 146l-72 188q-8 20 -22 29t-30 13h-621q-27 -2 -11 -42l72 -188q24 -30 38 -30h630q13 1 16 30zM540 1h-469q-71 0 -117 118l-101 265q-41 102 31 102h743q75 0 116 -102l101 -265q46 -118 -30 -118h-274zM559 151h-325q-31 0 -49 47l-41 106q-15 40 16 40h325
l17 -44h-308q-2 -11 1 -18l26 -69l9 -12h310z" />
    <glyph glyph-name="FL00AAh" unicode="&#xaa;" horiz-adv-x="428" 
d="M253 292l-59 153q-15 41 -50 41h-284q-38 0 -23 -38l60 -156h40l-30 78h274l30 -78h42zM-110 413l-6 17q3 10 6 10h255q4 0 13 -11l6 -16h-274z" />
    <glyph glyph-name="FL00ABh" unicode="&#xab;" horiz-adv-x="487" 
d="M12 250l1 236h-106l-2 -241l189 -244h106zM225 251l1 236h-106l-2 -241l188 -244h106z" />
    <glyph glyph-name="FL00ACh" unicode="&#xac;" horiz-adv-x="484" 
d="M205 195l-279 1l-40 104h395l76 -198h-116z" />
    <glyph glyph-name="FL00ADh" unicode="&#xad;" horiz-adv-x="484" 
d="M317 196h-391l-40 104h391z" />
    <glyph glyph-name="FL00AEh" unicode="&#xae;" 
d="M732 146l-72 188q-8 20 -22 29t-30 13h-621q-27 -2 -11 -42l72 -188q24 -30 38 -30h630q13 1 16 30zM540 1h-469q-71 0 -117 118l-101 265q-41 102 31 102h743q75 0 116 -102l101 -265q46 -118 -30 -118h-274zM564 148h-42l-62 78h-242l30 -78h-40l-74 194h329
q27 0 42 -39l12 -33q17 -44 -10 -44h-3zM458 298h-267l11 -29h266q8 4 4 14q-3 10 -14 15z" />
    <glyph glyph-name="FL00AFh" unicode="&#xaf;" horiz-adv-x="476" 
d="M205 485l-40 104h-391l40 -104h391z" />
    <glyph glyph-name="FL00B0h" unicode="&#xb0;" horiz-adv-x="417" 
d="M151 428q-9 10 -16 12h-252q-5 0 -5 -12l29 -76q6 -16 16 -16h249q5 2 8 5t0 11zM134 486h5q31 0 49 -48l41 -106q15 -40 -15 -40h-298q-28 0 -43 40l-41 106q-18 48 9 48h293z" />
    <glyph glyph-name="FL00B1h" unicode="&#xb1;" horiz-adv-x="984" 
d="M309 216h-391l-40 104h391l-60 156h102l60 -156h396l40 -104h-396l43 -111h-102zM10 4l-28 74h874l28 -74h-874z" />
    <glyph glyph-name="FL00B2h" unicode="&#xb2;" horiz-adv-x="421" 
d="M187 439l12 -30q16 -43 -14 -43h-287l10 -28h318l18 -46h-356l-45 116h304q11 2 4 18q-3 2 -6.5 6.5t-10.5 6.5h-303l-18 47h325q32 0 49 -47z" />
    <glyph glyph-name="FL00B3h" unicode="&#xb3;" horiz-adv-x="413" 
d="M-169 440l-18 46h327q30 0 42 -34l10 -24v-2q6 -13 1 -31q14 -8 23 -30l12 -32q17 -41 -14 -41h-326l-17 44h304q4 4 5 13q-4 9 -7.5 12t-6.5 5h-266l-17 42h260q6 0 8 12q-6 11 -17 20h-303z" />
    <glyph glyph-name="FL00B4h" unicode="&#xb4;" horiz-adv-x="194" 
d="M-136 354l-11 30l-16 102h26l40 -102h26q22 0 33 -26l23 -62q11 -26 -17 -26h-47q-24 0 -36 30z" />
    <glyph glyph-name="FL00B5h" unicode="&#xb5;" 
d="M732 146l-21 -30h-628q-11 0 -35 30l-131 340h-102l248 -644h100l-61 159h712q76 0 30 118l-141 367h-102z" />
    <glyph glyph-name="FL00B6h" unicode="&#xb6;" 
d="M75 2l-74 194h-8q-69 0 -111 110l-32 81q-38 99 31 99h822l43 -112h-68l144 -373h-100l-144 373h-600q-16 -18 -8 -37q8 -23 38 -35h60l115 -300h-108z" />
    <glyph glyph-name="FL00B7h" unicode="&#xb7;" horiz-adv-x="178" 
d="M6 246l-21 54q-12 30 -37 30h-47q-26 0 -17 -26l24 -62q11 -26 33 -26h48q27 0 17 30z" />
    <glyph glyph-name="FL00B8h" unicode="&#xb8;" horiz-adv-x="289" 
d="M127 2h7l3 -7h1q8 0 16.5 -6.5t11.5 -14.5l2 -2q3 -2 6.5 -4.5t6.5 -2.5l3 1q0 -3 3 -10l4 -11l15 -34q5 -11 5.5 -20.5t-7.5 -16.5l3 -8h-7l4 -9q1 -6 -2 -6l-3 1q-8 -9 -20 -11.5t-26 -2.5h-34l-11 28h-7l-6 15q-3 8 2 8l3 -1l-3 7h9q6 0 5 4l-2 3l18 7l-3 7h7l-2 7h8
l-9 26q-4 10 -9.5 17.5t-16.5 7.5l-7 -1q-19 11 -25 28l-2 8l38 1z" />
    <glyph glyph-name="FL00B9h" unicode="&#xb9;" horiz-adv-x="418" 
d="M-112 293h356l-19 48h-158l-56 145h-198l17 -44h157l39 -101h-157z" />
    <glyph glyph-name="FL00BAh" unicode="&#xba;" horiz-adv-x="417" 
d="M151 428q-9 10 -16 12h-252q-5 0 -5 -12l29 -76q6 -16 16 -16h249q5 2 8 5t0 11zM134 486h5q31 0 49 -48l41 -106q15 -40 -15 -40h-298q-28 0 -43 40l-41 106q-18 48 9 48h293z" />
    <glyph glyph-name="FL00BBh" unicode="&#xbb;" horiz-adv-x="487" 
d="M208 250l-183 236h106l188 -241l-1 -244h-106zM-5 251l-183 236h106l188 -241l-2 -244h-106z" />
    <glyph glyph-name="FL00BCh" unicode="&#xbc;" horiz-adv-x="922" 
d="M182 0l196 484h137l-191 -484h-142zM-73 292l-19 48h157l-38 101h-157l-17 44h198l55 -145h158l19 -48h-356zM853 14h-39l-30 78h-318l-45 116h40l28 -73h278l-27 72h39z" />
    <glyph glyph-name="FL00BDh" unicode="&#xbd;" horiz-adv-x="922" 
d="M182 0l196 484h137l-191 -484h-142zM-73 292l-19 48h157l-38 101h-157l-17 44h198l55 -145h158l19 -48h-356zM788 153l12 -30q16 -43 -15 -43h-287l11 -28h318l18 -46h-356l-45 116h304q10 1 4 18q-3 2 -7 6.5t-10 6.5h-303l-18 47h325q31 0 49 -47z" />
    <glyph glyph-name="FL00BEh" unicode="&#xbe;" horiz-adv-x="922" 
d="M182 0l196 484h137l-191 -484h-142zM853 14h-39l-30 78h-318l-45 116h40l28 -73h278l-27 72h39zM-99 315h303q4 9 1 20q-11 12 -16 12h-260l-16 42h266q2 2 3.5 5t-2.5 12q-11 11 -15 13h-304l-17 44h326q31 0 46 -41l12 -32q9 -22 1 -30q17 -17 23 -31v-2l10 -24
q13 -34 -16 -34h-327z" />
    <glyph glyph-name="FL00BFh" unicode="&#xbf;" 
d="M762 334l-103 1q16 -42 -11 -43h-690q-69 -1 -29 -107l31 -82q39 -101 110 -101h819l-44 114h-767q-9 0 -19.5 10.5t-17.5 27.5q-6 16 -2 23.5t13 7.5h689q78 0 36 109zM615 456q-12 30 16 30h48q24 0 33 -26l24 -62q11 -26 -17 -26h-47q-26 0 -36 30z" />
    <glyph glyph-name="FL00C0h" unicode="&#xc0;" 
d="M891 1l-147 382q-39 101 -124 101h-710q-94 0 -60 -94l150 -389h100l-75 195h684l75 -195h107zM-16 302l-16 42q3 26 14 26h638q9 -2 33 -27l16 -41h-685zM143 624l12 -30l50 -67h56l-26 66h26q24 0 13 26l-12 33q-11 26 -38 27h-77q-25 0 -13 -30z" />
    <glyph glyph-name="Aacute" unicode="&#xc1;" 
d="M891 1h-107l-75 195h-684l75 -195h-100l-150 389q-34 94 60 94h710q85 0 124 -101zM-16 302h685l-16 41q-24 25 -33 27h-638q-11 0 -14 -26zM272 624l12 -30l2 -67h-56l-26 66h-26q-22 0 -33 26l-12 33q-10 25 16 27h77q25 0 37 -30z" />
    <glyph glyph-name="FL00C2h" unicode="&#xc2;" 
d="M891 1l-147 382q-39 101 -124 101h-355h-355q-94 0 -60 -94l150 -389h100l-75 195h684l75 -195h107zM-16 302l-16 42q3 26 14 26h638q9 -2 33 -27l16 -41h-685zM154 532l55 96l125 -96l141 -1l-204 145l-156 -1l-85 -144z" />
    <glyph glyph-name="FL00C3h" unicode="&#xc3;" 
d="M891 1l-147 382q-39 101 -124 101h-710q-94 0 -60 -94l150 -389h100l-75 195h684l75 -195h107zM-16 302l-16 42q3 26 14 26h638q9 -2 33 -27l16 -41h-685zM405 544l-44 115h-344l44 -115h344z" />
    <glyph glyph-name="FL00C4h" unicode="&#xc4;" 
d="M891 1h-107l-75 195h-684l75 -195h-100l-150 389q-34 94 60 94h710q85 0 124 -101zM-16 302h685l-16 41q-24 25 -33 27h-638q-11 0 -14 -26zM412 544h-135l-44 115h135zM203 544h-135l-44 115h135z" />
    <glyph glyph-name="FL00C5h" unicode="&#xc5;" 
d="M891 1l-147 382q-39 101 -124 101h-710q-94 0 -60 -94l150 -389h100l-75 195h684l75 -195h107zM-16 302l-16 42q3 26 14 26h638q9 -2 33 -27l16 -41h-685zM313 543l-45 115h-135l45 -115h135z" />
    <glyph glyph-name="FL00C6h" unicode="&#xc6;" horiz-adv-x="1890" 
d="M-16 302l-16 42q3 26 14 26h638q9 -2 33 -27l16 -41h-685zM1782 1l-47 121h-788l-28 74h788l-40 104h-788l-29 74h788l-42 110h-889l37 -95q-39 96 -124 95h-710q-94 0 -60 -94l150 -389h100l-75 195h684l75 -195h998z" />
    <glyph glyph-name="FL00C7h" unicode="&#xc7;" 
d="M890 1h-371v-1h1q7 0 16 -3t33 -36l4 -11l15 -34l4 -10q3 -8 0.5 -17.5t-11.5 -31.5q-8 -9 -20 -11.5t-26 -2.5h-34l-17 28l-7 15l2 14l12 7l18 7l10 14l-9 26q-4 10 -9.5 17.5t-16.5 7.5q-23 8 -30 22h-377q-77 0 -122 117l-102 264q-38 101 39 101h813l42 -111h-770
q-5 -27 1 -44l67 -174l21 -30h776z" />
    <glyph glyph-name="FL00C8h" unicode="&#xc8;" horiz-adv-x="984" 
d="M890 1l-47 121h-788l-28 74h788l-40 104h-788l-29 74h788l-42 110h-889l186 -483h889zM143 624l12 -30l50 -67h56l-26 66h26q24 0 13 26l-12 33q-11 26 -38 27h-77q-25 0 -13 -30z" />
    <glyph glyph-name="FL00C9h" unicode="&#xc9;" horiz-adv-x="984" 
d="M890 1l-47 121h-788l-28 74h788l-40 104h-788l-29 74h788l-42 110h-889l186 -483h889zM272 624l-9 25q-12 30 -37 30h-77q-26 -2 -16 -27l12 -33q11 -26 33 -26h26l26 -66h56l-2 67z" />
    <glyph glyph-name="FL00CAh" unicode="&#xca;" horiz-adv-x="984" 
d="M890 1l-47 121h-788l-28 74h788l-40 104h-788l-29 74h788l-42 110h-889l186 -483h889zM154 532l55 96l125 -96l141 -1l-204 145l-156 -1l-85 -144z" />
    <glyph glyph-name="FL00CBh" unicode="&#xcb;" horiz-adv-x="984" 
d="M890 1l-47 121h-788l-28 74h788l-40 104h-788l-29 74h788l-42 110h-889l186 -483h889zM203 544l-44 115h-135l44 -115h135zM412 544l-44 115h-135l44 -115h135z" />
    <glyph glyph-name="FL00CCh" unicode="&#xcc;" horiz-adv-x="984" 
d="M-1 2h890l-46 120h-396l-97 252h396l-42 110h-890l42 -110h392l97 -252h-392zM143 624l12 -30l50 -67h56l-26 66h26q24 0 13 26l-12 33q-11 26 -38 27h-77q-25 0 -13 -30z" />
    <glyph glyph-name="FL00CDh" unicode="&#xcd;" horiz-adv-x="984" 
d="M-1 2h890l-46 120h-396l-97 252h396l-42 110h-890l42 -110h392l97 -252h-392zM272 624l-9 25q-12 30 -37 30h-77q-26 -2 -16 -27l12 -33q11 -26 33 -26h26l26 -66h56l-2 67z" />
    <glyph glyph-name="FL00CEh" unicode="&#xce;" horiz-adv-x="984" 
d="M-1 2h890l-46 120h-396l-97 252h396l-42 110h-890l42 -110h392l97 -252h-392zM154 532l55 96l125 -96l141 -1l-204 145l-156 -1l-85 -144z" />
    <glyph glyph-name="FL00CFh" unicode="&#xcf;" horiz-adv-x="984" 
d="M-1 2h890l-46 120h-396l-97 252h396l-42 110h-890l42 -110h392l97 -252h-392zM203 544l-44 115h-135l44 -115h135zM412 544l-44 115h-135l44 -115h135z" />
    <glyph glyph-name="FL00D0h" unicode="&#xd0;" horiz-adv-x="1100" 
d="M58 190h-132l-40 104h132l-72 189h813q77 0 115 -101l102 -264q45 -117 -32 -117h-813zM317 190h-157l26 -68h672v32l-67 174q-9 19 -34 46h-668l31 -80h157z" />
    <glyph glyph-name="FL00D1h" unicode="&#xd1;" 
d="M657 342q-28 27 -41 32h-630q-13 -3 -13 -33l131 -340h-104l-141 367q-46 118 25 118h743q76 0 122 -118l141 -367h-102zM405 544l-44 115h-344l44 -115h344z" />
    <glyph glyph-name="FL00D2h" unicode="&#xd2;" 
d="M732 146q-3 -29 -16 -30h-630q-14 0 -38 30l-72 188q-16 40 11 42h621q16 -4 30 -13t22 -29zM540 1h274q76 0 30 118l-101 265q-41 102 -116 102h-734q-81 0 -40 -102l101 -265q46 -118 125 -118h461zM143 624l12 -30l50 -67h56l-26 66h26q24 0 13 26l-12 33
q-11 26 -38 27h-77q-25 0 -13 -30z" />
    <glyph glyph-name="FL00D3h" unicode="&#xd3;" 
d="M732 146q-3 -29 -16 -30h-630q-14 0 -38 30l-72 188q-16 40 11 42h621q16 -4 30 -13t22 -29zM540 1h274q76 0 30 118l-101 265q-41 102 -116 102h-734q-81 0 -40 -102l101 -265q46 -118 125 -118h461zM272 624l-9 25q-12 30 -37 30h-77q-26 -2 -16 -27l12 -33
q11 -26 33 -26h26l26 -66h56l-2 67z" />
    <glyph glyph-name="FL00D4h" unicode="&#xd4;" 
d="M732 146q-3 -29 -16 -30h-630q-14 0 -38 30l-72 188q-16 40 11 42h621q16 -4 30 -13t22 -29zM540 1h274q76 0 30 118l-101 265q-41 102 -116 102h-734q-81 0 -40 -102l101 -265q46 -118 125 -118h461zM154 532l55 96l125 -96l141 -1l-204 145l-156 -1l-85 -144z" />
    <glyph glyph-name="FL00D5h" unicode="&#xd5;" 
d="M732 146q-3 -29 -16 -30h-630q-14 0 -38 30l-72 188q-16 40 11 42h621q16 -4 30 -13t22 -29zM540 1h274q76 0 30 118l-101 265q-41 102 -116 102h-734q-81 0 -40 -102l101 -265q46 -118 125 -118h461zM405 544l-44 115h-344l44 -115h344z" />
    <glyph glyph-name="FL00D6h" unicode="&#xd6;" 
d="M732 146q-3 -29 -16 -30h-630q-14 0 -38 30l-72 188q-16 40 11 42h621q16 -4 30 -13t22 -29zM540 1h274q76 0 30 118l-101 265q-41 102 -116 102h-734q-81 0 -40 -102l101 -265q46 -118 125 -118h461zM203 544l-44 115h-135l44 -115h135zM412 544l-44 115h-135l44 -115
h135z" />
    <glyph glyph-name="FL00D7h" unicode="&#xd7;" horiz-adv-x="473" 
d="M-4 250l4 -249h106l4 195h13l154 -195h106l-192 251l5 234h-106l-2 -184h-25l-144 184h-106z" />
    <glyph glyph-name="FL00D8h" unicode="&#xd8;" 
d="M728 150q1 -33 -14 -36h-508l452 220zM540 1h274q76 0 30 118l-101 265q-41 102 -116 102h-734q-81 0 -40 -102l101 -265q46 -118 125 -118h461zM513 378l-470 -224l-68 176q-15 44 14 48h524z" />
    <glyph glyph-name="FL00D9h" unicode="&#xd9;" 
d="M732 146l-21 -30h-628q-11 0 -35 30l-131 340h-104l141 -367q46 -118 117 -118h743q76 0 30 118l-141 367h-102zM143 624l12 -30l50 -67h56l-26 66h26q24 0 13 26l-12 33q-11 26 -38 27h-77q-25 0 -13 -30z" />
    <glyph glyph-name="FL00DAh" unicode="&#xda;" 
d="M732 146l-21 -30h-628q-11 0 -35 30l-131 340h-104l141 -367q46 -118 117 -118h743q76 0 30 118l-141 367h-102zM272 624l-9 25q-12 30 -37 30h-77q-26 -2 -16 -27l12 -33q11 -26 33 -26h26l26 -66h56l-2 67z" />
    <glyph glyph-name="FL00DBh" unicode="&#xdb;" 
d="M732 146l-21 -30h-628q-11 0 -35 30l-131 340h-104l141 -367q46 -118 117 -118h743q76 0 30 118l-141 367h-102zM154 532l55 96l125 -96l141 -1l-204 145l-156 -1l-85 -144z" />
    <glyph glyph-name="FL00DCh" unicode="&#xdc;" 
d="M732 146l-21 -30h-628q-11 0 -35 30l-131 340h-104l141 -367q46 -118 117 -118h743q76 0 30 118l-141 367h-102zM203 544l-44 115h-135l44 -115h135zM412 544l-44 115h-135l44 -115h135z" />
    <glyph glyph-name="FL00DDh" unicode="&#xdd;" horiz-adv-x="984" 
d="M494 1l-75 195h328q69 0 27 110l-70 180h-95l53 -137q8 -35 -12 -47h-628q-33 0 -53 38l-56 146h-100l67 -174q45 -116 117 -116h320l75 -195h102zM143 624l12 -30l50 -67h56l-26 66h26q24 0 13 26l-12 33q-11 26 -38 27h-77q-25 0 -13 -30z" />
    <glyph glyph-name="FL00DEh" unicode="&#xde;" horiz-adv-x="724" 
d="M-16 296h439l10 -8t7 -9l26 -69l-1 -12l-443 -1zM61 101h488q46 0 19 70l-60 158q-24 61 -70 61h-488l-36 94h-101l186 -483h101z" />
    <glyph glyph-name="FL00DFh" unicode="&#xdf;" 
d="M105 300l40 -104h530q14 0 41 -30q7 -28 -3 -50h-538l43 -112l599 -2h2q69 0 38 85l-25 63q-14 37 -57 77q20 22 0 76l-31 80q-39 101 -116 101h-813l186 -483l97 3l-43 112l-99 258h660q10 -4 37 -31q8 -23 4.5 -31.5t-8.5 -11.5h-544z" />
    <glyph glyph-name="FL00E0h" unicode="&#xe0;" 
d="M891 1l-147 382q-39 101 -124 101h-710q-94 0 -60 -94l150 -389h100l-75 195h684l75 -195h107zM-16 302l-16 42q3 26 14 26h638q9 -2 33 -27l16 -41h-685zM143 624l12 -30l50 -67h56l-26 66h26q24 0 13 26l-12 33q-11 26 -38 27h-77q-25 0 -13 -30z" />
    <glyph glyph-name="FL00E1h" unicode="&#xe1;" 
d="M891 1l-147 382q-39 101 -124 101h-710q-94 0 -60 -94l150 -389h100l-75 195h684l75 -195h107zM-16 302l-16 42q3 26 14 26h638q9 -2 33 -27l16 -41h-685zM272 624l-9 25q-12 30 -37 30h-77q-26 -2 -16 -27l12 -33q11 -26 33 -26h26l26 -66h56l-2 67z" />
    <glyph glyph-name="FL00E2h" unicode="&#xe2;" 
d="M891 1l-147 382q-39 101 -124 101h-710q-94 0 -60 -94l150 -389h100l-75 195h684l75 -195h107zM-16 302l-16 42q3 26 14 26h638q9 -2 33 -27l16 -41h-685zM154 532l55 96l125 -96l141 -1l-204 145l-156 -1l-85 -144z" />
    <glyph glyph-name="FL00E3h" unicode="&#xe3;" 
d="M891 1l-147 382q-39 101 -124 101h-710q-94 0 -60 -94l150 -389h100l-75 195h684l75 -195h107zM-16 302l-16 42q3 26 14 26h638q9 -2 33 -27l16 -41h-685zM405 544l-44 115h-344l44 -115h344z" />
    <glyph glyph-name="FL00E4h" unicode="&#xe4;" 
d="M891 1h-107l-75 195h-684l75 -195h-100l-150 389q-34 94 60 94h710q85 0 124 -101zM-16 302h685l-16 41q-24 25 -33 27h-638q-11 0 -14 -26zM412 544h-135l-44 115h135zM203 544h-135l-44 115h135z" />
    <glyph glyph-name="FL00E5h" unicode="&#xe5;" 
d="M891 1l-147 382q-39 101 -124 101h-710q-94 0 -60 -94l150 -389h100l-75 195h684l75 -195h107zM-16 302l-16 42q3 26 14 26h638q9 -2 33 -27l16 -41h-685zM312 549l-44 115h-135l44 -115h135z" />
    <glyph glyph-name="FL00E6h" unicode="&#xe6;" horiz-adv-x="1890" 
d="M1682 1l-47 121h-788l-28 74h788l-40 104h-788l-29 74h788l-42 110h-858l17 -44q-12 -12 -81 44h-664q-94 0 -60 -94l150 -389h100l-75 195h684l75 -195h898zM-16 302l-16 42q3 26 14 26h638q9 -2 33 -27l16 -41h-685z" />
    <glyph glyph-name="FL00E7h" unicode="&#xe7;" 
d="M890 1h-813q-77 0 -122 117l-102 264q-38 101 39 101h813l42 -111h-770q-5 -27 1 -44l67 -174l21 -30h776zM509 7l-63 15l4 -8l2 -8q6 -17 25 -28l7 1q11 0 16.5 -7.5t9.5 -17.5l9 -26h-8l2 -7h-7l3 -7l-18 -7l2 -3q1 -4 -5 -4h-9l3 -7l-3 1q-5 0 -2 -8l7 -15h7l10 -28
h34q14 0 26 2.5t20 11.5l3 -1q5 0 2 6l-3 9h7l-4 8q8 7 7.5 16.5t-5.5 20.5l-15 34l-4 11q-1 2 -2 5t-1 5l-2 -1q-3 0 -7 2.5t-7 4.5l-2 1v1q-3 8 -11.5 14.5t-16.5 6.5h-1l-3 7h-7z" />
    <glyph glyph-name="FL00E8h" unicode="&#xe8;" horiz-adv-x="984" 
d="M890 1l-47 121h-788l-28 74h788l-40 104h-788l-29 74h788l-42 110h-889l186 -483h889zM143 624l-9 25q-12 30 13 30h77q27 -1 38 -27l12 -33q11 -26 -13 -26h-26l26 -66h-56l-50 67z" />
    <glyph glyph-name="FL00E9h" unicode="&#xe9;" horiz-adv-x="984" 
d="M890 1l-47 121h-788l-28 74h788l-40 104h-788l-29 74h788l-42 110h-889l186 -483h889zM272 624l-9 25q-12 30 -37 30h-77q-26 -2 -16 -27l12 -33q11 -26 33 -26h26l26 -66h56l-2 67z" />
    <glyph glyph-name="FL00EAh" unicode="&#xea;" horiz-adv-x="984" 
d="M890 1l-47 121h-788l-28 74h788l-40 104h-788l-29 74h788l-42 110h-889l186 -483h889zM154 532l55 96l125 -96l141 -1l-204 145l-156 -1l-85 -144z" />
    <glyph glyph-name="FL00EBh" unicode="&#xeb;" horiz-adv-x="984" 
d="M890 1h-889l-186 483h889l42 -110h-788l29 -74h788l40 -104h-788l28 -74h788zM415 553h-135l-44 115h135zM206 553h-135l-44 115h135z" />
    <glyph glyph-name="FL00ECh" unicode="&#xec;" horiz-adv-x="984" 
d="M-1 2h890l-46 120h-396l-97 252h396l-42 110h-890l42 -110h392l97 -252h-392zM143 624l-9 25q-12 30 13 30h77q27 -1 38 -27l12 -33q11 -26 -13 -26h-26l26 -66h-56l-50 67z" />
    <glyph glyph-name="FL00EDh" unicode="&#xed;" horiz-adv-x="984" 
d="M-1 2h890l-46 120h-396l-97 252h396l-42 110h-890l42 -110h392l97 -252h-392zM272 624l-9 25q-12 30 -37 30h-77q-26 -2 -16 -27l12 -33q11 -26 33 -26h26l26 -66h56l-2 67z" />
    <glyph glyph-name="FL00EEh" unicode="&#xee;" horiz-adv-x="984" 
d="M-1 2h890l-46 120h-396l-97 252h396l-42 110h-890l42 -110h392l97 -252h-392zM154 532l55 96l125 -96l141 -1l-204 145l-156 -1l-85 -144z" />
    <glyph glyph-name="FL00EFh" unicode="&#xef;" horiz-adv-x="984" 
d="M-1 2h890l-46 120h-396l-97 252h396l-42 110h-890l42 -110h392l97 -252h-392zM206 553l-44 115h-135l44 -115h135zM415 553l-44 115h-135l44 -115h135z" />
    <glyph glyph-name="FL00F0h" unicode="&#xf0;" 
d="M710 198l20 -52q0 -30 -16 -30h-630l-38 30l-10 26l14 26h660zM671 300h-704q-83 0 -48 -90l35 -91q46 -118 122 -118h743q71 0 25 118l-101 265q-41 102 -111 102h-819l43 -110h759q26 -1 43 -42z" />
    <glyph glyph-name="FL00F1h" unicode="&#xf1;" 
d="M657 342l131 -341h102l-141 367q-46 118 -122 118h-743q-71 0 -25 -118l141 -367h104l-131 340q0 30 13 33h630q13 -5 41 -32zM405 544l-44 115h-344l44 -115h344z" />
    <glyph glyph-name="FL00F2h" unicode="&#xf2;" 
d="M732 146q-3 -29 -16 -30h-630q-14 0 -38 30l-72 188q-16 40 11 42h621q16 -4 30 -13t22 -29zM540 1h274q76 0 30 118l-101 265q-41 102 -116 102h-734q-81 0 -40 -102l101 -265q46 -118 125 -118h461zM143 624l-9 25q-12 30 13 30h77q27 -1 38 -27l12 -33q11 -26 -13 -26
h-26l26 -66h-56l-50 67z" />
    <glyph glyph-name="FL00F3h" unicode="&#xf3;" 
d="M732 146q-3 -29 -16 -30h-630q-14 0 -38 30l-72 188q-16 40 11 42h621q16 -4 30 -13t22 -29zM540 1h274q76 0 30 118l-101 265q-41 102 -116 102h-734q-81 0 -40 -102l101 -265q46 -118 125 -118h461zM272 624l12 -30l2 -67h-56l-26 66h-26q-22 0 -33 26l-12 33
q-10 25 16 27h77q25 0 37 -30z" />
    <glyph glyph-name="FL00F4h" unicode="&#xf4;" 
d="M732 146q-3 -29 -16 -30h-630q-14 0 -38 30l-72 188q-16 40 11 42h621q16 -4 30 -13t22 -29zM540 1h274q76 0 30 118l-101 265q-41 102 -116 102h-734q-81 0 -40 -102l101 -265q46 -118 125 -118h461zM154 532l55 96l125 -96l141 -1l-204 145l-156 -1l-85 -144z" />
    <glyph glyph-name="FL00F5h" unicode="&#xf5;" 
d="M732 146q-3 -29 -16 -30h-630q-14 0 -38 30l-72 188q-16 40 11 42h621q16 -4 30 -13t22 -29zM540 1h274q76 0 30 118l-101 265q-41 102 -116 102h-734q-81 0 -40 -102l101 -265q46 -118 125 -118h461zM405 544l-44 115h-344l44 -115h344z" />
    <glyph glyph-name="FL00F6h" unicode="&#xf6;" 
d="M732 146q-3 -29 -16 -30h-630q-14 0 -38 30l-72 188q-16 40 11 42h621q16 -4 30 -13t22 -29zM540 1h274q76 0 30 118l-101 265q-41 102 -116 102h-734q-81 0 -40 -102l101 -265q46 -118 125 -118h461zM206 553l-44 115h-135l44 -115h135zM415 553l-44 115h-135l44 -115
h135z" />
    <glyph glyph-name="FL00F7h" unicode="&#xf7;" horiz-adv-x="484" 
d="M317 196l-40 104h-391l40 -104h391zM133 352l-45 116h-140l45 -116h140zM254 36l-44 116h-140l44 -116h140z" />
    <glyph glyph-name="FL00F8h" unicode="&#xf8;" 
d="M728 150q1 -33 -14 -36h-508l452 220zM540 1h274q76 0 30 118l-101 265q-41 102 -116 102h-734q-81 0 -40 -102l101 -265q46 -118 125 -118h461zM513 378l-470 -224l-68 176q-15 44 14 48h524z" />
    <glyph glyph-name="FL00F9h" unicode="&#xf9;" 
d="M732 146l-21 -30h-628q-11 0 -35 30l-131 340h-104l141 -367q46 -118 117 -118h743q76 0 30 118l-141 367h-102zM143 624l-9 25q-12 30 13 30h77q27 -1 38 -27l12 -33q11 -26 -13 -26h-26l26 -66h-56l-50 67z" />
    <glyph glyph-name="FL00FAh" unicode="&#xfa;" 
d="M732 146l-21 -30h-628q-11 0 -35 30l-131 340h-104l141 -367q46 -118 117 -118h743q76 0 30 118l-141 367h-102zM272 624l-9 25q-12 30 -37 30h-77q-26 -2 -16 -27l12 -33q11 -26 33 -26h26l26 -66h56l-2 67z" />
    <glyph glyph-name="FL00FBh" unicode="&#xfb;" 
d="M732 146l-21 -30h-628q-11 0 -35 30l-131 340h-104l141 -367q46 -118 117 -118h743q76 0 30 118l-141 367h-102zM154 532l55 96l125 -96l141 -1l-204 145l-156 -1l-85 -144z" />
    <glyph glyph-name="FL00FCh" unicode="&#xfc;" 
d="M732 146l-21 -30h-628q-11 0 -35 30l-131 340h-104l141 -367q46 -118 117 -118h743q76 0 30 118l-141 367h-102zM206 553l-44 115h-135l44 -115h135zM415 553l-44 115h-135l44 -115h135z" />
    <glyph glyph-name="FL00FDh" unicode="&#xfd;" horiz-adv-x="984" 
d="M494 1l-75 195h328q69 0 27 110l-70 180h-95l53 -137q8 -35 -12 -47h-628q-33 0 -53 38l-56 146h-100l67 -174q45 -116 117 -116h320l75 -195h102zM272 624l-9 25q-12 30 -37 30h-77q-26 -2 -16 -27l12 -33q11 -26 33 -26h26l26 -66h56l-2 67z" />
    <glyph glyph-name="FL00FEh" unicode="&#xfe;" horiz-adv-x="724" 
d="M-16 296h439l10 -8t7 -9l26 -69l-1 -12l-443 -1zM61 101h488q46 0 19 70l-60 158q-24 61 -70 61h-488l-36 94h-101l186 -483h101z" />
    <glyph glyph-name="FL00FFh" unicode="&#xff;" horiz-adv-x="984" 
d="M494 1l-75 195h328q69 0 27 110l-70 180h-95l53 -137q8 -35 -12 -47h-628q-33 0 -53 38l-56 146h-100l67 -174q45 -116 117 -116h320l75 -195h102zM206 553l-44 115h-135l44 -115h135zM415 553l-44 115h-135l44 -115h135z" />
    <glyph glyph-name="FL0152h" unicode="&#x152;" horiz-adv-x="1919" 
d="M890 1h-813q-77 0 -122 117l-102 264q-38 101 39 101h813l42 -111h-770q-5 -27 1 -44l67 -174l21 -30h776zM1804 1h-889l-186 483h889l42 -110h-788l29 -74h788l40 -104h-788l28 -74h788z" />
    <glyph glyph-name="FL0153h" unicode="&#x153;" horiz-adv-x="1919" 
d="M890 1h-813q-77 0 -122 117l-102 264q-38 101 39 101h813l42 -111h-770q-5 -27 1 -44l67 -174l21 -30h776zM1804 1h-889l-186 483h889l42 -110h-788l29 -74h788l40 -104h-788l28 -74h788z" />
    <glyph glyph-name="FL0160h" unicode="&#x160;" 
d="M844 119l-28 75q-42 109 -120 109h-689q-9 0 -19 7.5t-16 23.5q-7 17 -4 27.5t12 10.5h767l-44 114h-819q-71 0 -32 -101l32 -82q40 -106 111 -107h690q29 -2 44 -43q-1 -7 -4.5 -17t-12.5 -16h-758l46 -119h812q78 0 32 118zM99 675l-124 1l195 -144l156 -1l94 145
l-141 -1l-51 -96z" />
    <glyph glyph-name="FL0161h" unicode="&#x161;" 
d="M844 119l-28 75q-42 109 -120 109h-689q-9 0 -19 7.5t-16 23.5q-7 17 -4 27.5t12 10.5h767l-44 114h-819q-71 0 -32 -101l32 -82q40 -106 111 -107h690q29 -2 44 -43q-1 -7 -4.5 -17t-12.5 -16h-758l46 -119h812q78 0 32 118zM99 675l-124 1l195 -144l156 -1l94 145
l-141 -1l-51 -96z" />
    <glyph glyph-name="FL0178h" unicode="&#x178;" horiz-adv-x="984" 
d="M494 1l-75 195h328q69 0 27 110l-70 180h-95l53 -137q8 -35 -12 -47h-628q-33 0 -53 38l-56 146h-100l67 -174q45 -116 117 -116h320l75 -195h102zM206 553l-44 115h-135l44 -115h135zM415 553l-44 115h-135l44 -115h135z" />
    <glyph glyph-name="FL017Dh" unicode="&#x17d;" 
d="M-45 116l45 -115h890l-46 119h-598l500 256l-43 110h-890l44 -114h590zM99 675l-124 1l195 -144l156 -1l94 145l-141 -1l-51 -96z" />
    <glyph glyph-name="FL017Eh" unicode="&#x17e;" 
d="M-45 116l45 -115h890l-46 119h-598l500 256l-43 110h-890l44 -114h590zM99 675l-124 1l195 -144l156 -1l94 145l-141 -1l-51 -96z" />
    <glyph glyph-name="FL0192h" unicode="&#x192;" horiz-adv-x="984" 
d="M173 -185h-101l-257 669h889l42 -110h-788l29 -74h788l40 -104h-788z" />
    <glyph glyph-name="FL02C6h" unicode="&#x2c6;" horiz-adv-x="511" 
d="M-70 532l-124 -1l85 144l156 1l204 -145l-141 1l-125 96z" />
    <glyph glyph-name="FL02DCh" unicode="&#x2dc;" horiz-adv-x="455" 
d="M141 546l-44 115h-344l44 -115h344z" />
    <glyph glyph-name="FL2013h" unicode="&#x2013;" horiz-adv-x="484" 
d="M317 196h-391l-40 104h391z" />
    <glyph glyph-name="FL2014h" unicode="&#x2014;" horiz-adv-x="484" 
d="M317 196h-391l-40 104h391z" />
    <glyph glyph-name="FL2018h" unicode="&#x2018;" horiz-adv-x="194" 
d="M-154 402l11 -30l63 -102h26l-39 102h26q24 0 13 26l-24 62q-9 26 -37 26h-47q-25 0 -13 -30z" />
    <glyph glyph-name="FL2019h" unicode="&#x2019;" horiz-adv-x="194" 
d="M-54 402l11 -30l15 -102h-26l-39 102h-26q-22 0 -33 26l-24 62q-9 26 17 26h47q25 0 37 -30z" />
    <glyph glyph-name="FL201Ah" unicode="&#x201a;" horiz-adv-x="194" 
d="M88 32l11 -30l15 -102h-26l-39 102h-26q-22 0 -33 26l-24 62q-9 26 17 26h47q25 0 37 -30z" />
    <glyph glyph-name="FL201Ch" unicode="&#x201c;" horiz-adv-x="350" 
d="M-154 402l11 -30l63 -102h26l-39 102h26q24 0 13 26l-24 62q-9 26 -37 26h-47q-25 0 -13 -30zM4 402l11 -30l63 -102h26l-39 102h26q24 0 13 26l-24 62q-9 26 -37 26h-47q-25 0 -13 -30z" />
    <glyph glyph-name="FL201Dh" unicode="&#x201d;" horiz-adv-x="350" 
d="M104 402l11 -30l15 -102h-26l-39 102h-26q-22 0 -33 26l-24 62q-9 26 17 26h47q25 0 37 -30zM-54 402l11 -30l15 -102h-26l-39 102h-26q-22 0 -33 26l-24 62q-9 26 17 26h47q25 0 37 -30z" />
    <glyph glyph-name="FL201Eh" unicode="&#x201e;" horiz-adv-x="350" 
d="M248 31l12 -30l15 -102h-26l-39 102h-26q-24 0 -33 26l-24 62q-11 26 17 26h47q25 0 36 -30zM90 31l12 -30l15 -102h-26l-39 102h-26q-24 0 -33 26l-24 62q-11 26 17 26h47q25 0 36 -30z" />
    <glyph glyph-name="FL2020h" unicode="&#x2020;" horiz-adv-x="984" 
d="M286 277h-391l-40 104h391l-40 103h102l40 -103h396l40 -104h-396l106 -276h-102z" />
    <glyph glyph-name="FL2021h" unicode="&#x2021;" horiz-adv-x="984" 
d="M286 277l32 -84l-392 -1l40 -104l392 1l34 -88h102l-34 87h395l-40 104h-395l-32 85h396l-40 104h-396l-40 103h-102l40 -103h-391l40 -104h391z" />
    <glyph glyph-name="FL2022h" unicode="&#x2022;" horiz-adv-x="612" 
d="M-78 267q-18 46 -14.5 87t26 72t61 48.5t91.5 17.5q52 0 105 -17.5t98.5 -48.5t81 -72t53.5 -87q18 -47 14 -87.5t-26.5 -71.5t-61.5 -48.5t-91 -17.5q-53 0 -105.5 17.5t-98 48.5t-80.5 71.5t-53 87.5z" />
    <glyph glyph-name="FL2026h" unicode="&#x2026;" horiz-adv-x="602" 
d="M476 32l-21 54q-12 30 -37 30h-47q-26 0 -17 -26l24 -62q11 -26 33 -26h48q27 0 17 30zM88 32l-21 54q-12 30 -37 30h-47q-26 0 -17 -26l24 -62q11 -26 33 -26h48q27 0 17 30zM284 32l-21 54q-12 30 -37 30h-47q-26 0 -17 -26l24 -62q11 -26 33 -26h48q27 0 17 30z" />
    <glyph glyph-name="FL2030h" unicode="&#x2030;" horiz-adv-x="1332" 
d="M182 0h142l191 484h-137zM224 333l-29 76q-3 8 -8.5 11t-11.5 5h-249q-10 0 -4 -16l29 -76q9 -12 15 -12h252q6 1 6 12zM252 275h-293q-28 0 -46 48l-41 106q-15 40 13 40h298q30 0 45 -40l41 -106q18 -48 -12 -48h-5zM784 82l-30 76q-3 8 -8.5 11t-11.5 5h-249
q-10 0 -4 -16l30 -76q9 -12 14 -12h252q5 1 7 12zM812 24h-293q-28 0 -47 48l-40 106q-16 40 12 40h298q30 0 46 -40l40 -106q19 -48 -11 -48h-5zM1183 82l-30 76q-3 8 -8.5 11t-11.5 5h-249q-10 0 -4 -16l30 -76q9 -12 14 -12h252q5 1 7 12zM1211 24h-293q-28 0 -47 48
l-40 106q-16 40 12 40h298q30 0 46 -40l40 -106q19 -48 -11 -48h-5z" />
    <glyph glyph-name="FL2039h" unicode="&#x2039;" horiz-adv-x="272" 
d="M12 250l1 236h-106l-2 -241l189 -244h106z" />
    <glyph glyph-name="FL203Ah" unicode="&#x203a;" horiz-adv-x="272" 
d="M-4 250l-183 236h106l188 -241l-1 -244h-106z" />
    <glyph glyph-name="FL20ACh" unicode="&#x20ac;" 
d="M129 2h760l-556 484h-134l-200 -484h130z" />
    <glyph glyph-name="FL2122h" unicode="&#x2122;" horiz-adv-x="834" 
d="M86 292h-41l-58 150h-157l-17 44h356l17 -44h-158zM482 292h-40l-57 149h-105q-3 -1 -6 -13l52 -136h-41l-57 147q-17 47 10 47h297q32 0 49 -47l57 -147h-41l-52 136q-12 11 -16 13h-107z" />
    </font>
</defs>
</svg>
