<?xml version="1.0" encoding="utf-8"?>
<!-- Generator: Adobe Illustrator 18.0.0, SVG Export Plug-In . SVG Version: 6.00 Build 0)  -->
<!DOCTYPE svg PUBLIC "-//W3C//DTD SVG 1.1//EN" "http://www.w3.org/Graphics/SVG/1.1/DTD/svg11.dtd">
<svg version="1.1" id="Layer_1" xmlns="http://www.w3.org/2000/svg" xmlns:xlink="http://www.w3.org/1999/xlink" x="0px" y="0px"
	 viewBox="0 0 673.5 673.5" enable-background="new 0 0 673.5 673.5" xml:space="preserve">
<radialGradient id="SVGID_1_" cx="336.9225" cy="337.3608" r="324.0284" gradientUnits="userSpaceOnUse">
	<stop  offset="0.2869" style="stop-color:#F4F4F4"/>
	<stop  offset="0.6175" style="stop-color:#F2F2F2"/>
	<stop  offset="0.7365" style="stop-color:#EBEBEB"/>
	<stop  offset="0.8214" style="stop-color:#E0E0E0"/>
	<stop  offset="0.8901" style="stop-color:#CFCFCF"/>
	<stop  offset="0.9481" style="stop-color:#B9B9B9"/>
	<stop  offset="0.9993" style="stop-color:#9E9E9E"/>
	<stop  offset="1" style="stop-color:#9E9E9E"/>
</radialGradient>
<path fill-rule="evenodd" clip-rule="evenodd" fill="url(#SVGID_1_)" stroke="#FAC71F" stroke-width="8.0717" d="M661,337.4
	c0,179-145.1,324-324,324c-179,0-324-145.1-324-324c0-178.9,145.1-324,324-324C515.9,13.3,661,158.4,661,337.4z"/>
<path fill-rule="evenodd" clip-rule="evenodd" fill="#043789" stroke="#FAC71F" stroke-width="8.0717" d="M582.1,333.8
	c0,135.7-110.6,245.7-247.1,245.7c-136.5,0-247.1-110-247.1-245.7C87.9,198.1,198.5,88,335,88C471.4,88,582.1,198.1,582.1,333.8z"/>
<line fill-rule="evenodd" clip-rule="evenodd" fill="#34367B" x1="272.8" y1="243.1" x2="272.8" y2="243.1"/>
<g>
	<path fill="#043789" d="M193.3,592.9l-26.4-16.2l12.9-21.1l26.4,16.2l-2.9,4.8l-23.5-14.4l-2,3.2l23.5,14.4l-2.8,4.5L175,570
		l-2,3.3l23.5,14.4L193.3,592.9z"/>
	<path fill="#043789" d="M239.1,606.7c-1.5,3.7-3.1,5.3-4.8,4.6L208,600.6l2.3-5.6l24.5,9.9c0.3-0.1,0.7-0.3,0.9-0.5
		c0.3-0.2,0.5-0.5,0.7-0.6c0.5-1.3,0.5-2.1-0.1-2.4l-22.3-9.1c-1.5-0.6-1.5-2.6-0.2-6l1.6-3.9c1.3-3.2,2.7-4.5,4.2-3.9l26.5,10.7
		l-2.2,5.4l-24.8-10.1c-0.2-0.1-0.4,0-0.7,0.3c-0.3,0.3-0.5,0.7-0.8,1.2c-0.2,0.5-0.3,0.9-0.2,1.2c0,0.3,0.2,0.5,0.4,0.6l22.3,9
		c1.7,0.7,1.8,2.7,0.4,6.2L239.1,606.7z"/>
	<path fill="#043789" d="M265.7,620.5l4.2-18.6l-13.3-3l1.2-5.5l30.3,6.8l-1.2,5.5l-13.5-3l-4.2,18.6L265.7,620.5z"/>
	<path fill="#043789" d="M329.6,628.9l-0.3-6.1l13.7-0.6l-0.6-12.9l-13.7,0.6l-0.2-5.6l17.2-0.8l0.8,18.5l13.8-0.6l0.3,6.1
		L329.6,628.9z"/>
	<path fill="#043789" d="M402,610.8l-24.1,5c-1.9,0.4-3.1-0.9-3.7-3.9l-1-4.6c-0.8-3.9-0.4-6.1,1.4-6.5l25.4-5.3
		c1.6-0.3,2.8,1.5,3.7,5.4l2.8,13.3c0.7,3.4,0.3,5.3-1.3,5.6l-28,5.8l-1.2-5.6l25.9-5.4c0.6-0.1,0.8-0.9,0.5-2.2L402,610.8z
		 M400.9,605.7l-0.5-2.6c-0.5-0.9-0.9-1.4-1.2-1.3l-21.5,4.5c-0.6,0.6-0.8,1.3-0.6,2.2c0.2,0.9,0.6,1.5,1.3,1.9L400.9,605.7z"/>
	<path fill="#043789" d="M421.1,599.4l22.9-8.9c1.8-0.7,3.2,0.4,4.3,3.3l1.7,4.3c1.5,3.8,1.4,6-0.3,6.6l-24.2,9.4
		c-1.5,0.6-3-1-4.5-4.8l-4.9-12.6c-1.3-3.3-1.1-5.2,0.4-5.8l26.7-10.3l2,5.2l-24.7,9.6c-0.6,0.3-0.6,1.1-0.1,2.4L421.1,599.4z
		 M423,604.3l1,2.5c0.6,0.9,1.1,1.2,1.4,1.1l20.5-7.9l0.3-1.8l-0.5-1.2l-1.3-1L423,604.3z"/>
	<path fill="#043789" d="M494,581l-2.9,1.7l-5.1-8.6l-24,14.1l-7.5-12.7l3-1.8l4.7,8l20.9-12.3l-4.7-8l2.9-1.7L494,581z"/>
</g>
<g>
	<path fill="#043789" d="M99.5,206.3l-13.6,27.8l-22.2-10.9l13.6-27.8l5.1,2.5l-12.1,24.7l3.4,1.7l12.1-24.7l4.8,2.3l-12.1,24.7
		l3.4,1.7l12.1-24.7L99.5,206.3z"/>
	<path fill="#043789" d="M115.5,168.7l-14.2-10.1l2-2.9l15.3,10.9c3.3,2.3,4.4,4.2,3.4,5.7l-15,21.1c-1,1.3-3.1,0.8-6.4-1.5
		L85.4,181l2.1-3l14.2,10.1c1,0.4,1.6,0.4,1.7,0.2l12.7-17.9L115.5,168.7z"/>
	<path fill="#043789" d="M153.3,138.3l-2.6,2.6l-9.1-5l-14.9,15l7.1,7l-2.5,2.5l-17.7-17.5l20.2-20.4c1.1-1.1,2.9-0.5,5.3,1.8
		l2.9,2.9c2.7,2.6,3.4,4.5,2.3,5.7l-0.2,0.2L153.3,138.3z M136.7,127.9l-16.4,16.6l2.6,2.6l16.3-16.5c0.1-0.7-0.1-1.3-0.7-1.9
		C138.1,128.2,137.5,127.9,136.7,127.9z"/>
	<path fill="#043789" d="M177.7,119l-13,9.5c-1.5,1.1-3.4,0-5.8-3.3l-8-10.9c-2.1-2.8-2.3-4.8-0.8-5.9l20.7-15.1
		c1.4-1,3.2-0.1,5.2,2.7l8,10.9c2.4,3.3,2.9,5.4,1.4,6.5L177.7,119z M180.3,107.8l-5.6-7.7c-0.4-0.6-0.8-0.9-1.2-1
		c-0.4-0.1-0.7-0.1-1.1,0l-17.5,12.8c-0.5,0.4-0.3,1.2,0.5,2.3l5.6,7.7c0.8,0.7,1.4,0.9,1.7,0.7l17.8-13
		C180.7,109.4,180.6,108.8,180.3,107.8z"/>
	<path fill="#043789" d="M208.1,88.7l-11.5,5.8l4.5,8.9l-3.1,1.6l-11.2-22.2l25.6-12.9c1.4-0.7,2.9,0.4,4.4,3.4l1.9,3.7
		c1.7,3.4,1.8,5.4,0.4,6.1L208.1,88.7z M213.3,76l-20.7,10.5l1.7,3.4l20.8-10.5c0.2-0.6,0.2-1.3-0.2-2C214.6,76.7,214,76.3,213.3,76
		z"/>
	<path fill="#043789" d="M266.9,76.8l-29.6,9.3l-7.4-23.6l29.6-9.3l1.7,5.4l-26.2,8.2l1.1,3.6l26.2-8.2l1.6,5.1l-26.2,8.2l1.1,3.6
		l26.2-8.2L266.9,76.8z"/>
	<path fill="#043789" d="M309.7,69.4l-3.7,0.5l-1.4-9.9L281,63.4l1.4,9.9l-3.5,0.5l-2.8-19.7c-0.4-3.2,0.5-4.9,2.6-5.2l24.5-3.5
		c2-0.3,3.2,1.3,3.7,4.7L309.7,69.4z M280.3,58.1l23.7-3.4l-0.3-2.1c-0.5-0.8-0.8-1.2-1-1.3l-22,3.1c-0.2,0-0.4,0.5-0.6,1.5
		L280.3,58.1z"/>
	<path fill="#043789" d="M349,49.9l-22-0.4c-0.3,0.1-0.6,0.6-0.9,1.7l-0.4,17.4l-3.6-0.1l0.4-18.8c0.1-4,0.9-6,2.6-6l25.9,0.5
		c1.8,0,2.6,2.1,2.5,6.1l-0.4,18.8l-3.5-0.1l0.4-17.4C349.6,50.6,349.3,50,349,49.9z"/>
	<path fill="#043789" d="M409.8,79.7l-3.4-1l5.4-18.3l-8.8-2.6c-0.3,0-0.8,0.5-1.3,1.4l-4.9,16.7l-3.5-1l5.3-18
		c1.1-3.9,2.5-5.6,4.1-5.1l24.9,7.4c1.7,0.5,2,2.7,0.8,6.6l-5.3,18l-3.4-1l4.9-16.7c-0.1-1-0.2-1.6-0.5-1.9l-8.9-2.6L409.8,79.7z"/>
	<path fill="#043789" d="M451.7,96.1l-14.5-7c-1.6-0.8-1.6-3,0.2-6.6l5.9-12.2c1.5-3.2,3.1-4.3,4.8-3.5l23,11.2
		c1.6,0.8,1.6,2.7,0.1,5.9L465.3,96c-1.8,3.6-3.4,5.1-5,4.3L451.7,96.1z M462.7,93.2l4.2-8.6c0.3-0.6,0.4-1.2,0.3-1.5
		c-0.1-0.4-0.3-0.7-0.5-1l-19.5-9.5c-0.6-0.2-1.2,0.3-1.8,1.6l-4.2,8.6c-0.2,1-0.1,1.6,0.2,1.8l19.8,9.6
		C461.5,94.2,462,93.9,462.7,93.2z"/>
	<path fill="#043789" d="M484.7,115.4l11-15.6l-11.2-7.9l3.2-4.6l25.4,17.9l-3.2,4.6l-11.3-8l-11,15.6L484.7,115.4z"/>
	<path fill="#043789" d="M522.2,146.4l-11.5-11.3c-1.3-1.3-0.6-3.4,2.3-6.2l9.5-9.7c2.5-2.5,4.3-3.1,5.7-1.8l18.3,17.9
		c1.3,1.2,0.7,3.1-1.8,5.6l-9.5,9.7c-2.8,2.9-4.9,3.7-6.1,2.5L522.2,146.4z M533.5,147.1l6.7-6.8c0.5-0.5,0.8-1,0.8-1.3
		c0-0.4,0-0.8-0.2-1.1l-15.5-15.2c-0.5-0.4-1.2-0.1-2.2,0.9l-6.7,6.8c-0.5,0.9-0.7,1.5-0.4,1.7l15.7,15.4
		C532.1,147.7,532.7,147.6,533.5,147.1z"/>
	<path fill="#043789" d="M557.6,189.1l-2.2-3l6.4-8.2l-12.5-17l-8.1,5.9l-2.1-2.8l20-14.7l17,23.1c1,1.3,0.1,3-2.7,5l-3.3,2.5
		c-3,2.2-5,2.7-6,1.4l-0.2-0.2L557.6,189.1z M570.4,174.4l-13.8-18.8l-3,2.2l13.8,18.7c0.7,0.2,1.3,0.1,2-0.4
		C570,175.7,570.3,175.1,570.4,174.4z"/>
	<path fill="#043789" d="M583.8,224.5c-3.6,1.8-5.8,1.9-6.6,0.3l-12.9-25.2l5.4-2.8l12,23.5c0.3,0.1,0.7,0.2,1,0.2
		c0.4,0,0.7,0,0.9,0c1.3-0.6,1.8-1.3,1.5-1.9l-11-21.5c-0.7-1.5,0.5-3,3.8-4.6l3.8-1.9c3.1-1.6,5-1.6,5.7-0.1l13,25.5l-5.2,2.7
		l-12.2-23.8c-0.1-0.2-0.3-0.3-0.7-0.3c-0.4,0-0.8,0.2-1.4,0.4c-0.5,0.2-0.8,0.5-0.9,0.7c-0.2,0.3-0.2,0.5-0.1,0.7l10.9,21.4
		c0.8,1.6-0.4,3.2-3.7,4.9L583.8,224.5z"/>
</g>
<line fill-rule="evenodd" clip-rule="evenodd" fill="#34367B" x1="276.6" y1="234.7" x2="276.6" y2="234.7"/>
<line fill-rule="evenodd" clip-rule="evenodd" fill="#34367B" x1="877.1" y1="51.4" x2="877.1" y2="51.4"/>
<g>
	<g>
		<linearGradient id="SVGID_2_" gradientUnits="userSpaceOnUse" x1="454.8727" y1="281.8069" x2="519.4291" y2="281.8069">
			<stop  offset="0.3158" style="stop-color:#E6E6E6"/>
			<stop  offset="0.6797" style="stop-color:#E4E4E4"/>
			<stop  offset="0.8108" style="stop-color:#DDDDDD"/>
			<stop  offset="0.9043" style="stop-color:#D1D1D1"/>
			<stop  offset="0.9793" style="stop-color:#C0C0C0"/>
			<stop  offset="1" style="stop-color:#BABABA"/>
		</linearGradient>
		<path fill="url(#SVGID_2_)" d="M484.4,306.3c-0.9-0.5-0.4-9.9,2.4-9.3c1.4,0.3,10.1,3.7,14.2,4.9c1.1,0.3,2.6,1,3.5,0.3
			c3.9-3.1,13-10.3,10.9-12.3c-1.9-1.9-5.1-3-5.7-5.1c-1.7-5.6-2.3-9,1.8-1.4c1,1.9,1.8,2,4.8,4.2c2.5,1.8,3.6-9.4,2.9-11.2
			c-1.4-3.4-22.7-13.2-27.3-17.2c-2.1-1.8-10.3-11.5-13.5-15.4c-0.7-0.8-1.9-0.7-2.5,0.2c-2.1,3.4-6.8,11.1-10.8,17.5
			c-3.3,5.5-9.7,19.6-10.2,24.8c-0.4,4.2,2,15.5,11.7,26.7c3.8,4.4,11.8,3.8,35.5,7.4c1.7,0.3,2.9-0.5,3.5-1.9
			c0.6-1.5,1.7-8.9-1.1-11.4c-0.6-0.5-1.5-1.8-2.3-1.7C498.2,305.7,486.6,307.5,484.4,306.3z M480.4,260.6c0.7-0.6,1.6-1.1,2.5-0.6
			c4.5,2.2,11.2,10.7,11.2,10.7c0,0-11-1.1-14.9-3.8c-0.5-0.4-0.9-0.6-0.9-1.5C478.1,263.7,479.1,261.8,480.4,260.6z"/>
	</g>
	<linearGradient id="SVGID_3_" gradientUnits="userSpaceOnUse" x1="178.5711" y1="423.3183" x2="471.8528" y2="423.3183">
		<stop  offset="0.3158" style="stop-color:#E6E6E6"/>
		<stop  offset="0.6797" style="stop-color:#E4E4E4"/>
		<stop  offset="0.8108" style="stop-color:#DDDDDD"/>
		<stop  offset="0.9043" style="stop-color:#D1D1D1"/>
		<stop  offset="0.9793" style="stop-color:#C0C0C0"/>
		<stop  offset="1" style="stop-color:#BABABA"/>
	</linearGradient>
	<path fill="url(#SVGID_3_)" d="M238.5,506.7c-14.6,1-14.6,1-18.9-1.7c-53.7-33.4,21.6-61.7,20-90.5c-0.5-9.3-10-15.3-11.4-16
		c-10.1-4.8-14.4-2.9-23.8-1.1c0,0-15-3.4-21.8,9c-2.5,4.7,0.5-1.1-4,8.4c-0.7,1.4,4.4,1.4,7.2,2.8c13,6.5,24.8-5.3,26.7-6.9
		c5.9-5.1,12.7-4.1,15.2,2.1c1.4,3.3-1.7,10.5-6.5,16c-18.1,20.8-63.5,54.6-6.2,89.4c3.4,2.1,21.1,1.3,21.1,1.3
		c23.5-0.3,90.7-0.2,99.4-0.1c0.6,0,1-0.4,1.1-1c0.3-2.1,0.4-6.7-4.4-7c-2.2-0.1-0.3-1.4,0.2-1.3c6.4,0.4,6.4,6.6,6.3,8.6
		c0,0.4,0.3,0.7,0.6,0.7h4.1c0.8,0,1.4-0.8,1.2-1.6c-1-3.8-3.9-13.3-7.7-16c-0.6-0.4-2.5-1.5-3.8-1.9c-4.6-1.4-6.7-1.5-10.9-2.6
		c-4.2-1.1-18-2.5-16.9-6.9c1.4-5.3,11-12.6,9.1-17.2c-2-4.8-6.5-9.6-15.1-12.1c-6.5-1.9,0.9-1.7,4.2-0.8c0,0,9.9,2,13.8,12.5
		c1.7,4.6-4.7,9.8-5.3,15.5c-0.1,1.2,3.9,0.3,8.4-1.3c5.1-1.8,17.3-9.5,20.3-11.9c9.3-7.4,46.7-12.1,57.2-22.9
		c6.4-6.6-3.3-21.1-3.3-21.1s0.3-1.3,1.2-0.3c2.5,2.5,7.1,9.4,8.2,11.9c3.6,8-5.2,11.2-6.2,25.5c-0.9,12.3,18.1,42.1,23,49.5
		c0.7,1.1,1.9,1.7,3.1,1.7l37.2-0.1c0.9,0,1.6-0.6,1.7-1.5c0.3-2.5,0.2-7.5-4.6-7.6c-2.6-0.1-0.7-1.3-0.1-1.4
		c7.6-0.6,7.5,7.1,7.2,9.6c0,0.4,0.3,0.8,0.7,0.8l4.3,0c0.8,0,1.5-0.7,1.3-1.5c-0.7-3.6-2.8-12.4-5.2-15.7c-2.2-3-16.6-4.1-19.6-4.7
		c-1.6-0.3-3.2-1.9-3.6-3.5c-2.4-9.1-9.1-37.2-2.7-43.9c8.2-8.6,14.2-24.9,16.1-32.1c1-3.8,0.9-6.3-3.3-10.7l-62-63.7
		c-0.5-0.5-2.6-2.7-4.4-4.4c-1.2-1.1-2.6-2-4.2-2.5l-31.1-9.1c-2.6-1.1-4.8-0.1-5.3,2.6l-2,9.8c-1.2,5.7-3.5,11.1-6.9,15.9
		c-10.4,14.8-48.2,49-60.3,59.5c-4,3.5-14.1,7.5-18.4,10.7C224.3,451.1,234.7,500.2,238.5,506.7"/>
	<linearGradient id="SVGID_4_" gradientUnits="userSpaceOnUse" x1="347.3504" y1="310.986" x2="475.5323" y2="310.986">
		<stop  offset="0.3158" style="stop-color:#E6E6E6"/>
		<stop  offset="0.6797" style="stop-color:#E4E4E4"/>
		<stop  offset="0.8108" style="stop-color:#DDDDDD"/>
		<stop  offset="0.9043" style="stop-color:#D1D1D1"/>
		<stop  offset="0.9793" style="stop-color:#C0C0C0"/>
		<stop  offset="1" style="stop-color:#BABABA"/>
	</linearGradient>
	<path fill-rule="evenodd" clip-rule="evenodd" fill="url(#SVGID_4_)" d="M471,243C471,243,471,243,471,243c1.1-2.4,3.4-5.1,3.4-5.1
		c-8.5-26-51.6-28.6-63-20.3c-2.6,1.9,4.2,10.1,5.4,12l11.5,16.6c1.6,2.4,0.8,2.1-0.8,0.6c-7.3-6.8-19.4-22.5-24.7-22.9
		c-6.1-0.4-11.9,5-14.6,8c-3.8,4.1-7,11.2-8.2,13.9c-0.3,0.6,0,1.3,0.6,1.5l34.1,13.7c6.1,2.8-0.4,1.3-0.6,1.2
		c-8.6-1.5-30.6-8.7-35.9-7.5c-4.9,1.1-7.6,4.9-9.1,7.2c-3.2,5-10.1,20.2-11.8,24c-0.2,0.4,0.2,0.8,0.6,0.7l42.1-6.6
		c19.3-2.3,0.4,2.3,0.2,2.4c-9.4,2.7-35.7,8.4-43.5,14.7c-4.9,4-12.5,22.7-8.1,24c7.5,2.3,29.7,9,35.4,10.6c0.5,0.1,1.7,0.6,2.9-0.9
		c1.8-2.4,10.9-13.5,9-24.5c0,0-0.1-3.6,1.9,3.2c1.7,6-4.3,17.2-5.5,21.7c-0.3,1.1-1.2,4.7,1.9,7.7c2.7,2.7,19.1,18.7,22.9,22.5
		c0.6,0.6,1.5,0.6,1.8-0.1c3.5-6.8,16.2-33.7,11.6-44.1c-0.1-0.2,1-1.1,2.6,4.2c2.2,7.5-7.6,43-7.6,43c-0.8,2.9,0.1,5.9,2.2,8
		c0,0,26.5,27.7,33,34.2c3.2,3.2,3.3,2.1,6.5-5.7c4.8-11.5,11.6-50.7,6.2-63.8c-4.3-10.3-24.6-37.1-24.4-48.9
		C449.5,272.7,470.8,243.3,471,243z M449,263.6c-5.9,6.5-7.3-1.9-7.6-9.1c-0.2-4.7,0.9-10.8,8.2-10c5.1,0.6,9.7,4.3,11.4,6.1
		c0.4,0.4,0.5,1.9,0,1.6C434.6,237.8,449,263.6,449,263.6z"/>
	<linearGradient id="SVGID_5_" gradientUnits="userSpaceOnUse" x1="152.357" y1="270.9898" x2="340.1516" y2="270.9898">
		<stop  offset="0.3158" style="stop-color:#E6E6E6"/>
		<stop  offset="0.6797" style="stop-color:#E4E4E4"/>
		<stop  offset="0.8108" style="stop-color:#DDDDDD"/>
		<stop  offset="0.9043" style="stop-color:#D1D1D1"/>
		<stop  offset="0.9793" style="stop-color:#C0C0C0"/>
		<stop  offset="1" style="stop-color:#BABABA"/>
	</linearGradient>
	<path fill-rule="evenodd" clip-rule="evenodd" fill="url(#SVGID_5_)" d="M339.8,327c0,0,2.4,12.2-5.4,24.2
		c-0.5,0.8-1.9,0.9-2.5,0.2c-34.7-43.9-35.8-74-38.7-86c-0.4-1.7-1.4-3.2-3.3-3.9c-16.7-6.7-75.8-24.4-128.3-42.6
		c-4.8-1.7-12.6-31.2-7.6-28.7c16.2,7.9,136,54.8,146.7,60.2c4,2,7.6,5,8.7,8.7C315.2,278.4,320,311.7,339.8,327"/>
	<linearGradient id="SVGID_6_" gradientUnits="userSpaceOnUse" x1="165.9703" y1="253.3385" x2="289.555" y2="253.3385">
		<stop  offset="0.3158" style="stop-color:#E6E6E6"/>
		<stop  offset="0.6797" style="stop-color:#E4E4E4"/>
		<stop  offset="0.8108" style="stop-color:#DDDDDD"/>
		<stop  offset="0.9043" style="stop-color:#D1D1D1"/>
		<stop  offset="0.9793" style="stop-color:#C0C0C0"/>
		<stop  offset="1" style="stop-color:#BABABA"/>
	</linearGradient>
	<path fill-rule="evenodd" clip-rule="evenodd" fill="url(#SVGID_6_)" d="M284.2,264.5c1.7,0.5,3.3,1.3,3.7,3.1l1.4,8.8
		c0.3,1.7,0.5,2.1-1.6,1.4c-14.7-4.6-75.2-18.1-110.9-27.7c-6.2-1.7-14-22.7-9.5-21.3C181.6,233.1,207.8,240.2,284.2,264.5z"/>
	<linearGradient id="SVGID_7_" gradientUnits="userSpaceOnUse" x1="181.8874" y1="276.4244" x2="294.914" y2="276.4244">
		<stop  offset="0.3158" style="stop-color:#E6E6E6"/>
		<stop  offset="0.6797" style="stop-color:#E4E4E4"/>
		<stop  offset="0.8108" style="stop-color:#DDDDDD"/>
		<stop  offset="0.9043" style="stop-color:#D1D1D1"/>
		<stop  offset="0.9793" style="stop-color:#C0C0C0"/>
		<stop  offset="1" style="stop-color:#BABABA"/>
	</linearGradient>
	<path fill-rule="evenodd" clip-rule="evenodd" fill="url(#SVGID_7_)" d="M288.1,281.7c1.6,0.4,3.1,1,3.7,2.5l2.9,9.1
		c0.4,1.5,0.6,1.8-1.3,1.4c-13.6-3.2-67.7-11-99.4-18.2c-5.7-1.3-15.2-19.3-11.1-18.4C196.1,261.2,217.2,264.7,288.1,281.7z"/>
	<linearGradient id="SVGID_8_" gradientUnits="userSpaceOnUse" x1="198.3423" y1="296.799" x2="301.4295" y2="296.799">
		<stop  offset="0.3158" style="stop-color:#E6E6E6"/>
		<stop  offset="0.6797" style="stop-color:#E4E4E4"/>
		<stop  offset="0.8108" style="stop-color:#DDDDDD"/>
		<stop  offset="0.9043" style="stop-color:#D1D1D1"/>
		<stop  offset="0.9793" style="stop-color:#C0C0C0"/>
		<stop  offset="1" style="stop-color:#BABABA"/>
	</linearGradient>
	<path fill-rule="evenodd" clip-rule="evenodd" fill="url(#SVGID_8_)" d="M294,298.7c1.5,0.2,2.9,0.7,3.5,2l3.5,8.1
		c0.5,1.3,0.8,1.6-1,1.3c-13.9-1.8-56.9-6.2-87.1-9.5c-5.3-0.6-17.7-18-13.9-17.3C211.2,285.3,228.8,288,294,298.7z"/>
	<linearGradient id="SVGID_9_" gradientUnits="userSpaceOnUse" x1="217.3401" y1="315.6544" x2="308.4024" y2="315.6544">
		<stop  offset="0.3158" style="stop-color:#E6E6E6"/>
		<stop  offset="0.6797" style="stop-color:#E4E4E4"/>
		<stop  offset="0.8108" style="stop-color:#DDDDDD"/>
		<stop  offset="0.9043" style="stop-color:#D1D1D1"/>
		<stop  offset="0.9793" style="stop-color:#C0C0C0"/>
		<stop  offset="1" style="stop-color:#BABABA"/>
	</linearGradient>
	<path fill-rule="evenodd" clip-rule="evenodd" fill="url(#SVGID_9_)" d="M301.2,314c1.3,0.1,2.7,0.4,3.4,1.6l3.4,7.9
		c0.6,1.1,0.8,1.3-0.8,1.3c-15.3-0.7-47.3-3-76.5-4.3c-4.8-0.2-16.1-14.2-12.6-13.9C229.1,307.5,241.7,308.5,301.2,314z"/>
	<linearGradient id="SVGID_10_" gradientUnits="userSpaceOnUse" x1="234.9313" y1="332.0522" x2="315.3413" y2="332.0522">
		<stop  offset="0.3158" style="stop-color:#E6E6E6"/>
		<stop  offset="0.6797" style="stop-color:#E4E4E4"/>
		<stop  offset="0.8108" style="stop-color:#DDDDDD"/>
		<stop  offset="0.9043" style="stop-color:#D1D1D1"/>
		<stop  offset="0.9793" style="stop-color:#C0C0C0"/>
		<stop  offset="1" style="stop-color:#BABABA"/>
	</linearGradient>
	<path fill-rule="evenodd" clip-rule="evenodd" fill="url(#SVGID_10_)" d="M308.2,328c1.2,0,2.4,0.2,3.2,1.2l3.5,5.7
		c0.6,1,0.9,1.1-0.6,1.2c-12.8,0.9-39.1,1.6-65.5,2.6c-4.3,0.2-16.4-13.3-13.3-13.2C292,328.1,262.1,326.6,308.2,328z"/>
	<linearGradient id="SVGID_11_" gradientUnits="userSpaceOnUse" x1="252.5979" y1="347.3163" x2="322.3668" y2="347.3163">
		<stop  offset="0.3158" style="stop-color:#E6E6E6"/>
		<stop  offset="0.6797" style="stop-color:#E4E4E4"/>
		<stop  offset="0.8108" style="stop-color:#DDDDDD"/>
		<stop  offset="0.9043" style="stop-color:#D1D1D1"/>
		<stop  offset="0.9793" style="stop-color:#C0C0C0"/>
		<stop  offset="1" style="stop-color:#BABABA"/>
	</linearGradient>
	<path fill-rule="evenodd" clip-rule="evenodd" fill="url(#SVGID_11_)" d="M315.9,339.8c1.1-0.1,2,0.3,2.8,1.1l3.1,5
		c0.7,0.8,0.9,0.9-0.4,1.1c-18.5,2.4-41.5,5.9-55.1,7.8c-3.8,0.5-16.1-12.1-13.3-12.1C263.4,342.4,270.3,342.2,315.9,339.8z"/>
	<linearGradient id="SVGID_12_" gradientUnits="userSpaceOnUse" x1="270.2134" y1="359.7696" x2="328.3904" y2="359.7696">
		<stop  offset="0.3158" style="stop-color:#E6E6E6"/>
		<stop  offset="0.6797" style="stop-color:#E4E4E4"/>
		<stop  offset="0.8108" style="stop-color:#DDDDDD"/>
		<stop  offset="0.9043" style="stop-color:#D1D1D1"/>
		<stop  offset="0.9793" style="stop-color:#C0C0C0"/>
		<stop  offset="1" style="stop-color:#BABABA"/>
	</linearGradient>
	<path fill-rule="evenodd" clip-rule="evenodd" fill="url(#SVGID_12_)" d="M322.6,349.9c1-0.2,2-0.1,2.7,0.6l2.8,3.8
		c0.7,0.7-0.5,1-0.8,1.1c-19.8,6.4-22.5,8.2-43.5,14.3c-3.3,1-15.9-10.9-13.4-11.2C278.6,357.5,281.8,356.4,322.6,349.9z"/>
	<linearGradient id="SVGID_13_" gradientUnits="userSpaceOnUse" x1="287.5287" y1="370.6962" x2="331.348" y2="370.6962">
		<stop  offset="0.3158" style="stop-color:#E6E6E6"/>
		<stop  offset="0.6797" style="stop-color:#E4E4E4"/>
		<stop  offset="0.8108" style="stop-color:#DDDDDD"/>
		<stop  offset="0.9043" style="stop-color:#D1D1D1"/>
		<stop  offset="0.9793" style="stop-color:#C0C0C0"/>
		<stop  offset="1" style="stop-color:#BABABA"/>
	</linearGradient>
	<path fill-rule="evenodd" clip-rule="evenodd" fill="url(#SVGID_13_)" d="M329.6,357.1c0.8-0.3,1,0.1,1.7,0.7
		c0,0-15.1,18.1-28.4,26.5c-2,1.3-17.3-10.7-15.2-11.4C302.9,367.6,289.4,372,329.6,357.1z"/>
	<linearGradient id="SVGID_14_" gradientUnits="userSpaceOnUse" x1="235.2524" y1="215.1178" x2="269.1556" y2="215.1178">
		<stop  offset="0.3158" style="stop-color:#E6E6E6"/>
		<stop  offset="0.6797" style="stop-color:#E4E4E4"/>
		<stop  offset="0.8108" style="stop-color:#DDDDDD"/>
		<stop  offset="0.9043" style="stop-color:#D1D1D1"/>
		<stop  offset="0.9793" style="stop-color:#C0C0C0"/>
		<stop  offset="1" style="stop-color:#BABABA"/>
	</linearGradient>
	<path fill-rule="evenodd" clip-rule="evenodd" fill="url(#SVGID_14_)" d="M269.1,232.4c0.1,0.1,0,0.4-0.2,0.3
		c-2.8-1.2-16.9-7.4-30.6-14c-7.1-3.4,0.1-22.9,1.2-21C242.4,202.5,258.7,223.3,269.1,232.4z"/>
	<linearGradient id="SVGID_15_" gradientUnits="userSpaceOnUse" x1="242.0818" y1="206.0125" x2="286.8156" y2="206.0125">
		<stop  offset="0.3158" style="stop-color:#E6E6E6"/>
		<stop  offset="0.6797" style="stop-color:#E4E4E4"/>
		<stop  offset="0.8108" style="stop-color:#DDDDDD"/>
		<stop  offset="0.9043" style="stop-color:#D1D1D1"/>
		<stop  offset="0.9793" style="stop-color:#C0C0C0"/>
		<stop  offset="1" style="stop-color:#BABABA"/>
	</linearGradient>
	<path fill-rule="evenodd" clip-rule="evenodd" fill="url(#SVGID_15_)" d="M286.8,238.8c0.1,0.2-0.2,0.5-0.4,0.4
		c-1.7-0.7-6.6-2.9-7.4-3.4c-15.9-9.9-34.7-40.1-36.5-44.3c-2.8-6.6,11.9-21.4,13-18.2C266.5,207.7,279,224.9,286.8,238.8z"/>
	<linearGradient id="SVGID_16_" gradientUnits="userSpaceOnUse" x1="261.2439" y1="200.5267" x2="306.5586" y2="200.5267">
		<stop  offset="0.3158" style="stop-color:#E6E6E6"/>
		<stop  offset="0.6797" style="stop-color:#E4E4E4"/>
		<stop  offset="0.8108" style="stop-color:#DDDDDD"/>
		<stop  offset="0.9043" style="stop-color:#D1D1D1"/>
		<stop  offset="0.9793" style="stop-color:#C0C0C0"/>
		<stop  offset="1" style="stop-color:#BABABA"/>
	</linearGradient>
	<path fill-rule="evenodd" clip-rule="evenodd" fill="url(#SVGID_16_)" d="M306.5,247.3c0.1,0.3-0.3,0.5-0.5,0.3
		c-1.6-0.9-13.1-5.8-13.7-6.6c-17.9-28.5-30.8-67.6-31.1-72.1c-0.6-9.2,22.4-18.2,22.6-14.8C285.2,176.4,289.7,204.6,306.5,247.3z"
		/>
	<linearGradient id="SVGID_17_" gradientUnits="userSpaceOnUse" x1="316.2388" y1="292.748" x2="349.3243" y2="292.748">
		<stop  offset="0.3158" style="stop-color:#E6E6E6"/>
		<stop  offset="0.6797" style="stop-color:#E4E4E4"/>
		<stop  offset="0.8108" style="stop-color:#DDDDDD"/>
		<stop  offset="0.9043" style="stop-color:#D1D1D1"/>
		<stop  offset="0.9793" style="stop-color:#C0C0C0"/>
		<stop  offset="1" style="stop-color:#BABABA"/>
	</linearGradient>
	<path fill-rule="evenodd" clip-rule="evenodd" fill="url(#SVGID_17_)" d="M316.3,266.4c-0.5-0.7,1.1,7,1.8,9.6
		c10.1,38.2,24,47.8,25.1,41.1c1.3-8,4-13.1,6.1-16.8C350.3,298.7,332.6,292.5,316.3,266.4z"/>
</g>
<line fill-rule="evenodd" clip-rule="evenodd" fill="#34367B" x1="875.8" y1="390.7" x2="875.8" y2="390.7"/>
<line fill-rule="evenodd" clip-rule="evenodd" fill="#34367B" x1="877.3" y1="387.4" x2="877.3" y2="387.4"/>
<line fill-rule="evenodd" clip-rule="evenodd" fill="#34367B" x1="555.8" y1="390.7" x2="555.8" y2="390.7"/>
<line fill-rule="evenodd" clip-rule="evenodd" fill="#34367B" x1="557.3" y1="387.4" x2="557.3" y2="387.4"/>
<path fill-rule="evenodd" clip-rule="evenodd" fill="none" stroke="#FAC71F" stroke-width="1.009" d="M152.4,189.7"/>
<path fill-rule="evenodd" clip-rule="evenodd" fill="none" stroke="#FAC71F" stroke-width="1.009" d="M304.7,381.5"/>
<path fill-rule="evenodd" clip-rule="evenodd" fill="none" stroke="#FAC71F" stroke-width="1.009" d="M287.5,266.4"/>
<path fill-rule="evenodd" clip-rule="evenodd" fill="none" stroke="#FAC71F" stroke-width="1.009" d="M331.3,357.8"/>
</svg>
